Comic Neue Regular Oblique.ufo
<glyph name="numbersign" format="1">
  <advance width="746"/>
  <unicode hex="0023"/>
  <outline>
    <contour>
      <point x="603" y="485" type="line"/>
      <point x="684" y="646" type="line"/>
      <point x="687" y="653"/>
      <point x="689" y="658"/>
      <point x="690" y="661" type="curve"/>
      <point x="693" y="675"/>
      <point x="685" y="689"/>
      <point x="668" y="689" type="curve" smooth="yes"/>
      <point x="656" y="689"/>
      <point x="642" y="681"/>
      <point x="637" y="669" type="curve"/>
      <point x="545" y="485" type="line"/>
      <point x="392" y="485" type="line"/>
      <point x="473" y="645" type="line" smooth="yes"/>
      <point x="476" y="651"/>
      <point x="478" y="656"/>
      <point x="479" y="662" type="curve"/>
      <point x="482" y="676"/>
      <point x="474" y="689"/>
      <point x="457" y="689" type="curve" smooth="yes"/>
      <point x="445" y="689"/>
      <point x="431" y="681"/>
      <point x="426" y="669" type="curve"/>
      <point x="334" y="485" type="line"/>
      <point x="182" y="485" type="line" smooth="yes"/>
      <point x="166" y="485"/>
      <point x="151" y="472"/>
      <point x="148" y="457" type="curve"/>
      <point x="144" y="441"/>
      <point x="154" y="429"/>
      <point x="170" y="429" type="curve" smooth="yes"/>
      <point x="305" y="429" type="line"/>
      <point x="223" y="266" type="line"/>
      <point x="90" y="266" type="line" smooth="yes"/>
      <point x="74" y="266"/>
      <point x="59" y="253"/>
      <point x="56" y="238" type="curve" smooth="yes"/>
      <point x="53" y="222"/>
      <point x="62" y="210"/>
      <point x="78" y="210" type="curve" smooth="yes"/>
      <point x="195" y="210" type="line"/>
      <point x="112" y="45" type="line"/>
      <point x="107" y="36"/>
      <point x="105" y="31"/>
      <point x="104" y="26" type="curve" smooth="yes"/>
      <point x="101" y="13"/>
      <point x="110" y="0"/>
      <point x="127" y="0" type="curve" smooth="yes"/>
      <point x="138" y="0"/>
      <point x="151" y="8"/>
      <point x="158" y="20" type="curve"/>
      <point x="253" y="210" type="line"/>
      <point x="406" y="210" type="line"/>
      <point x="323" y="46" type="line"/>
      <point x="318" y="37"/>
      <point x="316" y="31"/>
      <point x="315" y="28" type="curve"/>
      <point x="312" y="13"/>
      <point x="321" y="0"/>
      <point x="338" y="0" type="curve" smooth="yes"/>
      <point x="349" y="0"/>
      <point x="362" y="8"/>
      <point x="369" y="20" type="curve"/>
      <point x="464" y="210" type="line"/>
      <point x="600" y="210" type="line" smooth="yes"/>
      <point x="615" y="210"/>
      <point x="631" y="222"/>
      <point x="634" y="238" type="curve" smooth="yes"/>
      <point x="637" y="253"/>
      <point x="627" y="266"/>
      <point x="612" y="266" type="curve" smooth="yes"/>
      <point x="492" y="266" type="line"/>
      <point x="575" y="429" type="line"/>
      <point x="692" y="429" type="line" smooth="yes"/>
      <point x="707" y="429"/>
      <point x="722" y="441"/>
      <point x="726" y="457" type="curve"/>
      <point x="729" y="472"/>
      <point x="719" y="485"/>
      <point x="704" y="485" type="curve" smooth="yes"/>
    </contour>
    <contour>
      <point x="434" y="266" type="line"/>
      <point x="281" y="266" type="line"/>
      <point x="364" y="429" type="line"/>
      <point x="516" y="429" type="line"/>
    </contour>
  </outline>
</glyph>
<glyph name="quotesingle" format="1">
  <advance width="194"/>
  <unicode hex="0027"/>
  <outline>
    <contour>
      <point x="163" y="500"/>
      <point x="178" y="512"/>
      <point x="182" y="528" type="curve"/>
      <point x="210" y="662" type="line" smooth="yes"/>
      <point x="213" y="677"/>
      <point x="203" y="690"/>
      <point x="188" y="690" type="curve" smooth="yes"/>
      <point x="172" y="690"/>
      <point x="157" y="677"/>
      <point x="154" y="662" type="curve" smooth="yes"/>
      <point x="126" y="528" type="line"/>
      <point x="122" y="512"/>
      <point x="132" y="500"/>
      <point x="148" y="500" type="curve" smooth="yes"/>
    </contour>
  </outline>
</glyph>
<glyph name="parenleft" format="1">
  <advance width="369"/>
  <unicode hex="0028"/>
  <outline>
    <contour>
      <point x="404" y="752"/>
      <point x="410" y="759"/>
      <point x="412" y="767" type="curve"/>
      <point x="415" y="782"/>
      <point x="404" y="795"/>
      <point x="389" y="795" type="curve" smooth="yes"/>
      <point x="383" y="795"/>
      <point x="376" y="792"/>
      <point x="364" y="783" type="curve" smooth="yes"/>
      <point x="230" y="678"/>
      <point x="120" y="522"/>
      <point x="84" y="351" type="curve" smooth="yes"/>
      <point x="29" y="91"/>
      <point x="150" y="-74"/>
      <point x="162" y="-96" type="curve"/>
      <point x="166" y="-102"/>
      <point x="173" y="-108"/>
      <point x="185" y="-108" type="curve" smooth="yes"/>
      <point x="198" y="-108"/>
      <point x="214" y="-96"/>
      <point x="217" y="-81" type="curve"/>
      <point x="219" y="-73"/>
      <point x="217" y="-66"/>
      <point x="213" y="-60" type="curve"/>
      <point x="210" y="-57"/>
      <point x="88" y="107"/>
      <point x="140" y="351" type="curve" smooth="yes"/>
      <point x="191" y="592"/>
      <point x="392" y="743"/>
      <point x="397" y="746" type="curve"/>
    </contour>
  </outline>
</glyph>
<glyph name="parenright" format="1">
  <advance width="369"/>
  <unicode hex="0029"/>
  <outline>
    <contour>
      <point x="180" y="743"/>
      <point x="317" y="592"/>
      <point x="266" y="351" type="curve" smooth="yes"/>
      <point x="214" y="107"/>
      <point x="22" y="-57"/>
      <point x="19" y="-60" type="curve"/>
      <point x="11" y="-66"/>
      <point x="7" y="-73"/>
      <point x="5" y="-81" type="curve"/>
      <point x="2" y="-96"/>
      <point x="14" y="-108"/>
      <point x="27" y="-108" type="curve" smooth="yes"/>
      <point x="39" y="-108"/>
      <point x="48" y="-102"/>
      <point x="54" y="-96" type="curve" smooth="yes"/>
      <point x="76" y="-74"/>
      <point x="267" y="91"/>
      <point x="322" y="351" type="curve" smooth="yes"/>
      <point x="358" y="522"/>
      <point x="316" y="678"/>
      <point x="226" y="783" type="curve" smooth="yes"/>
      <point x="218" y="792"/>
      <point x="211" y="795"/>
      <point x="205" y="795" type="curve" smooth="yes"/>
      <point x="190" y="795"/>
      <point x="175" y="782"/>
      <point x="172" y="767" type="curve"/>
      <point x="170" y="759"/>
      <point x="172" y="752"/>
      <point x="177" y="746" type="curve"/>
    </contour>
  </outline>
</glyph>
<glyph name="asterisk" format="1">
  <advance width="397"/>
  <unicode hex="002A"/>
  <outline>
    <contour>
      <point x="254" y="527"/>
      <point x="264" y="498"/>
      <point x="273" y="486" type="curve" smooth="yes"/>
      <point x="300" y="448" type="line"/>
      <point x="303" y="442"/>
      <point x="310" y="439"/>
      <point x="317" y="439" type="curve" smooth="yes"/>
      <point x="330" y="439"/>
      <point x="345" y="450"/>
      <point x="349" y="466" type="curve"/>
      <point x="350" y="473"/>
      <point x="350" y="480"/>
      <point x="346" y="486" type="curve" smooth="yes"/>
      <point x="321" y="521" type="line" smooth="yes"/>
      <point x="311" y="536"/>
      <point x="292" y="551"/>
      <point x="292" y="551" type="curve" smooth="yes"/>
      <point x="292" y="551"/>
      <point x="325" y="557"/>
      <point x="342" y="565" type="curve" smooth="yes"/>
      <point x="378" y="582" type="line" smooth="yes"/>
      <point x="388" y="587"/>
      <point x="395" y="596"/>
      <point x="397" y="606" type="curve"/>
      <point x="400" y="618"/>
      <point x="392" y="632"/>
      <point x="377" y="632" type="curve" smooth="yes"/>
      <point x="371" y="632"/>
      <point x="367" y="631"/>
      <point x="362" y="629" type="curve"/>
      <point x="331" y="615" type="line"/>
      <point x="315" y="607"/>
      <point x="289" y="589"/>
      <point x="289" y="589" type="curve" smooth="yes"/>
      <point x="289" y="589"/>
      <point x="300" y="618"/>
      <point x="304" y="636" type="curve"/>
      <point x="309" y="663" type="line"/>
      <point x="313" y="678"/>
      <point x="303" y="690"/>
      <point x="288" y="690" type="curve" smooth="yes"/>
      <point x="273" y="690"/>
      <point x="259" y="678"/>
      <point x="255" y="663" type="curve"/>
      <point x="250" y="636" type="line"/>
      <point x="246" y="618"/>
      <point x="245" y="589"/>
      <point x="245" y="589" type="curve" smooth="yes"/>
      <point x="245" y="589"/>
      <point x="227" y="607"/>
      <point x="213" y="615" type="curve" smooth="yes"/>
      <point x="188" y="629" type="line"/>
      <point x="185" y="631"/>
      <point x="181" y="632"/>
      <point x="175" y="632" type="curve" smooth="yes"/>
      <point x="160" y="632"/>
      <point x="146" y="618"/>
      <point x="143" y="606" type="curve"/>
      <point x="141" y="596"/>
      <point x="144" y="587"/>
      <point x="152" y="582" type="curve"/>
      <point x="182" y="565" type="line"/>
      <point x="195" y="557"/>
      <point x="226" y="551"/>
      <point x="226" y="551" type="curve" smooth="yes"/>
      <point x="226" y="551"/>
      <point x="199" y="536"/>
      <point x="183" y="521" type="curve" smooth="yes"/>
      <point x="144" y="486" type="line"/>
      <point x="138" y="480"/>
      <point x="134" y="473"/>
      <point x="133" y="466" type="curve"/>
      <point x="129" y="450"/>
      <point x="140" y="439"/>
      <point x="153" y="439" type="curve" smooth="yes"/>
      <point x="160" y="439"/>
      <point x="167" y="442"/>
      <point x="174" y="448" type="curve" smooth="yes"/>
      <point x="217" y="486" type="line" smooth="yes"/>
      <point x="230" y="498"/>
      <point x="254" y="527"/>
      <point x="254" y="527" type="curve" smooth="yes"/>
    </contour>
  </outline>
</glyph>
<glyph name="comma" format="1">
  <advance width="261"/>
  <unicode hex="002C"/>
  <outline>
    <contour>
      <point x="84" y="77"/>
      <point x="60" y="56"/>
      <point x="55" y="32" type="curve"/>
      <point x="53" y="20"/>
      <point x="55" y="9"/>
      <point x="61" y="2" type="curve"/>
      <point x="23" y="-62" type="line"/>
      <point x="22" y="-65"/>
      <point x="20" y="-68"/>
      <point x="19" y="-71" type="curve"/>
      <point x="17" y="-83"/>
      <point x="25" y="-93"/>
      <point x="38" y="-93" type="curve" smooth="yes"/>
      <point x="57" y="-93"/>
      <point x="61" y="-77"/>
      <point x="97" y="-19" type="curve" smooth="yes"/>
      <point x="120" y="17"/>
      <point x="126" y="26"/>
      <point x="130" y="45" type="curve" smooth="yes"/>
      <point x="133" y="60"/>
      <point x="123" y="77"/>
      <point x="105" y="77" type="curve" smooth="yes"/>
    </contour>
  </outline>
</glyph>
<glyph name="period" format="1">
  <advance width="214"/>
  <unicode hex="002E"/>
  <outline>
    <contour>
      <point x="68" y="0"/>
      <point x="91" y="21"/>
      <point x="96" y="47" type="curve"/>
      <point x="101" y="67"/>
      <point x="90" y="83"/>
      <point x="72" y="83" type="curve" smooth="yes"/>
      <point x="51" y="83"/>
      <point x="27" y="61"/>
      <point x="23" y="38" type="curve"/>
      <point x="18" y="17"/>
      <point x="28" y="0"/>
      <point x="47" y="0" type="curve" smooth="yes"/>
    </contour>
  </outline>
</glyph>
<glyph name="slash" format="1">
  <advance width="545"/>
  <unicode hex="002F"/>
  <outline>
    <contour>
      <point x="51" y="-1"/>
      <point x="61" y="4"/>
      <point x="68" y="13" type="curve" smooth="yes"/>
      <point x="550" y="641" type="line" smooth="yes"/>
      <point x="555" y="648"/>
      <point x="562" y="657"/>
      <point x="564" y="666" type="curve" smooth="yes"/>
      <point x="567" y="679"/>
      <point x="558" y="692"/>
      <point x="542" y="692" type="curve" smooth="yes"/>
      <point x="532" y="692"/>
      <point x="521" y="688"/>
      <point x="514" y="678" type="curve"/>
      <point x="25" y="41" type="line" smooth="yes"/>
      <point x="22" y="37"/>
      <point x="20" y="32"/>
      <point x="19" y="27" type="curve" smooth="yes"/>
      <point x="16" y="12"/>
      <point x="24" y="-1"/>
      <point x="41" y="-1" type="curve" smooth="yes"/>
    </contour>
  </outline>
</glyph>
<glyph name="zero" format="1">
  <advance width="614"/>
  <unicode hex="0030"/>
  <outline>
    <contour>
      <point x="377" y="-3"/>
      <point x="524" y="164"/>
      <point x="566" y="358" type="curve" smooth="yes"/>
      <point x="603" y="534"/>
      <point x="541" y="686"/>
      <point x="409" y="686" type="curve" smooth="yes"/>
      <point x="269" y="686"/>
      <point x="123" y="515"/>
      <point x="82" y="324" type="curve" smooth="yes"/>
      <point x="45" y="150"/>
      <point x="108" y="-3"/>
      <point x="240" y="-3" type="curve" smooth="yes"/>
    </contour>
    <contour>
      <point x="497" y="631"/>
      <point x="543" y="501"/>
      <point x="512" y="356" type="curve" smooth="yes"/>
      <point x="477" y="190"/>
      <point x="356" y="52"/>
      <point x="252" y="52" type="curve" smooth="yes"/>
      <point x="150" y="52"/>
      <point x="106" y="183"/>
      <point x="137" y="326" type="curve" smooth="yes"/>
      <point x="172" y="493"/>
      <point x="293" y="631"/>
      <point x="398" y="631" type="curve" smooth="yes"/>
    </contour>
  </outline>
</glyph>
<glyph name="seven" format="1">
  <advance width="501"/>
  <unicode hex="0037"/>
  <outline>
    <contour>
      <point x="98" y="1"/>
      <point x="109" y="6"/>
      <point x="116" y="16" type="curve" smooth="yes"/>
      <point x="555" y="629" type="line" smooth="yes"/>
      <point x="558" y="633"/>
      <point x="560" y="637"/>
      <point x="561" y="641" type="curve"/>
      <point x="564" y="657"/>
      <point x="555" y="670"/>
      <point x="539" y="670" type="curve" smooth="yes"/>
      <point x="179" y="670" type="line" smooth="yes"/>
      <point x="163" y="670"/>
      <point x="148" y="657"/>
      <point x="145" y="642" type="curve" smooth="yes"/>
      <point x="142" y="626"/>
      <point x="151" y="614"/>
      <point x="167" y="614" type="curve" smooth="yes"/>
      <point x="482" y="614" type="line"/>
      <point x="71" y="41" type="line" smooth="yes"/>
      <point x="68" y="37"/>
      <point x="67" y="33"/>
      <point x="66" y="29" type="curve" smooth="yes"/>
      <point x="62" y="14"/>
      <point x="72" y="1"/>
      <point x="88" y="1" type="curve" smooth="yes"/>
    </contour>
  </outline>
</glyph>
<glyph name="eight" format="1">
  <advance width="547"/>
  <unicode hex="0038"/>
  <outline>
    <contour>
      <point x="335" y="-3"/>
      <point x="439" y="79"/>
      <point x="463" y="189" type="curve" smooth="yes"/>
      <point x="479" y="268"/>
      <point x="447" y="335"/>
      <point x="376" y="375" type="curve"/>
      <point x="437" y="403"/>
      <point x="500" y="446"/>
      <point x="517" y="526" type="curve" smooth="yes"/>
      <point x="537" y="620"/>
      <point x="477" y="686"/>
      <point x="373" y="686" type="curve" smooth="yes"/>
      <point x="274" y="686"/>
      <point x="175" y="620"/>
      <point x="152" y="510" type="curve" smooth="yes"/>
      <point x="136" y="434"/>
      <point x="177" y="393"/>
      <point x="228" y="368" type="curve"/>
      <point x="156" y="336"/>
      <point x="74" y="284"/>
      <point x="49" y="179" type="curve" smooth="yes"/>
      <point x="26" y="74"/>
      <point x="96" y="-3"/>
      <point x="216" y="-3" type="curve" smooth="yes"/>
    </contour>
    <contour>
      <point x="366" y="321"/>
      <point x="426" y="270"/>
      <point x="408" y="186" type="curve" smooth="yes"/>
      <point x="388" y="94"/>
      <point x="299" y="52"/>
      <point x="228" y="52" type="curve" smooth="yes"/>
      <point x="144" y="52"/>
      <point x="87" y="102"/>
      <point x="102" y="173" type="curve" smooth="yes"/>
      <point x="124" y="277"/>
      <point x="221" y="311"/>
      <point x="299" y="343" type="curve"/>
    </contour>
    <contour>
      <point x="429" y="630"/>
      <point x="477" y="593"/>
      <point x="464" y="532" type="curve" smooth="yes"/>
      <point x="454" y="485"/>
      <point x="422" y="442"/>
      <point x="308" y="401" type="curve"/>
      <point x="224" y="426"/>
      <point x="195" y="459"/>
      <point x="207" y="514" type="curve" smooth="yes"/>
      <point x="231" y="629"/>
      <point x="358" y="630"/>
      <point x="361" y="630" type="curve" smooth="yes"/>
    </contour>
  </outline>
</glyph>
<glyph name="nine" format="1">
  <advance width="546"/>
  <unicode hex="0039"/>
  <outline>
    <contour>
      <point x="421" y="342"/>
      <point x="351" y="290"/>
      <point x="258" y="290" type="curve" smooth="yes"/>
      <point x="225" y="290"/>
      <point x="121" y="301"/>
      <point x="151" y="439" type="curve" smooth="yes"/>
      <point x="184" y="597"/>
      <point x="299" y="631"/>
      <point x="341" y="631" type="curve" smooth="yes"/>
      <point x="417" y="631"/>
      <point x="499" y="597"/>
      <point x="465" y="434" type="curve" smooth="yes"/>
      <point x="459" y="409"/>
      <point x="453" y="385"/>
      <point x="444" y="361" type="curve"/>
    </contour>
    <contour>
      <point x="209" y="28"/>
      <point x="455" y="142"/>
      <point x="517" y="434" type="curve" smooth="yes"/>
      <point x="557" y="624"/>
      <point x="458" y="684"/>
      <point x="352" y="684" type="curve" smooth="yes"/>
      <point x="298" y="684"/>
      <point x="142" y="641"/>
      <point x="99" y="439" type="curve" smooth="yes"/>
      <point x="71" y="306"/>
      <point x="142" y="237"/>
      <point x="247" y="237" type="curve" smooth="yes"/>
      <point x="310" y="237"/>
      <point x="364" y="257"/>
      <point x="406" y="279" type="curve"/>
      <point x="350" y="180"/>
      <point x="248" y="98"/>
      <point x="139" y="50" type="curve" smooth="yes"/>
      <point x="129" y="46"/>
      <point x="121" y="37"/>
      <point x="119" y="26" type="curve" smooth="yes"/>
      <point x="116" y="11"/>
      <point x="125" y="0"/>
      <point x="140" y="0" type="curve" smooth="yes"/>
      <point x="147" y="0"/>
      <point x="152" y="2"/>
      <point x="159" y="5" type="curve" smooth="yes"/>
    </contour>
  </outline>
</glyph>
<glyph name="colon" format="1">
  <advance width="235"/>
  <unicode hex="003A"/>
  <outline>
    <contour>
      <point x="65" y="0"/>
      <point x="88" y="21"/>
      <point x="93" y="47" type="curve"/>
      <point x="98" y="67"/>
      <point x="87" y="83"/>
      <point x="69" y="83" type="curve" smooth="yes"/>
      <point x="48" y="83"/>
      <point x="24" y="61"/>
      <point x="20" y="38" type="curve"/>
      <point x="15" y="17"/>
      <point x="25" y="0"/>
      <point x="44" y="0" type="curve" smooth="yes"/>
    </contour>
    <contour>
      <point x="170" y="358"/>
      <point x="193" y="379"/>
      <point x="199" y="405" type="curve" smooth="yes"/>
      <point x="203" y="425"/>
      <point x="192" y="441"/>
      <point x="174" y="441" type="curve" smooth="yes"/>
      <point x="153" y="441"/>
      <point x="130" y="419"/>
      <point x="125" y="396" type="curve" smooth="yes"/>
      <point x="120" y="375"/>
      <point x="130" y="358"/>
      <point x="149" y="358" type="curve" smooth="yes"/>
    </contour>
  </outline>
</glyph>
<glyph name="semicolon" format="1">
  <advance width="271"/>
  <unicode hex="003B"/>
  <outline>
    <contour>
      <point x="210" y="358"/>
      <point x="233" y="379"/>
      <point x="239" y="405" type="curve" smooth="yes"/>
      <point x="243" y="425"/>
      <point x="232" y="441"/>
      <point x="214" y="441" type="curve" smooth="yes"/>
      <point x="193" y="441"/>
      <point x="170" y="419"/>
      <point x="165" y="396" type="curve" smooth="yes"/>
      <point x="160" y="375"/>
      <point x="170" y="358"/>
      <point x="189" y="358" type="curve" smooth="yes"/>
    </contour>
    <contour>
      <point x="80" y="77"/>
      <point x="56" y="56"/>
      <point x="51" y="32" type="curve"/>
      <point x="49" y="20"/>
      <point x="51" y="9"/>
      <point x="57" y="2" type="curve"/>
      <point x="19" y="-62" type="line"/>
      <point x="18" y="-65"/>
      <point x="16" y="-68"/>
      <point x="15" y="-71" type="curve"/>
      <point x="13" y="-83"/>
      <point x="21" y="-93"/>
      <point x="34" y="-93" type="curve" smooth="yes"/>
      <point x="53" y="-93"/>
      <point x="57" y="-77"/>
      <point x="93" y="-19" type="curve" smooth="yes"/>
      <point x="116" y="17"/>
      <point x="122" y="26"/>
      <point x="126" y="45" type="curve" smooth="yes"/>
      <point x="129" y="60"/>
      <point x="119" y="77"/>
      <point x="101" y="77" type="curve" smooth="yes"/>
    </contour>
  </outline>
</glyph>
<glyph name="less" format="1">
  <advance width="540"/>
  <unicode hex="003C"/>
  <outline>
    <contour>
      <point x="380" y="8"/>
      <point x="396" y="21"/>
      <point x="399" y="36" type="curve" smooth="yes"/>
      <point x="401" y="45"/>
      <point x="398" y="54"/>
      <point x="391" y="60" type="curve"/>
      <point x="148" y="247" type="line"/>
      <point x="491" y="440" type="line" smooth="yes"/>
      <point x="500" y="445"/>
      <point x="507" y="454"/>
      <point x="509" y="463" type="curve" smooth="yes"/>
      <point x="512" y="479"/>
      <point x="502" y="492"/>
      <point x="487" y="492" type="curve" smooth="yes"/>
      <point x="482" y="492"/>
      <point x="477" y="490"/>
      <point x="471" y="487" type="curve"/>
      <point x="87" y="271" type="line" smooth="yes"/>
      <point x="78" y="266"/>
      <point x="71" y="257"/>
      <point x="69" y="248" type="curve" smooth="yes"/>
      <point x="67" y="238"/>
      <point x="69" y="229"/>
      <point x="76" y="224" type="curve"/>
      <point x="350" y="13" type="line"/>
      <point x="355" y="10"/>
      <point x="360" y="8"/>
      <point x="365" y="8" type="curve" smooth="yes"/>
    </contour>
  </outline>
</glyph>
<glyph name="question" format="1">
  <advance width="533"/>
  <unicode hex="003F"/>
  <outline>
    <contour>
      <point x="224" y="202"/>
      <point x="286" y="249"/>
      <point x="338" y="287" type="curve" smooth="yes"/>
      <point x="399" y="330"/>
      <point x="494" y="395"/>
      <point x="518" y="505" type="curve" smooth="yes"/>
      <point x="544" y="628"/>
      <point x="473" y="711"/>
      <point x="341" y="711" type="curve" smooth="yes"/>
      <point x="265" y="711"/>
      <point x="200" y="671"/>
      <point x="161" y="636" type="curve" smooth="yes"/>
      <point x="146" y="623"/>
      <point x="135" y="612"/>
      <point x="132" y="602" type="curve"/>
      <point x="129" y="586"/>
      <point x="140" y="575"/>
      <point x="155" y="575" type="curve" smooth="yes"/>
      <point x="161" y="575"/>
      <point x="168" y="578"/>
      <point x="173" y="582" type="curve"/>
      <point x="210" y="616"/>
      <point x="261" y="657"/>
      <point x="329" y="657" type="curve" smooth="yes"/>
      <point x="453" y="657"/>
      <point x="480" y="578"/>
      <point x="465" y="505" type="curve" smooth="yes"/>
      <point x="447" y="422"/>
      <point x="370" y="373"/>
      <point x="314" y="330" type="curve" smooth="yes"/>
      <point x="259" y="287"/>
      <point x="194" y="239"/>
      <point x="171" y="222" type="curve" smooth="yes"/>
      <point x="164" y="217"/>
      <point x="158" y="210"/>
      <point x="156" y="202" type="curve"/>
      <point x="153" y="187"/>
      <point x="163" y="175"/>
      <point x="178" y="175" type="curve" smooth="yes"/>
      <point x="185" y="175"/>
      <point x="192" y="178"/>
      <point x="198" y="183" type="curve"/>
    </contour>
    <contour>
      <point x="128" y="0"/>
      <point x="151" y="21"/>
      <point x="156" y="47" type="curve"/>
      <point x="161" y="67"/>
      <point x="150" y="83"/>
      <point x="132" y="83" type="curve" smooth="yes"/>
      <point x="111" y="83"/>
      <point x="87" y="61"/>
      <point x="83" y="38" type="curve"/>
      <point x="78" y="17"/>
      <point x="88" y="0"/>
      <point x="107" y="0" type="curve" smooth="yes"/>
    </contour>
  </outline>
</glyph>
<glyph name="at" format="1">
  <advance width="828"/>
  <unicode hex="0040"/>
  <outline>
    <contour>
      <point x="513" y="-8"/>
      <point x="442" y="-41"/>
      <point x="358" y="-41" type="curve" smooth="yes"/>
      <point x="232" y="-41"/>
      <point x="79" y="61"/>
      <point x="120" y="253" type="curve" smooth="yes"/>
      <point x="164" y="457"/>
      <point x="341" y="564"/>
      <point x="495" y="564" type="curve" smooth="yes"/>
      <point x="679" y="564"/>
      <point x="746" y="424"/>
      <point x="716" y="286" type="curve" smooth="yes"/>
      <point x="690" y="161"/>
      <point x="611" y="149"/>
      <point x="583" y="149" type="curve" smooth="yes"/>
      <point x="583" y="149"/>
      <point x="487" y="150"/>
      <point x="504" y="228" type="curve" smooth="yes"/>
      <point x="510" y="258"/>
      <point x="519" y="263"/>
      <point x="523" y="279" type="curve"/>
      <point x="526" y="294"/>
      <point x="517" y="306"/>
      <point x="503" y="306" type="curve" smooth="yes"/>
      <point x="491" y="306"/>
      <point x="481" y="302"/>
      <point x="473" y="289" type="curve" smooth="yes"/>
      <point x="453" y="256"/>
      <point x="383" y="162"/>
      <point x="328" y="162" type="curve" smooth="yes"/>
      <point x="271" y="162"/>
      <point x="278" y="220"/>
      <point x="282" y="238" type="curve" smooth="yes"/>
      <point x="297" y="309"/>
      <point x="361" y="376"/>
      <point x="428" y="376" type="curve" smooth="yes"/>
      <point x="449" y="376"/>
      <point x="470" y="368"/>
      <point x="489" y="354" type="curve"/>
      <point x="497" y="347"/>
      <point x="502" y="346"/>
      <point x="507" y="346" type="curve" smooth="yes"/>
      <point x="522" y="346"/>
      <point x="538" y="358"/>
      <point x="541" y="373" type="curve" smooth="yes"/>
      <point x="543" y="382"/>
      <point x="539" y="390"/>
      <point x="525" y="401" type="curve" smooth="yes"/>
      <point x="499" y="420"/>
      <point x="470" y="429"/>
      <point x="439" y="429" type="curve" smooth="yes"/>
      <point x="343" y="429"/>
      <point x="249" y="337"/>
      <point x="228" y="238" type="curve" smooth="yes"/>
      <point x="224" y="217"/>
      <point x="207" y="109"/>
      <point x="317" y="109" type="curve" smooth="yes"/>
      <point x="366" y="109"/>
      <point x="413" y="143"/>
      <point x="449" y="180" type="curve"/>
      <point x="464" y="99"/>
      <point x="561" y="95"/>
      <point x="569" y="95" type="curve" smooth="yes"/>
      <point x="602" y="95"/>
      <point x="733" y="109"/>
      <point x="770" y="286" type="curve" smooth="yes"/>
      <point x="810" y="475"/>
      <point x="694" y="618"/>
      <point x="507" y="618" type="curve" smooth="yes"/>
      <point x="298" y="618"/>
      <point x="111" y="462"/>
      <point x="66" y="253" type="curve" smooth="yes"/>
      <point x="24" y="55"/>
      <point x="161" y="-94"/>
      <point x="347" y="-94" type="curve" smooth="yes"/>
      <point x="446" y="-94"/>
      <point x="528" y="-58"/>
      <point x="574" y="-29" type="curve" smooth="yes"/>
      <point x="589" y="-19"/>
      <point x="595" y="-12"/>
      <point x="597" y="-3" type="curve" smooth="yes"/>
      <point x="600" y="12"/>
      <point x="591" y="24"/>
      <point x="576" y="24" type="curve" smooth="yes"/>
      <point x="570" y="24"/>
      <point x="564" y="22"/>
      <point x="553" y="15" type="curve"/>
    </contour>
  </outline>
</glyph>
<glyph name="D" format="1">
  <advance width="620"/>
  <unicode hex="0044"/>
  <outline>
    <contour>
      <point x="343" y="-20"/>
      <point x="521" y="77"/>
      <point x="568" y="300" type="curve" smooth="yes"/>
      <point x="638" y="626"/>
      <point x="346" y="681"/>
      <point x="183" y="681" type="curve" smooth="yes"/>
      <point x="167" y="681"/>
      <point x="152" y="669"/>
      <point x="148" y="653" type="curve"/>
      <point x="15" y="25" type="line" smooth="yes"/>
      <point x="12" y="12"/>
      <point x="19" y="0"/>
      <point x="31" y="-3" type="curve" smooth="yes"/>
      <point x="38" y="-5"/>
      <point x="91" y="-20"/>
      <point x="150" y="-20" type="curve" smooth="yes"/>
    </contour>
    <contour>
      <point x="199" y="624" type="line"/>
      <point x="400" y="615"/>
      <point x="561" y="532"/>
      <point x="511" y="300" type="curve" smooth="yes"/>
      <point x="474" y="123"/>
      <point x="340" y="37"/>
      <point x="162" y="37" type="curve" smooth="yes"/>
      <point x="130" y="37"/>
      <point x="98" y="43"/>
      <point x="77" y="48" type="curve"/>
    </contour>
  </outline>
</glyph>
<glyph name="F" format="1">
  <advance width="545"/>
  <unicode hex="0046"/>
  <outline>
    <contour>
      <point x="130" y="323" type="line"/>
      <point x="441" y="323" type="line" smooth="yes"/>
      <point x="457" y="323"/>
      <point x="472" y="336"/>
      <point x="475" y="351" type="curve"/>
      <point x="479" y="367"/>
      <point x="469" y="380"/>
      <point x="453" y="380" type="curve" smooth="yes"/>
      <point x="142" y="380" type="line"/>
      <point x="194" y="624" type="line"/>
      <point x="594" y="624" type="line" smooth="yes"/>
      <point x="610" y="624"/>
      <point x="625" y="637"/>
      <point x="628" y="652" type="curve" smooth="yes"/>
      <point x="631" y="668"/>
      <point x="622" y="681"/>
      <point x="606" y="681" type="curve" smooth="yes"/>
      <point x="178" y="681" type="line" smooth="yes"/>
      <point x="162" y="681"/>
      <point x="146" y="668"/>
      <point x="143" y="652" type="curve" smooth="yes"/>
      <point x="10" y="28" type="line" smooth="yes"/>
      <point x="7" y="12"/>
      <point x="17" y="-1"/>
      <point x="33" y="-1" type="curve" smooth="yes"/>
      <point x="49" y="-1"/>
      <point x="64" y="12"/>
      <point x="67" y="28" type="curve" smooth="yes"/>
    </contour>
  </outline>
</glyph>
<glyph name="G" format="1">
  <advance width="751"/>
  <unicode hex="0047"/>
  <outline>
    <contour>
      <point x="668" y="282"/>
      <point x="632" y="296"/>
      <point x="569" y="296" type="curve" smooth="yes"/>
      <point x="495" y="296"/>
      <point x="431" y="278"/>
      <point x="427" y="277" type="curve"/>
      <point x="414" y="273"/>
      <point x="404" y="262"/>
      <point x="402" y="250" type="curve"/>
      <point x="398" y="232"/>
      <point x="409" y="221"/>
      <point x="423" y="221" type="curve" smooth="yes"/>
      <point x="440" y="221"/>
      <point x="478" y="239"/>
      <point x="558" y="239" type="curve" smooth="yes"/>
      <point x="568" y="239"/>
      <point x="577" y="239"/>
      <point x="586" y="238" type="curve"/>
      <point x="534" y="126"/>
      <point x="432" y="56"/>
      <point x="317" y="56" type="curve" smooth="yes"/>
      <point x="151" y="56"/>
      <point x="107" y="212"/>
      <point x="132" y="331" type="curve" smooth="yes"/>
      <point x="151" y="422"/>
      <point x="262" y="626"/>
      <point x="455" y="626" type="curve" smooth="yes"/>
      <point x="581" y="626"/>
      <point x="623" y="554"/>
      <point x="634" y="489" type="curve"/>
      <point x="637" y="476"/>
      <point x="647" y="470"/>
      <point x="658" y="470" type="curve" smooth="yes"/>
      <point x="674" y="470"/>
      <point x="688" y="480"/>
      <point x="691" y="495" type="curve" smooth="yes"/>
      <point x="699" y="536"/>
      <point x="656" y="683"/>
      <point x="467" y="683" type="curve" smooth="yes"/>
      <point x="272" y="683"/>
      <point x="110" y="498"/>
      <point x="75" y="331" type="curve" smooth="yes"/>
      <point x="39" y="162"/>
      <point x="119" y="-1"/>
      <point x="305" y="-1" type="curve" smooth="yes"/>
      <point x="460" y="-1"/>
      <point x="583" y="101"/>
      <point x="640" y="228" type="curve"/>
      <point x="645" y="226"/>
      <point x="651" y="224"/>
      <point x="654" y="224" type="curve" smooth="yes"/>
      <point x="668" y="224"/>
      <point x="684" y="235"/>
      <point x="688" y="252" type="curve" smooth="yes"/>
      <point x="691" y="264"/>
      <point x="687" y="275"/>
      <point x="676" y="279" type="curve" smooth="yes"/>
    </contour>
  </outline>
</glyph>
<glyph name="H" format="1">
  <advance width="685"/>
  <unicode hex="0048"/>
  <outline>
    <contour>
      <point x="665" y="681"/>
      <point x="650" y="669"/>
      <point x="646" y="653" type="curve"/>
      <point x="594" y="407" type="line"/>
      <point x="140" y="346" type="line"/>
      <point x="205" y="653" type="line"/>
      <point x="209" y="669"/>
      <point x="198" y="681"/>
      <point x="182" y="681" type="curve" smooth="yes"/>
      <point x="166" y="681"/>
      <point x="152" y="669"/>
      <point x="148" y="653" type="curve"/>
      <point x="15" y="28" type="line" smooth="yes"/>
      <point x="12" y="13"/>
      <point x="22" y="0"/>
      <point x="38" y="0" type="curve" smooth="yes"/>
      <point x="54" y="0"/>
      <point x="69" y="13"/>
      <point x="72" y="28" type="curve" smooth="yes"/>
      <point x="128" y="288" type="line"/>
      <point x="582" y="349" type="line"/>
      <point x="513" y="28" type="line" smooth="yes"/>
      <point x="510" y="13"/>
      <point x="521" y="0"/>
      <point x="537" y="0" type="curve" smooth="yes"/>
      <point x="552" y="0"/>
      <point x="567" y="13"/>
      <point x="570" y="28" type="curve" smooth="yes"/>
      <point x="703" y="653" type="line"/>
      <point x="707" y="669"/>
      <point x="696" y="681"/>
      <point x="681" y="681" type="curve" smooth="yes"/>
    </contour>
  </outline>
</glyph>
<glyph name="L" format="1">
  <advance width="477"/>
  <unicode hex="004C"/>
  <outline>
    <contour>
      <point x="390" y="24" type="line" smooth="yes"/>
      <point x="405" y="25"/>
      <point x="419" y="38"/>
      <point x="422" y="52" type="curve"/>
      <point x="425" y="70"/>
      <point x="415" y="81"/>
      <point x="398" y="80" type="curve" smooth="yes"/>
      <point x="78" y="58" type="line"/>
      <point x="204" y="653" type="line" smooth="yes"/>
      <point x="207" y="668"/>
      <point x="197" y="681"/>
      <point x="182" y="681" type="curve" smooth="yes"/>
      <point x="166" y="681"/>
      <point x="151" y="668"/>
      <point x="148" y="653" type="curve" smooth="yes"/>
      <point x="15" y="28" type="line" smooth="yes"/>
      <point x="12" y="13"/>
      <point x="23" y="-1"/>
      <point x="39" y="0" type="curve" smooth="yes"/>
    </contour>
  </outline>
</glyph>
<glyph name="N" format="1">
  <advance width="619"/>
  <unicode hex="004E"/>
  <outline>
    <contour>
      <point x="487" y="0"/>
      <point x="501" y="13"/>
      <point x="504" y="28" type="curve" smooth="yes"/>
      <point x="638" y="654" type="line" smooth="yes"/>
      <point x="641" y="669"/>
      <point x="630" y="682"/>
      <point x="615" y="682" type="curve" smooth="yes"/>
      <point x="599" y="682"/>
      <point x="585" y="669"/>
      <point x="582" y="654" type="curve" smooth="yes"/>
      <point x="467" y="117" type="line"/>
      <point x="204" y="669" type="line"/>
      <point x="199" y="677"/>
      <point x="191" y="681"/>
      <point x="182" y="681" type="curve" smooth="yes"/>
      <point x="166" y="681"/>
      <point x="152" y="667"/>
      <point x="149" y="653" type="curve" smooth="yes"/>
      <point x="15" y="28" type="line" smooth="yes"/>
      <point x="12" y="13"/>
      <point x="23" y="0"/>
      <point x="38" y="0" type="curve" smooth="yes"/>
      <point x="54" y="0"/>
      <point x="68" y="12"/>
      <point x="71" y="28" type="curve" smooth="yes"/>
      <point x="186" y="563" type="line"/>
      <point x="450" y="12" type="line"/>
      <point x="453" y="4"/>
      <point x="462" y="0"/>
      <point x="471" y="0" type="curve" smooth="yes"/>
    </contour>
  </outline>
</glyph>
<glyph name="O" format="1">
  <advance width="660"/>
  <unicode hex="004F"/>
  <outline>
    <contour>
      <point x="409" y="-2"/>
      <point x="580" y="167"/>
      <point x="623" y="367" type="curve" smooth="yes"/>
      <point x="659" y="539"/>
      <point x="584" y="682"/>
      <point x="440" y="682" type="curve" smooth="yes"/>
      <point x="284" y="682"/>
      <point x="114" y="513"/>
      <point x="71" y="313" type="curve" smooth="yes"/>
      <point x="35" y="143"/>
      <point x="108" y="-2"/>
      <point x="253" y="-2" type="curve" smooth="yes"/>
    </contour>
    <contour>
      <point x="541" y="630"/>
      <point x="597" y="498"/>
      <point x="569" y="363" type="curve" smooth="yes"/>
      <point x="533" y="193"/>
      <point x="387" y="50"/>
      <point x="264" y="50" type="curve" smooth="yes"/>
      <point x="150" y="50"/>
      <point x="93" y="169"/>
      <point x="124" y="313" type="curve" smooth="yes"/>
      <point x="161" y="489"/>
      <point x="299" y="630"/>
      <point x="422" y="630" type="curve" smooth="yes"/>
    </contour>
  </outline>
</glyph>
<glyph name="P" format="1">
  <advance width="547"/>
  <unicode hex="0050"/>
  <outline>
    <contour>
      <point x="54" y="0"/>
      <point x="68" y="12"/>
      <point x="71" y="28" type="curve" smooth="yes"/>
      <point x="116" y="239" type="line"/>
      <point x="256" y="239"/>
      <point x="523" y="291"/>
      <point x="563" y="477" type="curve" smooth="yes"/>
      <point x="591" y="608"/>
      <point x="485" y="682"/>
      <point x="233" y="682" type="curve" smooth="yes"/>
      <point x="156" y="682"/>
      <point x="152" y="671"/>
      <point x="146" y="641" type="curve" smooth="yes"/>
      <point x="15" y="28" type="line" smooth="yes"/>
      <point x="12" y="12"/>
      <point x="23" y="0"/>
      <point x="38" y="0" type="curve" smooth="yes"/>
    </contour>
    <contour>
      <point x="198" y="625" type="line"/>
      <point x="208" y="626"/>
      <point x="226" y="626"/>
      <point x="239" y="626" type="curve" smooth="yes"/>
      <point x="431" y="626"/>
      <point x="527" y="573"/>
      <point x="507" y="477" type="curve" smooth="yes"/>
      <point x="474" y="322"/>
      <point x="214" y="295"/>
      <point x="128" y="295" type="curve"/>
    </contour>
  </outline>
</glyph>
<glyph name="T" format="1">
  <advance width="522"/>
  <unicode hex="0054"/>
  <outline>
    <contour>
      <point x="127" y="681" type="line" smooth="yes"/>
      <point x="112" y="681"/>
      <point x="97" y="669"/>
      <point x="93" y="653" type="curve"/>
      <point x="90" y="638"/>
      <point x="100" y="625"/>
      <point x="115" y="625" type="curve" smooth="yes"/>
      <point x="303" y="625" type="line"/>
      <point x="176" y="28" type="line" smooth="yes"/>
      <point x="173" y="13"/>
      <point x="184" y="0"/>
      <point x="199" y="0" type="curve" smooth="yes"/>
      <point x="215" y="0"/>
      <point x="229" y="13"/>
      <point x="232" y="28" type="curve" smooth="yes"/>
      <point x="359" y="625" type="line"/>
      <point x="561" y="625" type="line" smooth="yes"/>
      <point x="577" y="625"/>
      <point x="592" y="638"/>
      <point x="595" y="653" type="curve"/>
      <point x="599" y="669"/>
      <point x="589" y="681"/>
      <point x="573" y="681" type="curve" smooth="yes"/>
    </contour>
  </outline>
</glyph>
<glyph name="Z" format="1">
  <advance width="639"/>
  <unicode hex="005A"/>
  <outline>
    <contour>
      <point x="83" y="60" type="line"/>
      <point x="659" y="626" type="line"/>
      <point x="664" y="632"/>
      <point x="669" y="639"/>
      <point x="671" y="648" type="curve" smooth="yes"/>
      <point x="675" y="666"/>
      <point x="663" y="680"/>
      <point x="645" y="680" type="curve" smooth="yes"/>
      <point x="183" y="680" type="line" smooth="yes"/>
      <point x="167" y="680"/>
      <point x="151" y="666"/>
      <point x="148" y="650" type="curve"/>
      <point x="144" y="633"/>
      <point x="154" y="619"/>
      <point x="170" y="619" type="curve" smooth="yes"/>
      <point x="587" y="619" type="line"/>
      <point x="12" y="55" type="line"/>
      <point x="6" y="48"/>
      <point x="1" y="40"/>
      <point x="-1" y="30" type="curve" smooth="yes"/>
      <point x="-4" y="12"/>
      <point x="9" y="0"/>
      <point x="26" y="0" type="curve" smooth="yes"/>
      <point x="488" y="0" type="line" smooth="yes"/>
      <point x="504" y="0"/>
      <point x="519" y="14"/>
      <point x="523" y="30" type="curve"/>
      <point x="526" y="47"/>
      <point x="516" y="60"/>
      <point x="500" y="60" type="curve" smooth="yes"/>
    </contour>
  </outline>
</glyph>
<glyph name="underscore" format="1">
  <advance width="490"/>
  <unicode hex="005F"/>
  <outline>
    <contour>
      <point x="438" y="-56"/>
      <point x="453" y="-44"/>
      <point x="457" y="-28" type="curve"/>
      <point x="460" y="-13"/>
      <point x="450" y="0"/>
      <point x="435" y="0" type="curve" smooth="yes"/>
      <point x="-55" y="0" type="line" smooth="yes"/>
      <point x="-71" y="0"/>
      <point x="-85" y="-13"/>
      <point x="-88" y="-28" type="curve"/>
      <point x="-92" y="-44"/>
      <point x="-82" y="-56"/>
      <point x="-66" y="-56" type="curve" smooth="yes"/>
      <point x="423" y="-56" type="line" smooth="yes"/>
    </contour>
  </outline>
</glyph>
<glyph name="c" format="1">
  <advance width="509"/>
  <unicode hex="0063"/>
  <outline>
    <contour>
      <point x="430" y="127"/>
      <point x="421" y="139"/>
      <point x="406" y="139" type="curve" smooth="yes"/>
      <point x="393" y="139"/>
      <point x="382" y="129"/>
      <point x="377" y="123" type="curve"/>
      <point x="339" y="84"/>
      <point x="290" y="52"/>
      <point x="218" y="52" type="curve" smooth="yes"/>
      <point x="174" y="52"/>
      <point x="67" y="90"/>
      <point x="94" y="218" type="curve" smooth="yes"/>
      <point x="100" y="245"/>
      <point x="112" y="278"/>
      <point x="135" y="316" type="curve" smooth="yes"/>
      <point x="170" y="373"/>
      <point x="247" y="448"/>
      <point x="314" y="448" type="curve" smooth="yes"/>
      <point x="366" y="448"/>
      <point x="390" y="426"/>
      <point x="410" y="393" type="curve"/>
      <point x="414" y="388"/>
      <point x="420" y="384"/>
      <point x="428" y="384" type="curve" smooth="yes"/>
      <point x="443" y="384"/>
      <point x="458" y="396"/>
      <point x="461" y="411" type="curve"/>
      <point x="462" y="418"/>
      <point x="461" y="426"/>
      <point x="458" y="430" type="curve"/>
      <point x="429" y="474"/>
      <point x="397" y="500"/>
      <point x="323" y="500" type="curve" smooth="yes"/>
      <point x="226" y="500"/>
      <point x="130" y="401"/>
      <point x="90" y="335" type="curve" smooth="yes"/>
      <point x="74" y="309"/>
      <point x="51" y="265"/>
      <point x="40" y="216" type="curve" smooth="yes"/>
      <point x="13" y="89"/>
      <point x="102" y="-6"/>
      <point x="222" y="0" type="curve" smooth="yes"/>
      <point x="296" y="3"/>
      <point x="372" y="43"/>
      <point x="415" y="93" type="curve"/>
      <point x="421" y="99"/>
      <point x="426" y="105"/>
      <point x="427" y="112" type="curve"/>
    </contour>
  </outline>
</glyph>
<glyph name="f" format="1">
  <advance width="371"/>
  <unicode hex="0066"/>
  <outline>
    <contour>
      <point x="95" y="501" type="line" smooth="yes"/>
      <point x="83" y="501"/>
      <point x="68" y="489"/>
      <point x="65" y="475" type="curve" smooth="yes"/>
      <point x="62" y="461"/>
      <point x="72" y="449"/>
      <point x="86" y="449" type="curve" smooth="yes"/>
      <point x="161" y="449" type="line"/>
      <point x="71" y="26" type="line" smooth="yes"/>
      <point x="68" y="12"/>
      <point x="79" y="0"/>
      <point x="94" y="0" type="curve" smooth="yes"/>
      <point x="109" y="0"/>
      <point x="124" y="12"/>
      <point x="127" y="26" type="curve" smooth="yes"/>
      <point x="217" y="449" type="line"/>
      <point x="355" y="449" type="line" smooth="yes"/>
      <point x="369" y="449"/>
      <point x="382" y="461"/>
      <point x="385" y="475" type="curve" smooth="yes"/>
      <point x="388" y="489"/>
      <point x="377" y="500"/>
      <point x="366" y="500" type="curve" smooth="yes"/>
      <point x="228" y="501" type="line"/>
      <point x="254" y="622"/>
      <point x="294" y="638"/>
      <point x="414" y="638" type="curve" smooth="yes"/>
      <point x="431" y="638"/>
      <point x="444" y="651"/>
      <point x="447" y="665" type="curve" smooth="yes"/>
      <point x="451" y="686"/>
      <point x="435" y="691"/>
      <point x="413" y="691" type="curve" smooth="yes"/>
      <point x="272" y="691"/>
      <point x="202" y="644"/>
      <point x="172" y="501" type="curve"/>
    </contour>
  </outline>
</glyph>
<glyph name="h" format="1">
  <advance width="503"/>
  <unicode hex="0068"/>
  <outline>
    <contour>
      <point x="410" y="57"/>
      <point x="418" y="96"/>
      <point x="432" y="162" type="curve" smooth="yes"/>
      <point x="480" y="388"/>
      <point x="471" y="502"/>
      <point x="372" y="502" type="curve" smooth="yes"/>
      <point x="289" y="502"/>
      <point x="190" y="416"/>
      <point x="137" y="336" type="curve"/>
      <point x="206" y="661" type="line" smooth="yes"/>
      <point x="209" y="676"/>
      <point x="201" y="690"/>
      <point x="184" y="690" type="curve" smooth="yes"/>
      <point x="168" y="690"/>
      <point x="153" y="676"/>
      <point x="150" y="661" type="curve" smooth="yes"/>
      <point x="15" y="27" type="line" smooth="yes"/>
      <point x="12" y="12"/>
      <point x="22" y="-1"/>
      <point x="37" y="-1" type="curve" smooth="yes"/>
      <point x="52" y="-1"/>
      <point x="68" y="10"/>
      <point x="72" y="29" type="curve" smooth="yes"/>
      <point x="107" y="193" type="line" smooth="yes"/>
      <point x="114" y="227"/>
      <point x="123" y="257"/>
      <point x="140" y="282" type="curve" smooth="yes"/>
      <point x="164" y="316"/>
      <point x="271" y="447"/>
      <point x="356" y="447" type="curve" smooth="yes"/>
      <point x="392" y="447"/>
      <point x="431" y="415"/>
      <point x="375" y="154" type="curve" smooth="yes"/>
      <point x="362" y="94"/>
      <point x="349" y="42"/>
      <point x="346" y="27" type="curve" smooth="yes"/>
      <point x="343" y="12"/>
      <point x="355" y="0"/>
      <point x="368" y="0" type="curve" smooth="yes"/>
      <point x="383" y="0"/>
      <point x="396" y="12"/>
      <point x="400" y="27" type="curve"/>
    </contour>
  </outline>
</glyph>
<glyph name="i" format="1">
  <advance width="194"/>
  <unicode hex="0069"/>
  <outline>
    <contour>
      <point x="176" y="483"/>
      <point x="166" y="496"/>
      <point x="150" y="496" type="curve" smooth="yes"/>
      <point x="134" y="496"/>
      <point x="118" y="483"/>
      <point x="115" y="467" type="curve"/>
      <point x="115" y="467"/>
      <point x="16" y="29"/>
      <point x="16" y="29" type="curve"/>
      <point x="12" y="13"/>
      <point x="23" y="0"/>
      <point x="39" y="0" type="curve" smooth="yes"/>
      <point x="55" y="0"/>
      <point x="70" y="13"/>
      <point x="74" y="29" type="curve"/>
      <point x="74" y="29"/>
      <point x="173" y="467"/>
      <point x="173" y="467" type="curve"/>
    </contour>
    <contour>
      <point x="184" y="585"/>
      <point x="198" y="596"/>
      <point x="203" y="612" type="curve"/>
      <point x="212" y="653" type="line" smooth="yes"/>
      <point x="215" y="667"/>
      <point x="206" y="681"/>
      <point x="191" y="681" type="curve" smooth="yes"/>
      <point x="176" y="681"/>
      <point x="161" y="669"/>
      <point x="158" y="654" type="curve"/>
      <point x="148" y="613" type="line"/>
      <point x="145" y="598"/>
      <point x="154" y="585"/>
      <point x="169" y="585" type="curve" smooth="yes"/>
    </contour>
  </outline>
</glyph>
<glyph name="k" format="1">
  <advance width="494"/>
  <unicode hex="006B"/>
  <outline>
    <contour>
      <point x="316" y="336"/>
      <point x="414" y="418"/>
      <point x="469" y="475" type="curve" smooth="yes"/>
      <point x="473" y="479"/>
      <point x="478" y="485"/>
      <point x="479" y="491" type="curve" smooth="yes"/>
      <point x="482" y="506"/>
      <point x="473" y="518"/>
      <point x="458" y="518" type="curve" smooth="yes"/>
      <point x="448" y="518"/>
      <point x="439" y="513"/>
      <point x="432" y="506" type="curve" smooth="yes"/>
      <point x="334" y="405"/>
      <point x="185" y="291"/>
      <point x="120" y="254" type="curve"/>
      <point x="206" y="661" type="line" smooth="yes"/>
      <point x="209" y="676"/>
      <point x="201" y="690"/>
      <point x="184" y="690" type="curve" smooth="yes"/>
      <point x="169" y="690"/>
      <point x="154" y="678"/>
      <point x="150" y="663" type="curve"/>
      <point x="17" y="28" type="line" smooth="yes"/>
      <point x="14" y="13"/>
      <point x="25" y="0"/>
      <point x="40" y="0" type="curve" smooth="yes"/>
      <point x="56" y="0"/>
      <point x="70" y="13"/>
      <point x="73" y="28" type="curve" smooth="yes"/>
      <point x="110" y="202" type="line"/>
      <point x="135" y="215"/>
      <point x="172" y="236"/>
      <point x="216" y="266" type="curve"/>
      <point x="240" y="227"/>
      <point x="317" y="95"/>
      <point x="360" y="13" type="curve"/>
      <point x="364" y="7"/>
      <point x="371" y="3"/>
      <point x="380" y="3" type="curve" smooth="yes"/>
      <point x="397" y="3"/>
      <point x="411" y="17"/>
      <point x="415" y="33" type="curve"/>
      <point x="416" y="40"/>
      <point x="413" y="46"/>
      <point x="410" y="50" type="curve"/>
      <point x="367" y="126"/>
      <point x="268" y="291"/>
      <point x="265" y="298" type="curve"/>
    </contour>
  </outline>
</glyph>
<glyph name="p" format="1">
  <advance width="520"/>
  <unicode hex="0070"/>
  <outline>
    <contour>
      <point x="271" y="500"/>
      <point x="206" y="469"/>
      <point x="157" y="431" type="curve"/>
      <point x="166" y="471" type="line"/>
      <point x="169" y="487"/>
      <point x="160" y="500"/>
      <point x="144" y="500" type="curve" smooth="yes"/>
      <point x="128" y="500"/>
      <point x="113" y="487"/>
      <point x="110" y="471" type="curve" smooth="yes"/>
      <point x="-26" y="-167" type="line" smooth="yes"/>
      <point x="-29" y="-182"/>
      <point x="-19" y="-195"/>
      <point x="-4" y="-195" type="curve" smooth="yes"/>
      <point x="11" y="-195"/>
      <point x="27" y="-182"/>
      <point x="30" y="-167" type="curve" smooth="yes"/>
      <point x="73" y="36" type="line"/>
      <point x="102" y="24"/>
      <point x="145" y="8"/>
      <point x="197" y="8" type="curve" smooth="yes"/>
      <point x="373" y="8"/>
      <point x="449" y="162"/>
      <point x="473" y="276" type="curve" smooth="yes"/>
      <point x="495" y="381"/>
      <point x="470" y="495"/>
      <point x="360" y="500" type="curve"/>
    </contour>
    <contour>
      <point x="156" y="65"/>
      <point x="104" y="90"/>
      <point x="87" y="99" type="curve"/>
      <point x="143" y="363" type="line"/>
      <point x="165" y="388"/>
      <point x="236" y="451"/>
      <point x="341" y="451" type="curve" smooth="yes"/>
      <point x="435" y="451"/>
      <point x="436" y="338"/>
      <point x="423" y="276" type="curve" smooth="yes"/>
      <point x="398" y="156"/>
      <point x="337" y="65"/>
      <point x="215" y="65" type="curve" smooth="yes"/>
    </contour>
  </outline>
</glyph>
<glyph name="q" format="1">
  <advance width="514"/>
  <unicode hex="0071"/>
  <outline>
    <contour>
      <point x="283" y="-158" type="line" smooth="yes"/>
      <point x="279" y="-173"/>
      <point x="286" y="-189"/>
      <point x="301" y="-189" type="curve" smooth="yes"/>
      <point x="317" y="-189"/>
      <point x="331" y="-180"/>
      <point x="336" y="-160" type="curve" smooth="yes"/>
      <point x="498" y="491" type="line" smooth="yes"/>
      <point x="502" y="506"/>
      <point x="492" y="518"/>
      <point x="477" y="518" type="curve" smooth="yes"/>
      <point x="462" y="518"/>
      <point x="447" y="506"/>
      <point x="444" y="491" type="curve" smooth="yes"/>
      <point x="442" y="482" type="line"/>
      <point x="416" y="487"/>
      <point x="392" y="489"/>
      <point x="369" y="489" type="curve" smooth="yes"/>
      <point x="207" y="489"/>
      <point x="75" y="381"/>
      <point x="39" y="211" type="curve" smooth="yes"/>
      <point x="13" y="88"/>
      <point x="77" y="-6"/>
      <point x="203" y="-6" type="curve" smooth="yes"/>
      <point x="298" y="-6"/>
      <point x="337" y="61"/>
      <point x="337" y="61" type="curve"/>
    </contour>
    <contour>
      <point x="122" y="44"/>
      <point x="68" y="112"/>
      <point x="89" y="209" type="curve" smooth="yes"/>
      <point x="120" y="356"/>
      <point x="229" y="439"/>
      <point x="359" y="439" type="curve" smooth="yes"/>
      <point x="381" y="439"/>
      <point x="404" y="437"/>
      <point x="430" y="433" type="curve"/>
      <point x="364" y="164" type="line" smooth="yes"/>
      <point x="346" y="87"/>
      <point x="284" y="44"/>
      <point x="205" y="44" type="curve" smooth="yes"/>
    </contour>
  </outline>
</glyph>
<glyph name="t" format="1">
  <advance width="387"/>
  <unicode hex="0074"/>
  <outline>
    <contour>
      <point x="272" y="500" type="line"/>
      <point x="302" y="643" type="line" smooth="yes"/>
      <point x="305" y="658"/>
      <point x="297" y="672"/>
      <point x="280" y="672" type="curve" smooth="yes"/>
      <point x="264" y="672"/>
      <point x="249" y="658"/>
      <point x="246" y="643" type="curve" smooth="yes"/>
      <point x="216" y="500" type="line"/>
      <point x="101" y="500" type="line" smooth="yes"/>
      <point x="85" y="500"/>
      <point x="68" y="489"/>
      <point x="65" y="472" type="curve" smooth="yes"/>
      <point x="62" y="457"/>
      <point x="71" y="444"/>
      <point x="87" y="444" type="curve" smooth="yes"/>
      <point x="204" y="444" type="line"/>
      <point x="115" y="26" type="line" smooth="yes"/>
      <point x="112" y="11"/>
      <point x="122" y="-1"/>
      <point x="137" y="-1" type="curve" smooth="yes"/>
      <point x="152" y="-1"/>
      <point x="168" y="11"/>
      <point x="171" y="26" type="curve" smooth="yes"/>
      <point x="260" y="444" type="line"/>
      <point x="378" y="444" type="line" smooth="yes"/>
      <point x="394" y="444"/>
      <point x="409" y="457"/>
      <point x="412" y="472" type="curve" smooth="yes"/>
      <point x="415" y="488"/>
      <point x="406" y="500"/>
      <point x="390" y="500" type="curve" smooth="yes"/>
    </contour>
  </outline>
</glyph>
<glyph name="x" format="1">
  <advance width="510"/>
  <unicode hex="0078"/>
  <outline>
    <contour>
      <point x="537" y="456"/>
      <point x="542" y="463"/>
      <point x="543" y="470" type="curve"/>
      <point x="547" y="485"/>
      <point x="536" y="498"/>
      <point x="521" y="498" type="curve" smooth="yes"/>
      <point x="514" y="498"/>
      <point x="506" y="495"/>
      <point x="500" y="490" type="curve" smooth="yes"/>
      <point x="269" y="293" type="line"/>
      <point x="148" y="492" type="line"/>
      <point x="145" y="499"/>
      <point x="137" y="500"/>
      <point x="130" y="500" type="curve" smooth="yes"/>
      <point x="115" y="500"/>
      <point x="100" y="487"/>
      <point x="97" y="472" type="curve"/>
      <point x="95" y="465"/>
      <point x="97" y="458"/>
      <point x="101" y="452" type="curve" smooth="yes"/>
      <point x="222" y="258" type="line"/>
      <point x="-26" y="49" type="line" smooth="yes"/>
      <point x="-33" y="43"/>
      <point x="-37" y="36"/>
      <point x="-38" y="29" type="curve"/>
      <point x="-42" y="14"/>
      <point x="-32" y="1"/>
      <point x="-17" y="1" type="curve" smooth="yes"/>
      <point x="-10" y="1"/>
      <point x="-3" y="3"/>
      <point x="4" y="9" type="curve" smooth="yes"/>
      <point x="250" y="220" type="line"/>
      <point x="378" y="8" type="line"/>
      <point x="382" y="2"/>
      <point x="390" y="0"/>
      <point x="397" y="0" type="curve" smooth="yes"/>
      <point x="412" y="0"/>
      <point x="427" y="12"/>
      <point x="430" y="28" type="curve"/>
      <point x="432" y="34"/>
      <point x="431" y="40"/>
      <point x="428" y="45" type="curve" smooth="yes"/>
      <point x="298" y="255" type="line"/>
      <point x="531" y="451" type="line" smooth="yes"/>
    </contour>
  </outline>
</glyph>
<glyph name="bar" format="1">
  <advance width="193"/>
  <unicode hex="007C"/>
  <outline>
    <contour>
      <point x="21" y="-168"/>
      <point x="35" y="-156"/>
      <point x="39" y="-140" type="curve"/>
      <point x="241" y="812" type="line" smooth="yes"/>
      <point x="244" y="827"/>
      <point x="235" y="840"/>
      <point x="219" y="840" type="curve" smooth="yes"/>
      <point x="204" y="840"/>
      <point x="188" y="827"/>
      <point x="185" y="812" type="curve" smooth="yes"/>
      <point x="-17" y="-140" type="line"/>
      <point x="-21" y="-156"/>
      <point x="-10" y="-168"/>
      <point x="5" y="-168" type="curve" smooth="yes"/>
    </contour>
  </outline>
</glyph>
<glyph name="yen" format="1">
  <advance width="573"/>
  <unicode hex="00A5"/>
  <outline>
    <contour>
      <point x="552" y="694"/>
      <point x="541" y="688"/>
      <point x="534" y="679" type="curve" smooth="yes"/>
      <point x="299" y="368" type="line"/>
      <point x="210" y="677" type="line"/>
      <point x="208" y="687"/>
      <point x="200" y="692"/>
      <point x="190" y="692" type="curve" smooth="yes"/>
      <point x="173" y="692"/>
      <point x="158" y="678"/>
      <point x="155" y="664" type="curve" smooth="yes"/>
      <point x="154" y="660"/>
      <point x="154" y="656"/>
      <point x="155" y="652" type="curve" smooth="yes"/>
      <point x="243" y="342" type="line"/>
      <point x="148" y="342" type="line" smooth="yes"/>
      <point x="133" y="342"/>
      <point x="119" y="330"/>
      <point x="115" y="315" type="curve"/>
      <point x="112" y="300"/>
      <point x="122" y="288"/>
      <point x="137" y="288" type="curve" smooth="yes"/>
      <point x="253" y="288" type="line"/>
      <point x="231" y="188" type="line"/>
      <point x="115" y="188" type="line" smooth="yes"/>
      <point x="100" y="188"/>
      <point x="86" y="176"/>
      <point x="83" y="161" type="curve" smooth="yes"/>
      <point x="80" y="146"/>
      <point x="89" y="134"/>
      <point x="104" y="134" type="curve" smooth="yes"/>
      <point x="220" y="134" type="line"/>
      <point x="197" y="28" type="line" smooth="yes"/>
      <point x="194" y="13"/>
      <point x="205" y="0"/>
      <point x="220" y="0" type="curve" smooth="yes"/>
      <point x="236" y="0"/>
      <point x="250" y="13"/>
      <point x="253" y="28" type="curve" smooth="yes"/>
      <point x="276" y="134" type="line"/>
      <point x="393" y="134" type="line" smooth="yes"/>
      <point x="408" y="134"/>
      <point x="423" y="146"/>
      <point x="426" y="161" type="curve" smooth="yes"/>
      <point x="429" y="176"/>
      <point x="419" y="188"/>
      <point x="404" y="188" type="curve" smooth="yes"/>
      <point x="287" y="188" type="line"/>
      <point x="309" y="288" type="line"/>
      <point x="426" y="288" type="line" smooth="yes"/>
      <point x="441" y="288"/>
      <point x="455" y="300"/>
      <point x="458" y="315" type="curve"/>
      <point x="462" y="330"/>
      <point x="452" y="342"/>
      <point x="437" y="342" type="curve" smooth="yes"/>
      <point x="343" y="342" type="line"/>
      <point x="578" y="652" type="line" smooth="yes"/>
      <point x="581" y="656"/>
      <point x="583" y="661"/>
      <point x="584" y="665" type="curve"/>
      <point x="587" y="681"/>
      <point x="576" y="694"/>
      <point x="561" y="694" type="curve" smooth="yes"/>
    </contour>
  </outline>
</glyph>
<glyph name="dieresis" format="1">
  <advance width="500"/>
  <unicode hex="00A8"/>
  <outline>
    <contour>
      <point x="299" y="642"/>
      <point x="281" y="659"/>
      <point x="258" y="659" type="curve" smooth="yes"/>
      <point x="230" y="659"/>
      <point x="202" y="638"/>
      <point x="197" y="615" type="curve" smooth="yes"/>
      <point x="192" y="592"/>
      <point x="209" y="576"/>
      <point x="234" y="576" type="curve" smooth="yes"/>
      <point x="263" y="576"/>
      <point x="289" y="596"/>
      <point x="294" y="620" type="curve" smooth="yes"/>
    </contour>
    <contour>
      <point x="458" y="642"/>
      <point x="440" y="659"/>
      <point x="417" y="659" type="curve" smooth="yes"/>
      <point x="389" y="659"/>
      <point x="361" y="638"/>
      <point x="356" y="615" type="curve" smooth="yes"/>
      <point x="351" y="592"/>
      <point x="368" y="576"/>
      <point x="393" y="576" type="curve" smooth="yes"/>
      <point x="422" y="576"/>
      <point x="448" y="596"/>
      <point x="453" y="620" type="curve" smooth="yes"/>
    </contour>
  </outline>
</glyph>
<glyph name="copyright" format="1">
  <advance width="544"/>
  <unicode hex="00A9"/>
  <outline>
    <contour>
      <point x="389" y="236"/>
      <point x="510" y="338"/>
      <point x="537" y="463" type="curve" smooth="yes"/>
      <point x="563" y="588"/>
      <point x="485" y="690"/>
      <point x="363" y="690" type="curve" smooth="yes"/>
      <point x="241" y="690"/>
      <point x="119" y="588"/>
      <point x="93" y="463" type="curve" smooth="yes"/>
      <point x="66" y="338"/>
      <point x="145" y="236"/>
      <point x="267" y="236" type="curve" smooth="yes"/>
    </contour>
    <contour>
      <point x="450" y="644"/>
      <point x="512" y="563"/>
      <point x="491" y="463" type="curve" smooth="yes"/>
      <point x="470" y="363"/>
      <point x="373" y="282"/>
      <point x="276" y="282" type="curve" smooth="yes"/>
      <point x="179" y="282"/>
      <point x="118" y="363"/>
      <point x="139" y="463" type="curve" smooth="yes"/>
      <point x="160" y="563"/>
      <point x="256" y="644"/>
      <point x="353" y="644" type="curve" smooth="yes"/>
    </contour>
    <contour>
      <point x="413" y="412"/>
      <point x="415" y="416"/>
      <point x="416" y="420" type="curve" smooth="yes"/>
      <point x="419" y="433"/>
      <point x="411" y="443"/>
      <point x="398" y="443" type="curve" smooth="yes"/>
      <point x="390" y="443"/>
      <point x="381" y="439"/>
      <point x="371" y="427" type="curve"/>
      <point x="356" y="405"/>
      <point x="321" y="394"/>
      <point x="292" y="394" type="curve" smooth="yes"/>
      <point x="258" y="394"/>
      <point x="227" y="422"/>
      <point x="236" y="464" type="curve" smooth="yes"/>
      <point x="241" y="489"/>
      <point x="261" y="545"/>
      <point x="334" y="545" type="curve" smooth="yes"/>
      <point x="354" y="545"/>
      <point x="369" y="536"/>
      <point x="378" y="528" type="curve"/>
      <point x="383" y="523"/>
      <point x="387" y="521"/>
      <point x="393" y="521" type="curve" smooth="yes"/>
      <point x="406" y="521"/>
      <point x="418" y="531"/>
      <point x="421" y="544" type="curve" smooth="yes"/>
      <point x="423" y="552"/>
      <point x="420" y="558"/>
      <point x="414" y="565" type="curve"/>
      <point x="399" y="577"/>
      <point x="376" y="591"/>
      <point x="344" y="591" type="curve" smooth="yes"/>
      <point x="267" y="591"/>
      <point x="205" y="541"/>
      <point x="189" y="464" type="curve" smooth="yes"/>
      <point x="176" y="401"/>
      <point x="218" y="348"/>
      <point x="282" y="348" type="curve" smooth="yes"/>
      <point x="340" y="348"/>
      <point x="381" y="376"/>
      <point x="406" y="403" type="curve"/>
    </contour>
  </outline>
</glyph>
<glyph name="ordfeminine" format="1">
  <advance width="250"/>
  <unicode hex="00AA"/>
  <outline>
    <contour>
      <point x="255" y="342"/>
      <point x="270" y="354"/>
      <point x="273" y="367" type="curve" smooth="yes"/>
      <point x="329" y="639" type="line"/>
      <point x="317" y="651"/>
      <point x="277" y="668"/>
      <point x="233" y="668" type="curve" smooth="yes"/>
      <point x="138" y="668"/>
      <point x="65" y="569"/>
      <point x="47" y="483" type="curve" smooth="yes"/>
      <point x="31" y="405"/>
      <point x="68" y="347"/>
      <point x="136" y="347" type="curve" smooth="yes"/>
      <point x="175" y="347"/>
      <point x="196" y="358"/>
      <point x="223" y="369" type="curve"/>
      <point x="220" y="354"/>
      <point x="229" y="342"/>
      <point x="242" y="342" type="curve" smooth="yes"/>
    </contour>
    <contour>
      <point x="244" y="618"/>
      <point x="268" y="614"/>
      <point x="276" y="609" type="curve"/>
      <point x="234" y="427" type="line"/>
      <point x="224" y="421"/>
      <point x="185" y="396"/>
      <point x="148" y="396" type="curve" smooth="yes"/>
      <point x="99" y="396"/>
      <point x="89" y="445"/>
      <point x="98" y="485" type="curve" smooth="yes"/>
      <point x="109" y="540"/>
      <point x="155" y="618"/>
      <point x="227" y="618" type="curve" smooth="yes"/>
    </contour>
  </outline>
</glyph>
<glyph name="registered" format="1">
  <advance width="544"/>
  <unicode hex="00AE"/>
  <outline>
    <contour>
      <point x="389" y="236"/>
      <point x="510" y="338"/>
      <point x="537" y="463" type="curve" smooth="yes"/>
      <point x="563" y="588"/>
      <point x="485" y="690"/>
      <point x="363" y="690" type="curve" smooth="yes"/>
      <point x="240" y="690"/>
      <point x="119" y="588"/>
      <point x="93" y="463" type="curve" smooth="yes"/>
      <point x="66" y="338"/>
      <point x="144" y="236"/>
      <point x="267" y="236" type="curve" smooth="yes"/>
    </contour>
    <contour>
      <point x="450" y="644"/>
      <point x="512" y="563"/>
      <point x="491" y="463" type="curve" smooth="yes"/>
      <point x="470" y="363"/>
      <point x="373" y="282"/>
      <point x="276" y="282" type="curve" smooth="yes"/>
      <point x="179" y="282"/>
      <point x="118" y="363"/>
      <point x="139" y="463" type="curve" smooth="yes"/>
      <point x="160" y="563"/>
      <point x="256" y="644"/>
      <point x="353" y="644" type="curve" smooth="yes"/>
    </contour>
    <contour>
      <point x="452" y="563"/>
      <point x="417" y="590"/>
      <point x="343" y="590" type="curve" smooth="yes"/>
      <point x="269" y="590"/>
      <point x="268" y="585"/>
      <point x="261" y="567" type="curve" smooth="yes"/>
      <point x="194" y="390" type="line" smooth="yes"/>
      <point x="189" y="376"/>
      <point x="198" y="363"/>
      <point x="212" y="363" type="curve" smooth="yes"/>
      <point x="224" y="363"/>
      <point x="235" y="372"/>
      <point x="239" y="384" type="curve"/>
      <point x="259" y="437" type="line"/>
      <point x="347" y="366" type="line"/>
      <point x="350" y="364"/>
      <point x="354" y="362"/>
      <point x="359" y="362" type="curve" smooth="yes"/>
      <point x="372" y="362"/>
      <point x="385" y="372"/>
      <point x="387" y="385" type="curve"/>
      <point x="389" y="393"/>
      <point x="387" y="401"/>
      <point x="381" y="405" type="curve"/>
      <point x="328" y="447" type="line"/>
      <point x="377" y="457"/>
      <point x="434" y="477"/>
      <point x="443" y="520" type="curve" smooth="yes"/>
    </contour>
    <contour>
      <point x="299" y="543" type="line"/>
      <point x="307" y="544"/>
      <point x="316" y="544"/>
      <point x="325" y="544" type="curve" smooth="yes"/>
      <point x="360" y="544"/>
      <point x="401" y="538"/>
      <point x="397" y="520" type="curve" smooth="yes"/>
      <point x="395" y="510"/>
      <point x="341" y="491"/>
      <point x="278" y="485" type="curve"/>
    </contour>
  </outline>
</glyph>
<glyph name="degree" format="1">
  <advance width="243"/>
  <unicode hex="00B0"/>
  <outline>
    <contour>
      <point x="232" y="464"/>
      <point x="298" y="519"/>
      <point x="312" y="586" type="curve" smooth="yes"/>
      <point x="326" y="653"/>
      <point x="284" y="708"/>
      <point x="217" y="708" type="curve" smooth="yes"/>
      <point x="150" y="708"/>
      <point x="83" y="653"/>
      <point x="69" y="586" type="curve" smooth="yes"/>
      <point x="55" y="519"/>
      <point x="98" y="464"/>
      <point x="165" y="464" type="curve" smooth="yes"/>
    </contour>
    <contour>
      <point x="249" y="662"/>
      <point x="276" y="628"/>
      <point x="267" y="586" type="curve" smooth="yes"/>
      <point x="258" y="544"/>
      <point x="217" y="510"/>
      <point x="175" y="510" type="curve" smooth="yes"/>
      <point x="133" y="510"/>
      <point x="105" y="544"/>
      <point x="114" y="586" type="curve" smooth="yes"/>
      <point x="123" y="628"/>
      <point x="165" y="662"/>
      <point x="207" y="662" type="curve" smooth="yes"/>
    </contour>
  </outline>
</glyph>
<glyph name="plusminus" format="1">
  <advance width="441"/>
  <unicode hex="00B1"/>
  <outline>
    <contour>
      <point x="64" y="283"/>
      <point x="71" y="270"/>
      <point x="86" y="270" type="curve" smooth="yes"/>
      <point x="195" y="270" type="line"/>
      <point x="172" y="162" type="line" smooth="yes"/>
      <point x="169" y="149"/>
      <point x="178" y="136"/>
      <point x="193" y="136" type="curve" smooth="yes"/>
      <point x="206" y="136"/>
      <point x="222" y="148"/>
      <point x="225" y="162" type="curve" smooth="yes"/>
      <point x="248" y="270" type="line"/>
      <point x="358" y="270" type="line" smooth="yes"/>
      <point x="371" y="270"/>
      <point x="386" y="282"/>
      <point x="389" y="296" type="curve"/>
      <point x="393" y="311"/>
      <point x="382" y="323"/>
      <point x="369" y="323" type="curve" smooth="yes"/>
      <point x="259" y="323" type="line"/>
      <point x="280" y="421" type="line" smooth="yes"/>
      <point x="283" y="434"/>
      <point x="275" y="447"/>
      <point x="260" y="447" type="curve" smooth="yes"/>
      <point x="243" y="447"/>
      <point x="230" y="434"/>
      <point x="227" y="421" type="curve" smooth="yes"/>
      <point x="206" y="323" type="line"/>
      <point x="97" y="323" type="line" smooth="yes"/>
      <point x="83" y="323"/>
      <point x="68" y="310"/>
      <point x="65" y="296" type="curve"/>
    </contour>
    <contour>
      <point x="20" y="9"/>
      <point x="31" y="-1"/>
      <point x="44" y="-1" type="curve" smooth="yes"/>
      <point x="283" y="-1" type="line" smooth="yes"/>
      <point x="297" y="-1"/>
      <point x="312" y="10"/>
      <point x="315" y="26" type="curve" smooth="yes"/>
      <point x="318" y="40"/>
      <point x="309" y="52"/>
      <point x="295" y="52" type="curve" smooth="yes"/>
      <point x="56" y="52" type="line" smooth="yes"/>
      <point x="43" y="52"/>
      <point x="27" y="41"/>
      <point x="24" y="26" type="curve" smooth="yes"/>
    </contour>
  </outline>
</glyph>
<glyph name="paragraph" format="1">
  <advance width="559"/>
  <unicode hex="00B6"/>
  <outline>
    <contour>
      <point x="580" y="729"/>
      <point x="570" y="741"/>
      <point x="555" y="741" type="curve"/>
      <point x="539" y="740"/>
      <point x="524" y="728"/>
      <point x="522" y="712" type="curve"/>
      <point x="465" y="414"/>
      <point x="379" y="168"/>
      <point x="294" y="-47" type="curve" smooth="yes"/>
      <point x="287" y="-65"/>
      <point x="298" y="-79"/>
      <point x="314" y="-79" type="curve" smooth="yes"/>
      <point x="327" y="-79"/>
      <point x="340" y="-70"/>
      <point x="345" y="-57" type="curve" smooth="yes"/>
      <point x="442" y="182"/>
      <point x="527" y="440"/>
      <point x="578" y="714" type="curve"/>
    </contour>
    <contour>
      <point x="487" y="732" type="line" smooth="yes"/>
      <point x="499" y="734"/>
      <point x="511" y="746"/>
      <point x="514" y="759" type="curve" smooth="yes"/>
      <point x="517" y="774"/>
      <point x="508" y="789"/>
      <point x="493" y="786" type="curve" smooth="yes"/>
      <point x="327" y="756"/>
      <point x="156" y="671"/>
      <point x="125" y="526" type="curve" smooth="yes"/>
      <point x="98" y="399"/>
      <point x="192" y="349"/>
      <point x="302" y="349" type="curve" smooth="yes"/>
      <point x="321" y="349" type="line"/>
      <point x="299" y="270"/>
      <point x="218" y="29"/>
      <point x="181" y="-46" type="curve" smooth="yes"/>
      <point x="172" y="-64"/>
      <point x="185" y="-80"/>
      <point x="201" y="-80" type="curve" smooth="yes"/>
      <point x="214" y="-80"/>
      <point x="227" y="-71"/>
      <point x="233" y="-58" type="curve"/>
      <point x="328" y="171"/>
      <point x="419" y="452"/>
      <point x="467" y="729" type="curve"/>
    </contour>
  </outline>
</glyph>
<glyph name="periodcentered" format="1">
  <advance width="172"/>
  <unicode hex="00B7"/>
  <outline>
    <contour>
      <point x="92" y="210"/>
      <point x="116" y="231"/>
      <point x="121" y="257" type="curve" smooth="yes"/>
      <point x="125" y="277"/>
      <point x="115" y="293"/>
      <point x="97" y="293" type="curve" smooth="yes"/>
      <point x="76" y="293"/>
      <point x="52" y="271"/>
      <point x="47" y="248" type="curve" smooth="yes"/>
      <point x="43" y="227"/>
      <point x="52" y="210"/>
      <point x="71" y="210" type="curve" smooth="yes"/>
    </contour>
  </outline>
</glyph>
<glyph name="Acircumflex" format="1">
  <advance width="624"/>
  <unicode hex="00C2"/>
  <outline>
    <contour>
      <point x="489" y="887" type="line"/>
      <point x="484" y="892"/>
      <point x="478" y="895"/>
      <point x="471" y="895" type="curve" smooth="yes"/>
      <point x="465" y="895"/>
      <point x="457" y="893"/>
      <point x="450" y="888" type="curve" smooth="yes"/>
      <point x="296" y="778" type="line"/>
      <point x="288" y="773"/>
      <point x="283" y="765"/>
      <point x="281" y="757" type="curve"/>
      <point x="278" y="742"/>
      <point x="288" y="731"/>
      <point x="302" y="731" type="curve" smooth="yes"/>
      <point x="308" y="731"/>
      <point x="314" y="732"/>
      <point x="320" y="736" type="curve" smooth="yes"/>
      <point x="454" y="825" type="line"/>
      <point x="531" y="738" type="line"/>
      <point x="535" y="733"/>
      <point x="542" y="731"/>
      <point x="549" y="731" type="curve" smooth="yes"/>
      <point x="563" y="731"/>
      <point x="577" y="743"/>
      <point x="580" y="757" type="curve" smooth="yes"/>
      <point x="582" y="765"/>
      <point x="581" y="772"/>
      <point x="576" y="777" type="curve"/>
    </contour>
    <contour>
      <point x="441" y="670" type="line"/>
      <point x="439" y="681"/>
      <point x="430" y="689"/>
      <point x="419" y="689" type="curve" smooth="yes"/>
      <point x="407" y="689"/>
      <point x="394" y="682"/>
      <point x="387" y="671" type="curve" smooth="yes"/>
      <point x="136" y="256" type="line"/>
      <point x="81" y="244" type="line" smooth="yes"/>
      <point x="68" y="241"/>
      <point x="56" y="230"/>
      <point x="54" y="217" type="curve"/>
      <point x="50" y="200"/>
      <point x="60" y="188"/>
      <point x="76" y="188" type="curve" smooth="yes"/>
      <point x="78" y="188"/>
      <point x="80" y="188"/>
      <point x="97" y="192" type="curve"/>
      <point x="5" y="39" type="line"/>
      <point x="3" y="36"/>
      <point x="1" y="32"/>
      <point x="1" y="29" type="curve"/>
      <point x="-2" y="15"/>
      <point x="7" y="0"/>
      <point x="24" y="0" type="curve" smooth="yes"/>
      <point x="35" y="0"/>
      <point x="47" y="7"/>
      <point x="53" y="18" type="curve"/>
      <point x="167" y="206" type="line"/>
      <point x="434" y="262" type="line"/>
      <point x="466" y="18" type="line" smooth="yes"/>
      <point x="468" y="6"/>
      <point x="477" y="-1"/>
      <point x="489" y="-1" type="curve" smooth="yes"/>
      <point x="506" y="-1"/>
      <point x="520" y="13"/>
      <point x="523" y="28" type="curve"/>
      <point x="524" y="31"/>
      <point x="525" y="34"/>
      <point x="524" y="37" type="curve"/>
    </contour>
    <contour>
      <point x="206" y="270" type="line"/>
      <point x="392" y="578" type="line"/>
      <point x="427" y="316" type="line"/>
    </contour>
  </outline>
</glyph>
<glyph name="Ccedilla" format="1">
  <advance width="632"/>
  <unicode hex="00C7"/>
  <outline>
    <contour>
      <point x="195" y="-43"/>
      <point x="192" y="-50"/>
      <point x="191" y="-56" type="curve"/>
      <point x="188" y="-68"/>
      <point x="196" y="-76"/>
      <point x="207" y="-76" type="curve" smooth="yes"/>
      <point x="211" y="-76"/>
      <point x="216" y="-74"/>
      <point x="220" y="-71" type="curve"/>
      <point x="228" y="-67"/>
      <point x="239" y="-61"/>
      <point x="254" y="-61" type="curve" smooth="yes"/>
      <point x="281" y="-61"/>
      <point x="298" y="-83"/>
      <point x="292" y="-110" type="curve" smooth="yes"/>
      <point x="286" y="-137"/>
      <point x="260" y="-159"/>
      <point x="233" y="-159" type="curve" smooth="yes"/>
      <point x="210" y="-159"/>
      <point x="203" y="-148"/>
      <point x="197" y="-139" type="curve" smooth="yes"/>
      <point x="193" y="-133"/>
      <point x="189" y="-128"/>
      <point x="181" y="-128" type="curve" smooth="yes"/>
      <point x="169" y="-128"/>
      <point x="158" y="-138"/>
      <point x="156" y="-146" type="curve"/>
      <point x="149" y="-179"/>
      <point x="192" y="-201"/>
      <point x="224" y="-201" type="curve" smooth="yes"/>
      <point x="274" y="-201"/>
      <point x="323" y="-160"/>
      <point x="334" y="-110" type="curve" smooth="yes"/>
      <point x="344" y="-62"/>
      <point x="319" y="-19"/>
      <point x="251" y="-19" type="curve"/>
      <point x="256" y="-1" type="line"/>
      <point x="264" y="-2"/>
      <point x="273" y="-2"/>
      <point x="282" y="-2" type="curve" smooth="yes"/>
      <point x="378" y="-2"/>
      <point x="472" y="40"/>
      <point x="545" y="116" type="curve" smooth="yes"/>
      <point x="550" y="121"/>
      <point x="552" y="127"/>
      <point x="554" y="133" type="curve"/>
      <point x="558" y="151"/>
      <point x="546" y="161"/>
      <point x="531" y="161" type="curve" smooth="yes"/>
      <point x="523" y="161"/>
      <point x="515" y="159"/>
      <point x="506" y="150" type="curve" smooth="yes"/>
      <point x="439" y="81"/>
      <point x="366" y="55"/>
      <point x="294" y="55" type="curve" smooth="yes"/>
      <point x="204" y="55"/>
      <point x="78" y="124"/>
      <point x="114" y="296" type="curve" smooth="yes"/>
      <point x="149" y="460"/>
      <point x="312" y="627"/>
      <point x="424" y="627" type="curve" smooth="yes"/>
      <point x="509" y="627"/>
      <point x="539" y="593"/>
      <point x="554" y="572" type="curve"/>
      <point x="553" y="567" type="line" smooth="yes"/>
      <point x="550" y="551"/>
      <point x="560" y="538"/>
      <point x="576" y="538" type="curve" smooth="yes"/>
      <point x="592" y="538"/>
      <point x="607" y="551"/>
      <point x="610" y="567" type="curve" smooth="yes"/>
      <point x="624" y="631" type="line" smooth="yes"/>
      <point x="627" y="647"/>
      <point x="618" y="659"/>
      <point x="602" y="659" type="curve" smooth="yes"/>
      <point x="591" y="659"/>
      <point x="579" y="653"/>
      <point x="573" y="644" type="curve"/>
      <point x="547" y="664"/>
      <point x="505" y="684"/>
      <point x="436" y="684" type="curve" smooth="yes"/>
      <point x="298" y="684"/>
      <point x="101" y="500"/>
      <point x="57" y="296" type="curve" smooth="yes"/>
      <point x="26" y="148"/>
      <point x="99" y="32"/>
      <point x="222" y="4" type="curve"/>
      <point x="217" y="-5"/>
      <point x="210" y="-17"/>
      <point x="201" y="-33" type="curve" smooth="yes"/>
    </contour>
  </outline>
</glyph>
<glyph name="Egrave" format="1">
  <advance width="610"/>
  <unicode hex="00C8"/>
  <outline>
    <contour>
      <point x="419" y="725" type="line" smooth="yes"/>
      <point x="423" y="720"/>
      <point x="428" y="716"/>
      <point x="436" y="716" type="curve" smooth="yes"/>
      <point x="450" y="716"/>
      <point x="466" y="727"/>
      <point x="469" y="742" type="curve" smooth="yes"/>
      <point x="470" y="748"/>
      <point x="470" y="753"/>
      <point x="466" y="760" type="curve" smooth="yes"/>
      <point x="389" y="890" type="line"/>
      <point x="383" y="898"/>
      <point x="374" y="905"/>
      <point x="363" y="905" type="curve" smooth="yes"/>
      <point x="345" y="905"/>
      <point x="324" y="889"/>
      <point x="321" y="871" type="curve" smooth="yes"/>
      <point x="319" y="861"/>
      <point x="321" y="853"/>
      <point x="326" y="846" type="curve"/>
    </contour>
    <contour>
      <point x="79" y="57" type="line"/>
      <point x="135" y="324" type="line"/>
      <point x="486" y="324" type="line" smooth="yes"/>
      <point x="502" y="324"/>
      <point x="517" y="337"/>
      <point x="521" y="353" type="curve"/>
      <point x="524" y="369"/>
      <point x="514" y="381"/>
      <point x="498" y="381" type="curve" smooth="yes"/>
      <point x="147" y="381" type="line"/>
      <point x="199" y="625" type="line"/>
      <point x="599" y="625" type="line" smooth="yes"/>
      <point x="615" y="625"/>
      <point x="630" y="638"/>
      <point x="634" y="654" type="curve"/>
      <point x="637" y="670"/>
      <point x="627" y="682"/>
      <point x="611" y="682" type="curve" smooth="yes"/>
      <point x="183" y="682" type="line" smooth="yes"/>
      <point x="167" y="682"/>
      <point x="152" y="670"/>
      <point x="149" y="654" type="curve" smooth="yes"/>
      <point x="16" y="29" type="line"/>
      <point x="12" y="13"/>
      <point x="23" y="0"/>
      <point x="39" y="0" type="curve" smooth="yes"/>
      <point x="465" y="0" type="line" smooth="yes"/>
      <point x="481" y="0"/>
      <point x="495" y="13"/>
      <point x="499" y="29" type="curve"/>
      <point x="502" y="45"/>
      <point x="493" y="57"/>
      <point x="477" y="57" type="curve" smooth="yes"/>
    </contour>
  </outline>
</glyph>
<glyph name="Ecircumflex" format="1">
  <advance width="610"/>
  <unicode hex="00CA"/>
  <outline>
    <contour>
      <point x="481" y="887" type="line"/>
      <point x="476" y="892"/>
      <point x="470" y="895"/>
      <point x="463" y="895" type="curve" smooth="yes"/>
      <point x="457" y="895"/>
      <point x="449" y="893"/>
      <point x="442" y="888" type="curve" smooth="yes"/>
      <point x="288" y="778" type="line"/>
      <point x="280" y="773"/>
      <point x="275" y="765"/>
      <point x="273" y="757" type="curve"/>
      <point x="270" y="742"/>
      <point x="280" y="731"/>
      <point x="294" y="731" type="curve" smooth="yes"/>
      <point x="300" y="731"/>
      <point x="306" y="732"/>
      <point x="312" y="736" type="curve" smooth="yes"/>
      <point x="446" y="825" type="line"/>
      <point x="523" y="738" type="line"/>
      <point x="527" y="733"/>
      <point x="534" y="731"/>
      <point x="541" y="731" type="curve" smooth="yes"/>
      <point x="555" y="731"/>
      <point x="569" y="743"/>
      <point x="572" y="757" type="curve" smooth="yes"/>
      <point x="574" y="765"/>
      <point x="573" y="772"/>
      <point x="568" y="777" type="curve"/>
    </contour>
    <contour>
      <point x="79" y="57" type="line"/>
      <point x="135" y="324" type="line"/>
      <point x="486" y="324" type="line" smooth="yes"/>
      <point x="502" y="324"/>
      <point x="517" y="337"/>
      <point x="521" y="353" type="curve"/>
      <point x="524" y="369"/>
      <point x="514" y="381"/>
      <point x="498" y="381" type="curve" smooth="yes"/>
      <point x="147" y="381" type="line"/>
      <point x="199" y="625" type="line"/>
      <point x="599" y="625" type="line" smooth="yes"/>
      <point x="615" y="625"/>
      <point x="630" y="638"/>
      <point x="634" y="654" type="curve"/>
      <point x="637" y="670"/>
      <point x="627" y="682"/>
      <point x="611" y="682" type="curve" smooth="yes"/>
      <point x="183" y="682" type="line" smooth="yes"/>
      <point x="167" y="682"/>
      <point x="152" y="670"/>
      <point x="149" y="654" type="curve" smooth="yes"/>
      <point x="16" y="29" type="line"/>
      <point x="12" y="13"/>
      <point x="23" y="0"/>
      <point x="39" y="0" type="curve" smooth="yes"/>
      <point x="465" y="0" type="line" smooth="yes"/>
      <point x="481" y="0"/>
      <point x="495" y="13"/>
      <point x="499" y="29" type="curve"/>
      <point x="502" y="45"/>
      <point x="493" y="57"/>
      <point x="477" y="57" type="curve" smooth="yes"/>
    </contour>
  </outline>
</glyph>
<glyph name="Edieresis" format="1">
  <advance width="610"/>
  <unicode hex="00CB"/>
  <outline>
    <contour>
      <point x="395" y="799"/>
      <point x="377" y="816"/>
      <point x="354" y="816" type="curve" smooth="yes"/>
      <point x="326" y="816"/>
      <point x="298" y="795"/>
      <point x="294" y="772" type="curve"/>
      <point x="289" y="749"/>
      <point x="305" y="733"/>
      <point x="330" y="733" type="curve" smooth="yes"/>
      <point x="359" y="733"/>
      <point x="386" y="753"/>
      <point x="391" y="777" type="curve" smooth="yes"/>
    </contour>
    <contour>
      <point x="554" y="799"/>
      <point x="536" y="816"/>
      <point x="513" y="816" type="curve" smooth="yes"/>
      <point x="485" y="816"/>
      <point x="457" y="795"/>
      <point x="453" y="772" type="curve"/>
      <point x="448" y="749"/>
      <point x="464" y="733"/>
      <point x="489" y="733" type="curve" smooth="yes"/>
      <point x="518" y="733"/>
      <point x="545" y="753"/>
      <point x="550" y="777" type="curve" smooth="yes"/>
    </contour>
    <contour>
      <point x="79" y="57" type="line"/>
      <point x="135" y="324" type="line"/>
      <point x="486" y="324" type="line" smooth="yes"/>
      <point x="502" y="324"/>
      <point x="517" y="337"/>
      <point x="521" y="353" type="curve"/>
      <point x="524" y="369"/>
      <point x="514" y="381"/>
      <point x="498" y="381" type="curve" smooth="yes"/>
      <point x="147" y="381" type="line"/>
      <point x="199" y="625" type="line"/>
      <point x="599" y="625" type="line" smooth="yes"/>
      <point x="615" y="625"/>
      <point x="630" y="638"/>
      <point x="634" y="654" type="curve"/>
      <point x="637" y="670"/>
      <point x="627" y="682"/>
      <point x="611" y="682" type="curve" smooth="yes"/>
      <point x="183" y="682" type="line" smooth="yes"/>
      <point x="167" y="682"/>
      <point x="152" y="670"/>
      <point x="149" y="654" type="curve" smooth="yes"/>
      <point x="16" y="29" type="line"/>
      <point x="12" y="13"/>
      <point x="23" y="0"/>
      <point x="39" y="0" type="curve" smooth="yes"/>
      <point x="465" y="0" type="line" smooth="yes"/>
      <point x="481" y="0"/>
      <point x="495" y="13"/>
      <point x="499" y="29" type="curve"/>
      <point x="502" y="45"/>
      <point x="493" y="57"/>
      <point x="477" y="57" type="curve" smooth="yes"/>
    </contour>
  </outline>
</glyph>
<glyph name="Iacute" format="1">
  <advance width="433"/>
  <unicode hex="00CD"/>
  <outline>
    <contour>
      <point x="202" y="56" type="line"/>
      <point x="323" y="624" type="line"/>
      <point x="422" y="624" type="line" smooth="yes"/>
      <point x="438" y="624"/>
      <point x="453" y="637"/>
      <point x="456" y="653" type="curve"/>
      <point x="460" y="669"/>
      <point x="450" y="681"/>
      <point x="434" y="681" type="curve" smooth="yes"/>
      <point x="178" y="681" type="line" smooth="yes"/>
      <point x="162" y="681"/>
      <point x="147" y="669"/>
      <point x="143" y="653" type="curve"/>
      <point x="140" y="637"/>
      <point x="150" y="624"/>
      <point x="166" y="624" type="curve" smooth="yes"/>
      <point x="266" y="624" type="line"/>
      <point x="145" y="56" type="line"/>
      <point x="45" y="56" type="line" smooth="yes"/>
      <point x="29" y="56"/>
      <point x="14" y="44"/>
      <point x="10" y="28" type="curve"/>
      <point x="7" y="12"/>
      <point x="17" y="-1"/>
      <point x="33" y="-1" type="curve" smooth="yes"/>
      <point x="289" y="-1" type="line" smooth="yes"/>
      <point x="305" y="-1"/>
      <point x="320" y="12"/>
      <point x="323" y="28" type="curve"/>
      <point x="327" y="44"/>
      <point x="318" y="56"/>
      <point x="301" y="56" type="curve" smooth="yes"/>
    </contour>
    <contour>
      <point x="446" y="835" type="line" smooth="yes"/>
      <point x="454" y="840"/>
      <point x="459" y="849"/>
      <point x="461" y="858" type="curve" smooth="yes"/>
      <point x="465" y="878"/>
      <point x="454" y="894"/>
      <point x="435" y="894" type="curve" smooth="yes"/>
      <point x="424" y="894"/>
      <point x="412" y="886"/>
      <point x="402" y="879" type="curve" smooth="yes"/>
      <point x="254" y="776" type="line"/>
      <point x="249" y="772"/>
      <point x="246" y="765"/>
      <point x="245" y="759" type="curve" smooth="yes"/>
      <point x="242" y="744"/>
      <point x="251" y="732"/>
      <point x="265" y="732" type="curve" smooth="yes"/>
      <point x="271" y="732"/>
      <point x="280" y="736"/>
      <point x="288" y="741" type="curve" smooth="yes"/>
    </contour>
  </outline>
</glyph>
<glyph name="Ntilde" format="1">
  <advance width="619"/>
  <unicode hex="00D1"/>
  <outline>
    <contour>
      <point x="487" y="0"/>
      <point x="501" y="13"/>
      <point x="504" y="28" type="curve" smooth="yes"/>
      <point x="638" y="654" type="line" smooth="yes"/>
      <point x="641" y="669"/>
      <point x="630" y="682"/>
      <point x="615" y="682" type="curve" smooth="yes"/>
      <point x="599" y="682"/>
      <point x="585" y="669"/>
      <point x="582" y="654" type="curve" smooth="yes"/>
      <point x="467" y="117" type="line"/>
      <point x="204" y="669" type="line"/>
      <point x="199" y="677"/>
      <point x="191" y="681"/>
      <point x="182" y="681" type="curve" smooth="yes"/>
      <point x="166" y="681"/>
      <point x="152" y="667"/>
      <point x="149" y="653" type="curve" smooth="yes"/>
      <point x="15" y="28" type="line" smooth="yes"/>
      <point x="12" y="13"/>
      <point x="23" y="0"/>
      <point x="38" y="0" type="curve" smooth="yes"/>
      <point x="54" y="0"/>
      <point x="68" y="12"/>
      <point x="71" y="28" type="curve" smooth="yes"/>
      <point x="186" y="563" type="line"/>
      <point x="450" y="12" type="line"/>
      <point x="453" y="4"/>
      <point x="462" y="0"/>
      <point x="471" y="0" type="curve" smooth="yes"/>
    </contour>
    <contour>
      <point x="550" y="804"/>
      <point x="521" y="755"/>
      <point x="491" y="755" type="curve" smooth="yes"/>
      <point x="474" y="755"/>
      <point x="468" y="777"/>
      <point x="454" y="803" type="curve" smooth="yes"/>
      <point x="440" y="830"/>
      <point x="423" y="863"/>
      <point x="378" y="863" type="curve" smooth="yes"/>
      <point x="341" y="863"/>
      <point x="305" y="842"/>
      <point x="275" y="804" type="curve"/>
      <point x="267" y="793"/>
      <point x="253" y="776"/>
      <point x="250" y="761" type="curve" smooth="yes"/>
      <point x="247" y="747"/>
      <point x="257" y="736"/>
      <point x="271" y="736" type="curve" smooth="yes"/>
      <point x="283" y="736"/>
      <point x="293" y="742"/>
      <point x="300" y="755" type="curve" smooth="yes"/>
      <point x="326" y="804"/>
      <point x="356" y="821"/>
      <point x="369" y="821" type="curve" smooth="yes"/>
      <point x="386" y="821"/>
      <point x="392" y="799"/>
      <point x="406" y="773" type="curve" smooth="yes"/>
      <point x="420" y="745"/>
      <point x="437" y="713"/>
      <point x="482" y="713" type="curve" smooth="yes"/>
      <point x="547" y="713"/>
      <point x="593" y="781"/>
      <point x="610" y="812" type="curve"/>
      <point x="613" y="818"/>
      <point x="615" y="821"/>
      <point x="616" y="826" type="curve" smooth="yes"/>
      <point x="619" y="839"/>
      <point x="609" y="850"/>
      <point x="595" y="850" type="curve" smooth="yes"/>
      <point x="585" y="850"/>
      <point x="574" y="843"/>
      <point x="568" y="833" type="curve" smooth="yes"/>
    </contour>
  </outline>
</glyph>
<glyph name="Ograve" format="1">
  <advance width="660"/>
  <unicode hex="00D2"/>
  <outline>
    <contour>
      <point x="409" y="-2"/>
      <point x="580" y="167"/>
      <point x="623" y="367" type="curve" smooth="yes"/>
      <point x="659" y="539"/>
      <point x="584" y="682"/>
      <point x="440" y="682" type="curve" smooth="yes"/>
      <point x="284" y="682"/>
      <point x="114" y="513"/>
      <point x="71" y="313" type="curve" smooth="yes"/>
      <point x="35" y="143"/>
      <point x="108" y="-2"/>
      <point x="253" y="-2" type="curve" smooth="yes"/>
    </contour>
    <contour>
      <point x="541" y="630"/>
      <point x="597" y="498"/>
      <point x="569" y="363" type="curve" smooth="yes"/>
      <point x="533" y="193"/>
      <point x="387" y="50"/>
      <point x="264" y="50" type="curve" smooth="yes"/>
      <point x="150" y="50"/>
      <point x="93" y="169"/>
      <point x="124" y="313" type="curve" smooth="yes"/>
      <point x="161" y="489"/>
      <point x="299" y="630"/>
      <point x="422" y="630" type="curve" smooth="yes"/>
    </contour>
    <contour>
      <point x="487" y="725" type="line" smooth="yes"/>
      <point x="491" y="720"/>
      <point x="496" y="716"/>
      <point x="504" y="716" type="curve" smooth="yes"/>
      <point x="518" y="716"/>
      <point x="534" y="727"/>
      <point x="537" y="742" type="curve" smooth="yes"/>
      <point x="538" y="748"/>
      <point x="538" y="753"/>
      <point x="534" y="760" type="curve" smooth="yes"/>
      <point x="457" y="890" type="line"/>
      <point x="451" y="898"/>
      <point x="442" y="905"/>
      <point x="431" y="905" type="curve" smooth="yes"/>
      <point x="413" y="905"/>
      <point x="392" y="889"/>
      <point x="389" y="871" type="curve" smooth="yes"/>
      <point x="387" y="861"/>
      <point x="389" y="853"/>
      <point x="394" y="846" type="curve"/>
    </contour>
  </outline>
</glyph>
<glyph name="Otilde" format="1">
  <advance width="660"/>
  <unicode hex="00D5"/>
  <outline>
    <contour>
      <point x="409" y="-2"/>
      <point x="580" y="167"/>
      <point x="623" y="367" type="curve" smooth="yes"/>
      <point x="659" y="539"/>
      <point x="584" y="682"/>
      <point x="440" y="682" type="curve" smooth="yes"/>
      <point x="284" y="682"/>
      <point x="114" y="513"/>
      <point x="71" y="313" type="curve" smooth="yes"/>
      <point x="35" y="143"/>
      <point x="108" y="-2"/>
      <point x="253" y="-2" type="curve" smooth="yes"/>
    </contour>
    <contour>
      <point x="541" y="630"/>
      <point x="597" y="498"/>
      <point x="569" y="363" type="curve" smooth="yes"/>
      <point x="533" y="193"/>
      <point x="387" y="50"/>
      <point x="264" y="50" type="curve" smooth="yes"/>
      <point x="150" y="50"/>
      <point x="93" y="169"/>
      <point x="124" y="313" type="curve" smooth="yes"/>
      <point x="161" y="489"/>
      <point x="299" y="630"/>
      <point x="422" y="630" type="curve" smooth="yes"/>
    </contour>
    <contour>
      <point x="598" y="804"/>
      <point x="569" y="755"/>
      <point x="539" y="755" type="curve" smooth="yes"/>
      <point x="522" y="755"/>
      <point x="516" y="777"/>
      <point x="502" y="803" type="curve" smooth="yes"/>
      <point x="488" y="830"/>
      <point x="471" y="863"/>
      <point x="426" y="863" type="curve" smooth="yes"/>
      <point x="389" y="863"/>
      <point x="353" y="842"/>
      <point x="323" y="804" type="curve"/>
      <point x="315" y="793"/>
      <point x="301" y="776"/>
      <point x="298" y="761" type="curve" smooth="yes"/>
      <point x="295" y="747"/>
      <point x="305" y="736"/>
      <point x="319" y="736" type="curve" smooth="yes"/>
      <point x="331" y="736"/>
      <point x="341" y="742"/>
      <point x="348" y="755" type="curve" smooth="yes"/>
      <point x="374" y="804"/>
      <point x="404" y="821"/>
      <point x="417" y="821" type="curve" smooth="yes"/>
      <point x="434" y="821"/>
      <point x="440" y="799"/>
      <point x="454" y="773" type="curve" smooth="yes"/>
      <point x="468" y="745"/>
      <point x="485" y="713"/>
      <point x="530" y="713" type="curve" smooth="yes"/>
      <point x="595" y="713"/>
      <point x="641" y="781"/>
      <point x="658" y="812" type="curve"/>
      <point x="661" y="818"/>
      <point x="663" y="821"/>
      <point x="664" y="826" type="curve" smooth="yes"/>
      <point x="667" y="839"/>
      <point x="657" y="850"/>
      <point x="643" y="850" type="curve" smooth="yes"/>
      <point x="633" y="850"/>
      <point x="622" y="843"/>
      <point x="616" y="833" type="curve" smooth="yes"/>
    </contour>
  </outline>
</glyph>
<glyph name="Odieresis" format="1">
  <advance width="660"/>
  <unicode hex="00D6"/>
  <outline>
    <contour>
      <point x="409" y="-2"/>
      <point x="580" y="167"/>
      <point x="623" y="367" type="curve" smooth="yes"/>
      <point x="659" y="539"/>
      <point x="584" y="682"/>
      <point x="440" y="682" type="curve" smooth="yes"/>
      <point x="284" y="682"/>
      <point x="114" y="513"/>
      <point x="71" y="313" type="curve" smooth="yes"/>
      <point x="35" y="143"/>
      <point x="108" y="-2"/>
      <point x="253" y="-2" type="curve" smooth="yes"/>
    </contour>
    <contour>
      <point x="541" y="630"/>
      <point x="597" y="498"/>
      <point x="569" y="363" type="curve" smooth="yes"/>
      <point x="533" y="193"/>
      <point x="387" y="50"/>
      <point x="264" y="50" type="curve" smooth="yes"/>
      <point x="150" y="50"/>
      <point x="93" y="169"/>
      <point x="124" y="313" type="curve" smooth="yes"/>
      <point x="161" y="489"/>
      <point x="299" y="630"/>
      <point x="422" y="630" type="curve" smooth="yes"/>
    </contour>
    <contour>
      <point x="445" y="799"/>
      <point x="427" y="816"/>
      <point x="404" y="816" type="curve" smooth="yes"/>
      <point x="376" y="816"/>
      <point x="348" y="795"/>
      <point x="344" y="772" type="curve"/>
      <point x="339" y="749"/>
      <point x="355" y="733"/>
      <point x="380" y="733" type="curve" smooth="yes"/>
      <point x="409" y="733"/>
      <point x="436" y="753"/>
      <point x="441" y="777" type="curve" smooth="yes"/>
    </contour>
    <contour>
      <point x="604" y="799"/>
      <point x="586" y="816"/>
      <point x="563" y="816" type="curve" smooth="yes"/>
      <point x="535" y="816"/>
      <point x="507" y="795"/>
      <point x="503" y="772" type="curve"/>
      <point x="498" y="749"/>
      <point x="514" y="733"/>
      <point x="539" y="733" type="curve" smooth="yes"/>
      <point x="568" y="733"/>
      <point x="595" y="753"/>
      <point x="600" y="777" type="curve" smooth="yes"/>
    </contour>
  </outline>
</glyph>
<glyph name="multiply" format="1">
  <advance width="441"/>
  <unicode hex="00D7"/>
  <outline>
    <contour>
      <point x="362" y="353"/>
      <point x="355" y="364"/>
      <point x="336" y="364" type="curve" smooth="yes"/>
      <point x="330" y="364"/>
      <point x="323" y="361"/>
      <point x="318" y="357" type="curve" smooth="yes"/>
      <point x="225" y="280" type="line"/>
      <point x="170" y="349" type="line" smooth="yes"/>
      <point x="166" y="354"/>
      <point x="160" y="357"/>
      <point x="152" y="357" type="curve" smooth="yes"/>
      <point x="138" y="357"/>
      <point x="124" y="344"/>
      <point x="121" y="331" type="curve" smooth="yes"/>
      <point x="119" y="323"/>
      <point x="121" y="317"/>
      <point x="125" y="312" type="curve" smooth="yes"/>
      <point x="180" y="243" type="line"/>
      <point x="86" y="165" type="line" smooth="yes"/>
      <point x="80" y="160"/>
      <point x="75" y="153"/>
      <point x="74" y="146" type="curve"/>
      <point x="71" y="134"/>
      <point x="78" y="120"/>
      <point x="94" y="120" type="curve" smooth="yes"/>
      <point x="102" y="120"/>
      <point x="109" y="123"/>
      <point x="115" y="128" type="curve" smooth="yes"/>
      <point x="209" y="205" type="line"/>
      <point x="269" y="129" type="line" smooth="yes"/>
      <point x="273" y="124"/>
      <point x="279" y="121"/>
      <point x="286" y="121" type="curve" smooth="yes"/>
      <point x="300" y="121"/>
      <point x="315" y="132"/>
      <point x="318" y="148" type="curve"/>
      <point x="319" y="155"/>
      <point x="318" y="161"/>
      <point x="314" y="166" type="curve" smooth="yes"/>
      <point x="254" y="243" type="line"/>
      <point x="348" y="320" type="line"/>
      <point x="352" y="324"/>
      <point x="357" y="330"/>
      <point x="358" y="336" type="curve"/>
    </contour>
  </outline>
</glyph>
<glyph name="Uacute" format="1">
  <advance width="683"/>
  <unicode hex="00DA"/>
  <outline>
    <contour>
      <point x="702" y="668"/>
      <point x="692" y="681"/>
      <point x="677" y="681" type="curve" smooth="yes"/>
      <point x="659" y="681"/>
      <point x="646" y="667"/>
      <point x="643" y="651" type="curve" smooth="yes"/>
      <point x="615" y="518"/>
      <point x="594" y="397"/>
      <point x="555" y="277" type="curve" smooth="yes"/>
      <point x="510" y="139"/>
      <point x="425" y="49"/>
      <point x="290" y="49" type="curve" smooth="yes"/>
      <point x="114" y="49"/>
      <point x="123" y="236"/>
      <point x="148" y="381" type="curve" smooth="yes"/>
      <point x="165" y="474"/>
      <point x="185" y="564"/>
      <point x="206" y="653" type="curve" smooth="yes"/>
      <point x="210" y="669"/>
      <point x="199" y="681"/>
      <point x="184" y="681" type="curve" smooth="yes"/>
      <point x="170" y="681"/>
      <point x="154" y="670"/>
      <point x="151" y="654" type="curve"/>
      <point x="131" y="569"/>
      <point x="108" y="474"/>
      <point x="90" y="367" type="curve" smooth="yes"/>
      <point x="47" y="125"/>
      <point x="110" y="0"/>
      <point x="278" y="0" type="curve" smooth="yes"/>
      <point x="455" y="0"/>
      <point x="555" y="110"/>
      <point x="610" y="270" type="curve" smooth="yes"/>
      <point x="655" y="400"/>
      <point x="677" y="527"/>
      <point x="699" y="653" type="curve" smooth="yes"/>
    </contour>
    <contour>
      <point x="575" y="835" type="line" smooth="yes"/>
      <point x="583" y="840"/>
      <point x="588" y="849"/>
      <point x="590" y="858" type="curve" smooth="yes"/>
      <point x="594" y="878"/>
      <point x="583" y="894"/>
      <point x="564" y="894" type="curve" smooth="yes"/>
      <point x="553" y="894"/>
      <point x="541" y="886"/>
      <point x="531" y="879" type="curve" smooth="yes"/>
      <point x="383" y="776" type="line"/>
      <point x="378" y="772"/>
      <point x="375" y="765"/>
      <point x="374" y="759" type="curve" smooth="yes"/>
      <point x="371" y="744"/>
      <point x="380" y="732"/>
      <point x="394" y="732" type="curve" smooth="yes"/>
      <point x="400" y="732"/>
      <point x="409" y="736"/>
      <point x="417" y="741" type="curve" smooth="yes"/>
    </contour>
  </outline>
</glyph>
<glyph name="Yacute" format="1">
  <advance width="593"/>
  <unicode hex="00DD"/>
  <outline>
    <contour>
      <point x="643" y="681"/>
      <point x="633" y="676"/>
      <point x="626" y="667" type="curve" smooth="yes"/>
      <point x="306" y="269" type="line"/>
      <point x="158" y="667" type="line" smooth="yes"/>
      <point x="155" y="676"/>
      <point x="147" y="681"/>
      <point x="138" y="681" type="curve" smooth="yes"/>
      <point x="122" y="681"/>
      <point x="106" y="668"/>
      <point x="103" y="653" type="curve" smooth="yes"/>
      <point x="102" y="648"/>
      <point x="103" y="642"/>
      <point x="105" y="635" type="curve"/>
      <point x="261" y="214" type="line"/>
      <point x="125" y="46" type="line" smooth="yes"/>
      <point x="121" y="41"/>
      <point x="117" y="34"/>
      <point x="115" y="28" type="curve"/>
      <point x="112" y="14"/>
      <point x="122" y="0"/>
      <point x="138" y="0" type="curve" smooth="yes"/>
      <point x="148" y="0"/>
      <point x="158" y="5"/>
      <point x="164" y="14" type="curve"/>
      <point x="663" y="632" type="line"/>
      <point x="672" y="644"/>
      <point x="674" y="648"/>
      <point x="675" y="653" type="curve"/>
      <point x="679" y="669"/>
      <point x="667" y="681"/>
      <point x="653" y="681" type="curve" smooth="yes"/>
    </contour>
    <contour>
      <point x="530" y="853" type="line" smooth="yes"/>
      <point x="538" y="858"/>
      <point x="543" y="867"/>
      <point x="545" y="876" type="curve" smooth="yes"/>
      <point x="549" y="896"/>
      <point x="537" y="912"/>
      <point x="518" y="912" type="curve" smooth="yes"/>
      <point x="507" y="912"/>
      <point x="496" y="904"/>
      <point x="486" y="897" type="curve" smooth="yes"/>
      <point x="338" y="794" type="line" smooth="yes"/>
      <point x="332" y="790"/>
      <point x="330" y="783"/>
      <point x="329" y="777" type="curve"/>
      <point x="325" y="762"/>
      <point x="335" y="750"/>
      <point x="349" y="750" type="curve" smooth="yes"/>
      <point x="355" y="750"/>
      <point x="364" y="754"/>
      <point x="372" y="759" type="curve" smooth="yes"/>
    </contour>
  </outline>
</glyph>
<glyph name="acircumflex" format="1">
  <advance width="505"/>
  <unicode hex="00E2"/>
  <outline>
    <contour>
      <point x="483" y="463" type="line"/>
      <point x="470" y="471"/>
      <point x="415" y="504"/>
      <point x="341" y="504" type="curve" smooth="yes"/>
      <point x="167" y="504"/>
      <point x="62" y="318"/>
      <point x="40" y="214" type="curve" smooth="yes"/>
      <point x="13" y="85"/>
      <point x="74" y="-2"/>
      <point x="182" y="-2" type="curve" smooth="yes"/>
      <point x="237" y="-2"/>
      <point x="297" y="23"/>
      <point x="338" y="45" type="curve"/>
      <point x="333" y="22" type="line"/>
      <point x="330" y="5"/>
      <point x="335" y="-10"/>
      <point x="354" y="-10" type="curve" smooth="yes"/>
      <point x="370" y="-10"/>
      <point x="385" y="4"/>
      <point x="389" y="20" type="curve"/>
    </contour>
    <contour>
      <point x="350" y="111" type="line"/>
      <point x="324" y="95"/>
      <point x="253" y="53"/>
      <point x="192" y="53" type="curve" smooth="yes"/>
      <point x="97" y="53"/>
      <point x="83" y="146"/>
      <point x="97" y="216" type="curve" smooth="yes"/>
      <point x="115" y="299"/>
      <point x="195" y="449"/>
      <point x="332" y="449" type="curve" smooth="yes"/>
      <point x="366" y="449"/>
      <point x="404" y="436"/>
      <point x="421" y="428" type="curve"/>
    </contour>
    <contour>
      <point x="427" y="730" type="line"/>
      <point x="422" y="735"/>
      <point x="415" y="738"/>
      <point x="408" y="738" type="curve" smooth="yes"/>
      <point x="402" y="738"/>
      <point x="395" y="736"/>
      <point x="388" y="731" type="curve" smooth="yes"/>
      <point x="233" y="621" type="line"/>
      <point x="225" y="616"/>
      <point x="221" y="608"/>
      <point x="219" y="600" type="curve"/>
      <point x="216" y="585"/>
      <point x="226" y="574"/>
      <point x="240" y="574" type="curve" smooth="yes"/>
      <point x="246" y="574"/>
      <point x="252" y="575"/>
      <point x="258" y="579" type="curve" smooth="yes"/>
      <point x="391" y="668" type="line"/>
      <point x="469" y="581" type="line"/>
      <point x="473" y="576"/>
      <point x="480" y="574"/>
      <point x="487" y="574" type="curve" smooth="yes"/>
      <point x="501" y="574"/>
      <point x="515" y="586"/>
      <point x="518" y="600" type="curve" smooth="yes"/>
      <point x="520" y="608"/>
      <point x="518" y="615"/>
      <point x="513" y="620" type="curve"/>
    </contour>
  </outline>
</glyph>
<glyph name="atilde" format="1">
  <advance width="505"/>
  <unicode hex="00E3"/>
  <outline>
    <contour>
      <point x="483" y="463" type="line"/>
      <point x="470" y="471"/>
      <point x="415" y="504"/>
      <point x="341" y="504" type="curve" smooth="yes"/>
      <point x="167" y="504"/>
      <point x="62" y="318"/>
      <point x="40" y="214" type="curve" smooth="yes"/>
      <point x="13" y="85"/>
      <point x="74" y="-2"/>
      <point x="182" y="-2" type="curve" smooth="yes"/>
      <point x="237" y="-2"/>
      <point x="297" y="23"/>
      <point x="338" y="45" type="curve"/>
      <point x="333" y="22" type="line"/>
      <point x="330" y="5"/>
      <point x="335" y="-10"/>
      <point x="354" y="-10" type="curve" smooth="yes"/>
      <point x="370" y="-10"/>
      <point x="385" y="4"/>
      <point x="389" y="20" type="curve"/>
    </contour>
    <contour>
      <point x="350" y="111" type="line"/>
      <point x="324" y="95"/>
      <point x="253" y="53"/>
      <point x="192" y="53" type="curve" smooth="yes"/>
      <point x="97" y="53"/>
      <point x="83" y="146"/>
      <point x="97" y="216" type="curve" smooth="yes"/>
      <point x="115" y="299"/>
      <point x="195" y="449"/>
      <point x="332" y="449" type="curve" smooth="yes"/>
      <point x="366" y="449"/>
      <point x="404" y="436"/>
      <point x="421" y="428" type="curve"/>
    </contour>
    <contour>
      <point x="463" y="647"/>
      <point x="434" y="598"/>
      <point x="404" y="598" type="curve" smooth="yes"/>
      <point x="387" y="598"/>
      <point x="380" y="620"/>
      <point x="367" y="646" type="curve" smooth="yes"/>
      <point x="353" y="673"/>
      <point x="336" y="706"/>
      <point x="291" y="706" type="curve" smooth="yes"/>
      <point x="254" y="706"/>
      <point x="218" y="685"/>
      <point x="188" y="647" type="curve"/>
      <point x="180" y="636"/>
      <point x="166" y="619"/>
      <point x="163" y="604" type="curve" smooth="yes"/>
      <point x="160" y="590"/>
      <point x="170" y="579"/>
      <point x="184" y="579" type="curve" smooth="yes"/>
      <point x="196" y="579"/>
      <point x="206" y="585"/>
      <point x="213" y="598" type="curve" smooth="yes"/>
      <point x="239" y="647"/>
      <point x="269" y="664"/>
      <point x="282" y="664" type="curve" smooth="yes"/>
      <point x="299" y="664"/>
      <point x="305" y="642"/>
      <point x="318" y="616" type="curve" smooth="yes"/>
      <point x="332" y="588"/>
      <point x="350" y="556"/>
      <point x="395" y="556" type="curve" smooth="yes"/>
      <point x="460" y="556"/>
      <point x="505" y="624"/>
      <point x="523" y="655" type="curve"/>
      <point x="526" y="661"/>
      <point x="528" y="664"/>
      <point x="529" y="669" type="curve"/>
      <point x="531" y="682"/>
      <point x="522" y="693"/>
      <point x="508" y="693" type="curve" smooth="yes"/>
      <point x="498" y="693"/>
      <point x="486" y="686"/>
      <point x="480" y="676" type="curve" smooth="yes"/>
    </contour>
  </outline>
</glyph>
<glyph name="ae" format="1">
  <advance width="832"/>
  <unicode hex="00E6"/>
  <outline>
    <contour>
      <point x="468" y="458" type="line"/>
      <point x="454" y="470"/>
      <point x="390" y="498"/>
      <point x="325" y="498" type="curve" smooth="yes"/>
      <point x="206" y="498"/>
      <point x="75" y="380"/>
      <point x="40" y="214" type="curve" smooth="yes"/>
      <point x="13" y="86"/>
      <point x="75" y="8"/>
      <point x="179" y="8" type="curve" smooth="yes"/>
      <point x="231" y="8"/>
      <point x="289" y="32"/>
      <point x="328" y="53" type="curve"/>
      <point x="322" y="27" type="line" smooth="yes"/>
      <point x="319" y="14"/>
      <point x="328" y="0"/>
      <point x="345" y="0" type="curve" smooth="yes"/>
      <point x="359" y="0"/>
      <point x="374" y="14"/>
      <point x="377" y="27" type="curve" smooth="yes"/>
      <point x="389" y="82" type="line"/>
      <point x="422" y="27"/>
      <point x="480" y="0"/>
      <point x="557" y="0" type="curve" smooth="yes"/>
      <point x="618" y="0"/>
      <point x="690" y="32"/>
      <point x="734" y="72" type="curve"/>
      <point x="739" y="76"/>
      <point x="743" y="83"/>
      <point x="745" y="90" type="curve"/>
      <point x="748" y="105"/>
      <point x="739" y="116"/>
      <point x="724" y="116" type="curve" smooth="yes"/>
      <point x="717" y="116"/>
      <point x="710" y="113"/>
      <point x="704" y="108" type="curve"/>
      <point x="671" y="77"/>
      <point x="618" y="52"/>
      <point x="575" y="52" type="curve" smooth="yes"/>
      <point x="494" y="52"/>
      <point x="439" y="78"/>
      <point x="417" y="147" type="curve"/>
      <point x="764" y="325" type="line" smooth="yes"/>
      <point x="781" y="334"/>
      <point x="789" y="343"/>
      <point x="792" y="354" type="curve"/>
      <point x="801" y="397"/>
      <point x="762" y="483"/>
      <point x="642" y="483" type="curve" smooth="yes"/>
      <point x="582" y="483"/>
      <point x="511" y="455"/>
      <point x="455" y="398" type="curve"/>
    </contour>
    <contour>
      <point x="308" y="95"/>
      <point x="237" y="61"/>
      <point x="186" y="61" type="curve" smooth="yes"/>
      <point x="107" y="61"/>
      <point x="76" y="131"/>
      <point x="95" y="217" type="curve" smooth="yes"/>
      <point x="112" y="298"/>
      <point x="189" y="445"/>
      <point x="322" y="445" type="curve" smooth="yes"/>
      <point x="356" y="445"/>
      <point x="394" y="432"/>
      <point x="410" y="424" type="curve"/>
      <point x="339" y="117" type="line"/>
    </contour>
    <contour>
      <point x="696" y="430"/>
      <point x="725" y="411"/>
      <point x="739" y="361" type="curve"/>
      <point x="411" y="198" type="line"/>
      <point x="411" y="209"/>
      <point x="413" y="218"/>
      <point x="415" y="229" type="curve" smooth="yes"/>
      <point x="440" y="345"/>
      <point x="534" y="430"/>
      <point x="631" y="430" type="curve" smooth="yes"/>
    </contour>
  </outline>
</glyph>
<glyph name="eacute" format="1">
  <advance width="521"/>
  <unicode hex="00E9"/>
  <outline>
    <contour>
      <point x="438" y="105"/>
      <point x="429" y="116"/>
      <point x="414" y="116" type="curve" smooth="yes"/>
      <point x="407" y="116"/>
      <point x="400" y="113"/>
      <point x="394" y="108" type="curve"/>
      <point x="361" y="77"/>
      <point x="298" y="52"/>
      <point x="255" y="52" type="curve" smooth="yes"/>
      <point x="174" y="52"/>
      <point x="122" y="86"/>
      <point x="99" y="155" type="curve"/>
      <point x="456" y="337" type="line" smooth="yes"/>
      <point x="474" y="346"/>
      <point x="482" y="355"/>
      <point x="484" y="366" type="curve" smooth="yes"/>
      <point x="493" y="409"/>
      <point x="455" y="499"/>
      <point x="326" y="499" type="curve" smooth="yes"/>
      <point x="190" y="499"/>
      <point x="75" y="376"/>
      <point x="46" y="238" type="curve" smooth="yes"/>
      <point x="20" y="114"/>
      <point x="92" y="0"/>
      <point x="245" y="0" type="curve" smooth="yes"/>
      <point x="306" y="0"/>
      <point x="380" y="32"/>
      <point x="424" y="72" type="curve"/>
      <point x="429" y="76"/>
      <point x="433" y="83"/>
      <point x="435" y="90" type="curve"/>
    </contour>
    <contour>
      <point x="389" y="446"/>
      <point x="424" y="420"/>
      <point x="432" y="373" type="curve"/>
      <point x="92" y="206" type="line"/>
      <point x="93" y="217"/>
      <point x="95" y="226"/>
      <point x="97" y="237" type="curve" smooth="yes"/>
      <point x="122" y="353"/>
      <point x="212" y="446"/>
      <point x="314" y="446" type="curve" smooth="yes"/>
    </contour>
    <contour>
      <point x="478" y="666" type="line" smooth="yes"/>
      <point x="486" y="671"/>
      <point x="491" y="680"/>
      <point x="493" y="689" type="curve" smooth="yes"/>
      <point x="497" y="709"/>
      <point x="486" y="725"/>
      <point x="467" y="725" type="curve" smooth="yes"/>
      <point x="456" y="725"/>
      <point x="444" y="717"/>
      <point x="434" y="710" type="curve" smooth="yes"/>
      <point x="287" y="607" type="line" smooth="yes"/>
      <point x="281" y="603"/>
      <point x="278" y="596"/>
      <point x="277" y="590" type="curve" smooth="yes"/>
      <point x="274" y="575"/>
      <point x="283" y="563"/>
      <point x="297" y="563" type="curve" smooth="yes"/>
      <point x="303" y="563"/>
      <point x="312" y="567"/>
      <point x="320" y="572" type="curve" smooth="yes"/>
    </contour>
  </outline>
</glyph>
<glyph name="ecircumflex" format="1">
  <advance width="521"/>
  <unicode hex="00EA"/>
  <outline>
    <contour>
      <point x="438" y="105"/>
      <point x="429" y="116"/>
      <point x="414" y="116" type="curve" smooth="yes"/>
      <point x="407" y="116"/>
      <point x="400" y="113"/>
      <point x="394" y="108" type="curve"/>
      <point x="361" y="77"/>
      <point x="298" y="52"/>
      <point x="255" y="52" type="curve" smooth="yes"/>
      <point x="174" y="52"/>
      <point x="122" y="86"/>
      <point x="99" y="155" type="curve"/>
      <point x="456" y="337" type="line" smooth="yes"/>
      <point x="474" y="346"/>
      <point x="482" y="355"/>
      <point x="484" y="366" type="curve" smooth="yes"/>
      <point x="493" y="409"/>
      <point x="455" y="499"/>
      <point x="326" y="499" type="curve" smooth="yes"/>
      <point x="190" y="499"/>
      <point x="75" y="376"/>
      <point x="46" y="238" type="curve" smooth="yes"/>
      <point x="20" y="114"/>
      <point x="92" y="0"/>
      <point x="245" y="0" type="curve" smooth="yes"/>
      <point x="306" y="0"/>
      <point x="380" y="32"/>
      <point x="424" y="72" type="curve"/>
      <point x="429" y="76"/>
      <point x="433" y="83"/>
      <point x="435" y="90" type="curve"/>
    </contour>
    <contour>
      <point x="389" y="446"/>
      <point x="424" y="420"/>
      <point x="432" y="373" type="curve"/>
      <point x="92" y="206" type="line"/>
      <point x="93" y="217"/>
      <point x="95" y="226"/>
      <point x="97" y="237" type="curve" smooth="yes"/>
      <point x="122" y="353"/>
      <point x="212" y="446"/>
      <point x="314" y="446" type="curve" smooth="yes"/>
    </contour>
    <contour>
      <point x="420" y="730" type="line"/>
      <point x="415" y="735"/>
      <point x="408" y="738"/>
      <point x="401" y="738" type="curve" smooth="yes"/>
      <point x="395" y="738"/>
      <point x="388" y="736"/>
      <point x="381" y="731" type="curve" smooth="yes"/>
      <point x="226" y="621" type="line"/>
      <point x="218" y="616"/>
      <point x="214" y="608"/>
      <point x="212" y="600" type="curve"/>
      <point x="209" y="585"/>
      <point x="219" y="574"/>
      <point x="233" y="574" type="curve" smooth="yes"/>
      <point x="239" y="574"/>
      <point x="245" y="575"/>
      <point x="251" y="579" type="curve" smooth="yes"/>
      <point x="384" y="668" type="line"/>
      <point x="462" y="581" type="line"/>
      <point x="466" y="576"/>
      <point x="473" y="574"/>
      <point x="480" y="574" type="curve" smooth="yes"/>
      <point x="494" y="574"/>
      <point x="508" y="586"/>
      <point x="511" y="600" type="curve" smooth="yes"/>
      <point x="513" y="608"/>
      <point x="511" y="615"/>
      <point x="506" y="620" type="curve"/>
    </contour>
  </outline>
</glyph>
<glyph name="edieresis" format="1">
  <advance width="521"/>
  <unicode hex="00EB"/>
  <outline>
    <contour>
      <point x="438" y="105"/>
      <point x="429" y="116"/>
      <point x="414" y="116" type="curve" smooth="yes"/>
      <point x="407" y="116"/>
      <point x="400" y="113"/>
      <point x="394" y="108" type="curve"/>
      <point x="361" y="77"/>
      <point x="298" y="52"/>
      <point x="255" y="52" type="curve" smooth="yes"/>
      <point x="174" y="52"/>
      <point x="122" y="86"/>
      <point x="99" y="155" type="curve"/>
      <point x="456" y="337" type="line" smooth="yes"/>
      <point x="474" y="346"/>
      <point x="482" y="355"/>
      <point x="484" y="366" type="curve" smooth="yes"/>
      <point x="493" y="409"/>
      <point x="455" y="499"/>
      <point x="326" y="499" type="curve" smooth="yes"/>
      <point x="190" y="499"/>
      <point x="75" y="376"/>
      <point x="46" y="238" type="curve" smooth="yes"/>
      <point x="20" y="114"/>
      <point x="92" y="0"/>
      <point x="245" y="0" type="curve" smooth="yes"/>
      <point x="306" y="0"/>
      <point x="380" y="32"/>
      <point x="424" y="72" type="curve"/>
      <point x="429" y="76"/>
      <point x="433" y="83"/>
      <point x="435" y="90" type="curve"/>
    </contour>
    <contour>
      <point x="389" y="446"/>
      <point x="424" y="420"/>
      <point x="432" y="373" type="curve"/>
      <point x="92" y="206" type="line"/>
      <point x="93" y="217"/>
      <point x="95" y="226"/>
      <point x="97" y="237" type="curve" smooth="yes"/>
      <point x="122" y="353"/>
      <point x="212" y="446"/>
      <point x="314" y="446" type="curve" smooth="yes"/>
    </contour>
    <contour>
      <point x="340" y="642"/>
      <point x="322" y="659"/>
      <point x="299" y="659" type="curve" smooth="yes"/>
      <point x="271" y="659"/>
      <point x="243" y="638"/>
      <point x="238" y="615" type="curve" smooth="yes"/>
      <point x="233" y="592"/>
      <point x="250" y="576"/>
      <point x="275" y="576" type="curve" smooth="yes"/>
      <point x="304" y="576"/>
      <point x="330" y="596"/>
      <point x="335" y="620" type="curve" smooth="yes"/>
    </contour>
    <contour>
      <point x="499" y="642"/>
      <point x="481" y="659"/>
      <point x="458" y="659" type="curve" smooth="yes"/>
      <point x="430" y="659"/>
      <point x="402" y="638"/>
      <point x="397" y="615" type="curve" smooth="yes"/>
      <point x="392" y="592"/>
      <point x="409" y="576"/>
      <point x="434" y="576" type="curve" smooth="yes"/>
      <point x="463" y="576"/>
      <point x="489" y="596"/>
      <point x="494" y="620" type="curve" smooth="yes"/>
    </contour>
  </outline>
</glyph>
<glyph name="igrave" format="1">
  <advance width="194"/>
  <unicode hex="00EC"/>
  <outline>
    <contour>
      <point x="176" y="483"/>
      <point x="166" y="496"/>
      <point x="150" y="496" type="curve" smooth="yes"/>
      <point x="134" y="496"/>
      <point x="118" y="483"/>
      <point x="115" y="467" type="curve"/>
      <point x="115" y="467"/>
      <point x="16" y="29"/>
      <point x="16" y="29" type="curve"/>
      <point x="12" y="13"/>
      <point x="23" y="0"/>
      <point x="39" y="0" type="curve" smooth="yes"/>
      <point x="55" y="0"/>
      <point x="70" y="13"/>
      <point x="74" y="29" type="curve"/>
      <point x="74" y="29"/>
      <point x="173" y="467"/>
      <point x="173" y="467" type="curve"/>
    </contour>
    <contour>
      <point x="209" y="567" type="line" smooth="yes"/>
      <point x="213" y="562"/>
      <point x="218" y="558"/>
      <point x="226" y="558" type="curve" smooth="yes"/>
      <point x="240" y="558"/>
      <point x="256" y="569"/>
      <point x="260" y="584" type="curve"/>
      <point x="261" y="590"/>
      <point x="260" y="595"/>
      <point x="256" y="602" type="curve" smooth="yes"/>
      <point x="179" y="732" type="line" smooth="yes"/>
      <point x="174" y="740"/>
      <point x="164" y="747"/>
      <point x="153" y="747" type="curve" smooth="yes"/>
      <point x="135" y="747"/>
      <point x="115" y="731"/>
      <point x="111" y="713" type="curve" smooth="yes"/>
      <point x="109" y="703"/>
      <point x="111" y="695"/>
      <point x="117" y="688" type="curve"/>
    </contour>
  </outline>
</glyph>
<glyph name="iacute" format="1">
  <advance width="194"/>
  <unicode hex="00ED"/>
  <outline>
    <contour>
      <point x="176" y="483"/>
      <point x="166" y="496"/>
      <point x="150" y="496" type="curve" smooth="yes"/>
      <point x="134" y="496"/>
      <point x="118" y="483"/>
      <point x="115" y="467" type="curve"/>
      <point x="115" y="467"/>
      <point x="16" y="29"/>
      <point x="16" y="29" type="curve"/>
      <point x="12" y="13"/>
      <point x="23" y="0"/>
      <point x="39" y="0" type="curve" smooth="yes"/>
      <point x="55" y="0"/>
      <point x="70" y="13"/>
      <point x="74" y="29" type="curve"/>
      <point x="74" y="29"/>
      <point x="173" y="467"/>
      <point x="173" y="467" type="curve"/>
    </contour>
    <contour>
      <point x="276" y="666" type="line" smooth="yes"/>
      <point x="284" y="671"/>
      <point x="289" y="680"/>
      <point x="291" y="689" type="curve" smooth="yes"/>
      <point x="295" y="709"/>
      <point x="284" y="725"/>
      <point x="265" y="725" type="curve" smooth="yes"/>
      <point x="254" y="725"/>
      <point x="242" y="717"/>
      <point x="232" y="710" type="curve" smooth="yes"/>
      <point x="85" y="607" type="line" smooth="yes"/>
      <point x="79" y="603"/>
      <point x="76" y="596"/>
      <point x="75" y="590" type="curve" smooth="yes"/>
      <point x="72" y="575"/>
      <point x="81" y="563"/>
      <point x="95" y="563" type="curve" smooth="yes"/>
      <point x="101" y="563"/>
      <point x="110" y="567"/>
      <point x="118" y="572" type="curve" smooth="yes"/>
    </contour>
  </outline>
</glyph>
<glyph name="ograve" format="1">
  <advance width="535"/>
  <unicode hex="00F2"/>
  <outline>
    <contour>
      <point x="323" y="0"/>
      <point x="456" y="123"/>
      <point x="487" y="270" type="curve" smooth="yes"/>
      <point x="513" y="394"/>
      <point x="448" y="500"/>
      <point x="334" y="500" type="curve" smooth="yes"/>
      <point x="208" y="500"/>
      <point x="74" y="376"/>
      <point x="43" y="230" type="curve" smooth="yes"/>
      <point x="17" y="104"/>
      <point x="82" y="0"/>
      <point x="197" y="0" type="curve" smooth="yes"/>
    </contour>
    <contour>
      <point x="402" y="452"/>
      <point x="449" y="365"/>
      <point x="428" y="265" type="curve" smooth="yes"/>
      <point x="403" y="149"/>
      <point x="298" y="48"/>
      <point x="207" y="48" type="curve" smooth="yes"/>
      <point x="120" y="48"/>
      <point x="80" y="133"/>
      <point x="101" y="232" type="curve" smooth="yes"/>
      <point x="126" y="349"/>
      <point x="226" y="452"/>
      <point x="319" y="452" type="curve" smooth="yes"/>
    </contour>
    <contour>
      <point x="399" y="567" type="line" smooth="yes"/>
      <point x="403" y="562"/>
      <point x="408" y="558"/>
      <point x="416" y="558" type="curve" smooth="yes"/>
      <point x="430" y="558"/>
      <point x="446" y="569"/>
      <point x="450" y="584" type="curve"/>
      <point x="451" y="590"/>
      <point x="450" y="595"/>
      <point x="446" y="602" type="curve" smooth="yes"/>
      <point x="369" y="732" type="line" smooth="yes"/>
      <point x="364" y="740"/>
      <point x="354" y="747"/>
      <point x="343" y="747" type="curve" smooth="yes"/>
      <point x="325" y="747"/>
      <point x="305" y="731"/>
      <point x="301" y="713" type="curve" smooth="yes"/>
      <point x="299" y="703"/>
      <point x="301" y="695"/>
      <point x="307" y="688" type="curve"/>
    </contour>
  </outline>
</glyph>
<glyph name="oacute" format="1">
  <advance width="535"/>
  <unicode hex="00F3"/>
  <outline>
    <contour>
      <point x="323" y="0"/>
      <point x="456" y="123"/>
      <point x="487" y="270" type="curve" smooth="yes"/>
      <point x="513" y="394"/>
      <point x="448" y="500"/>
      <point x="334" y="500" type="curve" smooth="yes"/>
      <point x="208" y="500"/>
      <point x="74" y="376"/>
      <point x="43" y="230" type="curve" smooth="yes"/>
      <point x="17" y="104"/>
      <point x="82" y="0"/>
      <point x="197" y="0" type="curve" smooth="yes"/>
    </contour>
    <contour>
      <point x="402" y="452"/>
      <point x="449" y="365"/>
      <point x="428" y="265" type="curve" smooth="yes"/>
      <point x="403" y="149"/>
      <point x="298" y="48"/>
      <point x="207" y="48" type="curve" smooth="yes"/>
      <point x="120" y="48"/>
      <point x="80" y="133"/>
      <point x="101" y="232" type="curve" smooth="yes"/>
      <point x="126" y="349"/>
      <point x="226" y="452"/>
      <point x="319" y="452" type="curve" smooth="yes"/>
    </contour>
    <contour>
      <point x="473" y="666" type="line" smooth="yes"/>
      <point x="481" y="671"/>
      <point x="486" y="680"/>
      <point x="488" y="689" type="curve" smooth="yes"/>
      <point x="492" y="709"/>
      <point x="481" y="725"/>
      <point x="462" y="725" type="curve" smooth="yes"/>
      <point x="451" y="725"/>
      <point x="439" y="717"/>
      <point x="429" y="710" type="curve" smooth="yes"/>
      <point x="282" y="607" type="line" smooth="yes"/>
      <point x="276" y="603"/>
      <point x="273" y="596"/>
      <point x="272" y="590" type="curve" smooth="yes"/>
      <point x="269" y="575"/>
      <point x="278" y="563"/>
      <point x="292" y="563" type="curve" smooth="yes"/>
      <point x="298" y="563"/>
      <point x="307" y="567"/>
      <point x="315" y="572" type="curve" smooth="yes"/>
    </contour>
  </outline>
</glyph>
<glyph name="otilde" format="1">
  <advance width="535"/>
  <unicode hex="00F5"/>
  <outline>
    <contour>
      <point x="323" y="0"/>
      <point x="456" y="123"/>
      <point x="487" y="270" type="curve" smooth="yes"/>
      <point x="513" y="394"/>
      <point x="448" y="500"/>
      <point x="334" y="500" type="curve" smooth="yes"/>
      <point x="208" y="500"/>
      <point x="74" y="376"/>
      <point x="43" y="230" type="curve" smooth="yes"/>
      <point x="17" y="104"/>
      <point x="82" y="0"/>
      <point x="197" y="0" type="curve" smooth="yes"/>
    </contour>
    <contour>
      <point x="402" y="452"/>
      <point x="449" y="365"/>
      <point x="428" y="265" type="curve" smooth="yes"/>
      <point x="403" y="149"/>
      <point x="298" y="48"/>
      <point x="207" y="48" type="curve" smooth="yes"/>
      <point x="120" y="48"/>
      <point x="80" y="133"/>
      <point x="101" y="232" type="curve" smooth="yes"/>
      <point x="126" y="349"/>
      <point x="226" y="452"/>
      <point x="319" y="452" type="curve" smooth="yes"/>
    </contour>
    <contour>
      <point x="503" y="647"/>
      <point x="474" y="598"/>
      <point x="444" y="598" type="curve" smooth="yes"/>
      <point x="427" y="598"/>
      <point x="420" y="620"/>
      <point x="407" y="646" type="curve" smooth="yes"/>
      <point x="393" y="673"/>
      <point x="376" y="706"/>
      <point x="331" y="706" type="curve" smooth="yes"/>
      <point x="294" y="706"/>
      <point x="258" y="685"/>
      <point x="228" y="647" type="curve"/>
      <point x="220" y="636"/>
      <point x="206" y="619"/>
      <point x="203" y="604" type="curve" smooth="yes"/>
      <point x="200" y="590"/>
      <point x="210" y="579"/>
      <point x="224" y="579" type="curve" smooth="yes"/>
      <point x="236" y="579"/>
      <point x="246" y="585"/>
      <point x="253" y="598" type="curve" smooth="yes"/>
      <point x="279" y="647"/>
      <point x="309" y="664"/>
      <point x="322" y="664" type="curve" smooth="yes"/>
      <point x="339" y="664"/>
      <point x="345" y="642"/>
      <point x="358" y="616" type="curve" smooth="yes"/>
      <point x="372" y="588"/>
      <point x="390" y="556"/>
      <point x="435" y="556" type="curve" smooth="yes"/>
      <point x="500" y="556"/>
      <point x="545" y="624"/>
      <point x="563" y="655" type="curve"/>
      <point x="566" y="661"/>
      <point x="568" y="664"/>
      <point x="569" y="669" type="curve"/>
      <point x="571" y="682"/>
      <point x="562" y="693"/>
      <point x="548" y="693" type="curve" smooth="yes"/>
      <point x="538" y="693"/>
      <point x="526" y="686"/>
      <point x="520" y="676" type="curve" smooth="yes"/>
    </contour>
  </outline>
</glyph>
<glyph name="oslash" format="1">
  <advance width="535"/>
  <unicode hex="00F8"/>
  <outline>
    <contour>
      <point x="323" y="0"/>
      <point x="456" y="123"/>
      <point x="487" y="270" type="curve" smooth="yes"/>
      <point x="502" y="342"/>
      <point x="486" y="408"/>
      <point x="448" y="451" type="curve"/>
      <point x="492" y="506" type="line" smooth="yes"/>
      <point x="496" y="511"/>
      <point x="498" y="515"/>
      <point x="499" y="519" type="curve" smooth="yes"/>
      <point x="502" y="533"/>
      <point x="491" y="544"/>
      <point x="478" y="544" type="curve" smooth="yes"/>
      <point x="469" y="544"/>
      <point x="460" y="540"/>
      <point x="454" y="532" type="curve"/>
      <point x="412" y="480" type="line"/>
      <point x="389" y="493"/>
      <point x="363" y="500"/>
      <point x="334" y="500" type="curve" smooth="yes"/>
      <point x="208" y="500"/>
      <point x="74" y="376"/>
      <point x="43" y="230" type="curve" smooth="yes"/>
      <point x="29" y="161"/>
      <point x="42" y="99"/>
      <point x="74" y="56" type="curve"/>
      <point x="32" y="4" type="line"/>
      <point x="30" y="0"/>
      <point x="28" y="-3"/>
      <point x="27" y="-7" type="curve" smooth="yes"/>
      <point x="23" y="-22"/>
      <point x="32" y="-35"/>
      <point x="46" y="-35" type="curve" smooth="yes"/>
      <point x="55" y="-35"/>
      <point x="64" y="-30"/>
      <point x="71" y="-22" type="curve"/>
      <point x="108" y="25" type="line"/>
      <point x="132" y="9"/>
      <point x="163" y="0"/>
      <point x="197" y="0" type="curve" smooth="yes"/>
    </contour>
    <contour>
      <point x="181" y="48"/>
      <point x="159" y="55"/>
      <point x="142" y="68" type="curve"/>
      <point x="409" y="402" type="line"/>
      <point x="431" y="367"/>
      <point x="439" y="318"/>
      <point x="428" y="265" type="curve" smooth="yes"/>
      <point x="403" y="149"/>
      <point x="298" y="48"/>
      <point x="207" y="48" type="curve" smooth="yes"/>
    </contour>
    <contour>
      <point x="341" y="452"/>
      <point x="360" y="446"/>
      <point x="376" y="435" type="curve"/>
      <point x="113" y="104" type="line"/>
      <point x="95" y="138"/>
      <point x="90" y="183"/>
      <point x="101" y="232" type="curve" smooth="yes"/>
      <point x="126" y="349"/>
      <point x="226" y="452"/>
      <point x="319" y="452" type="curve" smooth="yes"/>
    </contour>
  </outline>
</glyph>
<glyph name="ugrave" format="1">
  <advance width="512"/>
  <unicode hex="00F9"/>
  <outline>
    <contour>
      <point x="492" y="475" type="line"/>
      <point x="496" y="490"/>
      <point x="486" y="500"/>
      <point x="472" y="500" type="curve" smooth="yes"/>
      <point x="458" y="500"/>
      <point x="444" y="490"/>
      <point x="440" y="475" type="curve"/>
      <point x="369" y="161" type="line"/>
      <point x="369" y="161"/>
      <point x="363" y="133"/>
      <point x="347" y="118" type="curve" smooth="yes"/>
      <point x="320" y="94"/>
      <point x="240" y="46"/>
      <point x="171" y="46" type="curve" smooth="yes"/>
      <point x="72" y="46"/>
      <point x="101" y="170"/>
      <point x="127" y="292" type="curve" smooth="yes"/>
      <point x="146" y="384"/>
      <point x="171" y="450"/>
      <point x="178" y="474" type="curve" smooth="yes"/>
      <point x="182" y="489"/>
      <point x="171" y="500"/>
      <point x="156" y="500" type="curve" smooth="yes"/>
      <point x="142" y="500"/>
      <point x="132" y="495"/>
      <point x="122" y="466" type="curve" smooth="yes"/>
      <point x="108" y="428"/>
      <point x="88" y="368"/>
      <point x="72" y="291" type="curve" smooth="yes"/>
      <point x="42" y="143"/>
      <point x="9" y="-3"/>
      <point x="161" y="-3" type="curve" smooth="yes"/>
      <point x="238" y="-3"/>
      <point x="314" y="40"/>
      <point x="347" y="76" type="curve"/>
      <point x="338" y="33" type="line" smooth="yes"/>
      <point x="334" y="15"/>
      <point x="343" y="0"/>
      <point x="362" y="0" type="curve" smooth="yes"/>
      <point x="378" y="0"/>
      <point x="394" y="13"/>
      <point x="397" y="28" type="curve" smooth="yes"/>
    </contour>
    <contour>
      <point x="372" y="563" type="line" smooth="yes"/>
      <point x="376" y="558"/>
      <point x="381" y="554"/>
      <point x="389" y="554" type="curve" smooth="yes"/>
      <point x="403" y="554"/>
      <point x="420" y="565"/>
      <point x="423" y="580" type="curve" smooth="yes"/>
      <point x="424" y="586"/>
      <point x="423" y="591"/>
      <point x="420" y="598" type="curve"/>
      <point x="342" y="728" type="line" smooth="yes"/>
      <point x="337" y="736"/>
      <point x="327" y="743"/>
      <point x="316" y="743" type="curve" smooth="yes"/>
      <point x="298" y="743"/>
      <point x="278" y="727"/>
      <point x="274" y="709" type="curve" smooth="yes"/>
      <point x="272" y="699"/>
      <point x="274" y="691"/>
      <point x="280" y="684" type="curve"/>
    </contour>
  </outline>
</glyph>
<glyph name="uacute" format="1">
  <advance width="512"/>
  <unicode hex="00FA"/>
  <outline>
    <contour>
      <point x="492" y="475" type="line"/>
      <point x="496" y="490"/>
      <point x="486" y="500"/>
      <point x="472" y="500" type="curve" smooth="yes"/>
      <point x="458" y="500"/>
      <point x="444" y="490"/>
      <point x="440" y="475" type="curve"/>
      <point x="369" y="161" type="line"/>
      <point x="369" y="161"/>
      <point x="363" y="133"/>
      <point x="347" y="118" type="curve" smooth="yes"/>
      <point x="320" y="94"/>
      <point x="240" y="46"/>
      <point x="171" y="46" type="curve" smooth="yes"/>
      <point x="72" y="46"/>
      <point x="101" y="170"/>
      <point x="127" y="292" type="curve" smooth="yes"/>
      <point x="146" y="384"/>
      <point x="171" y="450"/>
      <point x="178" y="474" type="curve" smooth="yes"/>
      <point x="182" y="489"/>
      <point x="171" y="500"/>
      <point x="156" y="500" type="curve" smooth="yes"/>
      <point x="142" y="500"/>
      <point x="132" y="495"/>
      <point x="122" y="466" type="curve" smooth="yes"/>
      <point x="108" y="428"/>
      <point x="88" y="368"/>
      <point x="72" y="291" type="curve" smooth="yes"/>
      <point x="42" y="143"/>
      <point x="9" y="-3"/>
      <point x="161" y="-3" type="curve" smooth="yes"/>
      <point x="238" y="-3"/>
      <point x="314" y="40"/>
      <point x="347" y="76" type="curve"/>
      <point x="338" y="33" type="line" smooth="yes"/>
      <point x="334" y="15"/>
      <point x="343" y="0"/>
      <point x="362" y="0" type="curve" smooth="yes"/>
      <point x="378" y="0"/>
      <point x="394" y="13"/>
      <point x="397" y="28" type="curve" smooth="yes"/>
    </contour>
    <contour>
      <point x="471" y="663" type="line" smooth="yes"/>
      <point x="479" y="668"/>
      <point x="484" y="677"/>
      <point x="486" y="686" type="curve" smooth="yes"/>
      <point x="491" y="706"/>
      <point x="479" y="722"/>
      <point x="460" y="722" type="curve" smooth="yes"/>
      <point x="449" y="722"/>
      <point x="437" y="714"/>
      <point x="428" y="707" type="curve"/>
      <point x="280" y="604" type="line" smooth="yes"/>
      <point x="274" y="600"/>
      <point x="272" y="593"/>
      <point x="270" y="587" type="curve"/>
      <point x="267" y="572"/>
      <point x="277" y="560"/>
      <point x="291" y="560" type="curve" smooth="yes"/>
      <point x="297" y="560"/>
      <point x="305" y="564"/>
      <point x="313" y="569" type="curve" smooth="yes"/>
    </contour>
  </outline>
</glyph>
<glyph name="ucircumflex" format="1">
  <advance width="512"/>
  <unicode hex="00FB"/>
  <outline>
    <contour>
      <point x="492" y="475" type="line"/>
      <point x="496" y="490"/>
      <point x="486" y="500"/>
      <point x="472" y="500" type="curve" smooth="yes"/>
      <point x="458" y="500"/>
      <point x="444" y="490"/>
      <point x="440" y="475" type="curve"/>
      <point x="369" y="161" type="line"/>
      <point x="369" y="161"/>
      <point x="363" y="133"/>
      <point x="347" y="118" type="curve" smooth="yes"/>
      <point x="320" y="94"/>
      <point x="240" y="46"/>
      <point x="171" y="46" type="curve" smooth="yes"/>
      <point x="72" y="46"/>
      <point x="101" y="170"/>
      <point x="127" y="292" type="curve" smooth="yes"/>
      <point x="146" y="384"/>
      <point x="171" y="450"/>
      <point x="178" y="474" type="curve" smooth="yes"/>
      <point x="182" y="489"/>
      <point x="171" y="500"/>
      <point x="156" y="500" type="curve" smooth="yes"/>
      <point x="142" y="500"/>
      <point x="132" y="495"/>
      <point x="122" y="466" type="curve" smooth="yes"/>
      <point x="108" y="428"/>
      <point x="88" y="368"/>
      <point x="72" y="291" type="curve" smooth="yes"/>
      <point x="42" y="143"/>
      <point x="9" y="-3"/>
      <point x="161" y="-3" type="curve" smooth="yes"/>
      <point x="238" y="-3"/>
      <point x="314" y="40"/>
      <point x="347" y="76" type="curve"/>
      <point x="338" y="33" type="line" smooth="yes"/>
      <point x="334" y="15"/>
      <point x="343" y="0"/>
      <point x="362" y="0" type="curve" smooth="yes"/>
      <point x="378" y="0"/>
      <point x="394" y="13"/>
      <point x="397" y="28" type="curve" smooth="yes"/>
    </contour>
    <contour>
      <point x="414" y="726" type="line"/>
      <point x="409" y="731"/>
      <point x="403" y="734"/>
      <point x="396" y="734" type="curve" smooth="yes"/>
      <point x="390" y="734"/>
      <point x="382" y="732"/>
      <point x="375" y="727" type="curve" smooth="yes"/>
      <point x="221" y="617" type="line"/>
      <point x="213" y="612"/>
      <point x="208" y="604"/>
      <point x="206" y="596" type="curve"/>
      <point x="203" y="581"/>
      <point x="213" y="570"/>
      <point x="227" y="570" type="curve" smooth="yes"/>
      <point x="233" y="570"/>
      <point x="239" y="571"/>
      <point x="245" y="575" type="curve" smooth="yes"/>
      <point x="379" y="664" type="line"/>
      <point x="456" y="577" type="line"/>
      <point x="460" y="572"/>
      <point x="467" y="570"/>
      <point x="474" y="570" type="curve" smooth="yes"/>
      <point x="488" y="570"/>
      <point x="502" y="582"/>
      <point x="505" y="596" type="curve" smooth="yes"/>
      <point x="507" y="604"/>
      <point x="505" y="611"/>
      <point x="500" y="616" type="curve"/>
    </contour>
  </outline>
</glyph>
<glyph name="thorn" format="1">
  <advance width="520"/>
  <unicode hex="00FE"/>
  <outline>
    <contour>
      <point x="269" y="490"/>
      <point x="204" y="459"/>
      <point x="155" y="421" type="curve"/>
      <point x="206" y="660" type="line" smooth="yes"/>
      <point x="209" y="676"/>
      <point x="200" y="689"/>
      <point x="184" y="689" type="curve" smooth="yes"/>
      <point x="168" y="689"/>
      <point x="153" y="676"/>
      <point x="150" y="660" type="curve" smooth="yes"/>
      <point x="-26" y="-167" type="line" smooth="yes"/>
      <point x="-29" y="-182"/>
      <point x="-19" y="-195"/>
      <point x="-4" y="-195" type="curve" smooth="yes"/>
      <point x="11" y="-195"/>
      <point x="27" y="-182"/>
      <point x="30" y="-167" type="curve" smooth="yes"/>
      <point x="73" y="36" type="line"/>
      <point x="102" y="24"/>
      <point x="145" y="8"/>
      <point x="197" y="8" type="curve" smooth="yes"/>
      <point x="373" y="8"/>
      <point x="448" y="157"/>
      <point x="472" y="271" type="curve" smooth="yes"/>
      <point x="494" y="376"/>
      <point x="468" y="485"/>
      <point x="358" y="490" type="curve"/>
    </contour>
    <contour>
      <point x="156" y="65"/>
      <point x="104" y="90"/>
      <point x="87" y="99" type="curve"/>
      <point x="141" y="353" type="line"/>
      <point x="163" y="378"/>
      <point x="234" y="441"/>
      <point x="339" y="441" type="curve" smooth="yes"/>
      <point x="433" y="441"/>
      <point x="435" y="333"/>
      <point x="422" y="271" type="curve" smooth="yes"/>
      <point x="397" y="151"/>
      <point x="337" y="65"/>
      <point x="215" y="65" type="curve" smooth="yes"/>
    </contour>
  </outline>
</glyph>
<glyph name="Cacute" format="1">
  <advance width="632"/>
  <unicode hex="0106"/>
  <outline>
    <contour>
      <point x="523" y="161"/>
      <point x="515" y="159"/>
      <point x="506" y="150" type="curve" smooth="yes"/>
      <point x="439" y="81"/>
      <point x="366" y="55"/>
      <point x="294" y="55" type="curve" smooth="yes"/>
      <point x="204" y="55"/>
      <point x="78" y="124"/>
      <point x="114" y="296" type="curve" smooth="yes"/>
      <point x="149" y="460"/>
      <point x="312" y="627"/>
      <point x="424" y="627" type="curve" smooth="yes"/>
      <point x="509" y="627"/>
      <point x="539" y="593"/>
      <point x="554" y="572" type="curve"/>
      <point x="553" y="567" type="line" smooth="yes"/>
      <point x="550" y="551"/>
      <point x="560" y="538"/>
      <point x="576" y="538" type="curve" smooth="yes"/>
      <point x="592" y="538"/>
      <point x="607" y="551"/>
      <point x="610" y="567" type="curve" smooth="yes"/>
      <point x="624" y="631" type="line" smooth="yes"/>
      <point x="627" y="647"/>
      <point x="618" y="659"/>
      <point x="602" y="659" type="curve" smooth="yes"/>
      <point x="591" y="659"/>
      <point x="579" y="653"/>
      <point x="573" y="644" type="curve"/>
      <point x="547" y="664"/>
      <point x="505" y="684"/>
      <point x="436" y="684" type="curve" smooth="yes"/>
      <point x="298" y="684"/>
      <point x="101" y="500"/>
      <point x="57" y="296" type="curve" smooth="yes"/>
      <point x="21" y="126"/>
      <point x="125" y="-2"/>
      <point x="282" y="-2" type="curve" smooth="yes"/>
      <point x="378" y="-2"/>
      <point x="472" y="40"/>
      <point x="545" y="116" type="curve" smooth="yes"/>
      <point x="550" y="121"/>
      <point x="552" y="127"/>
      <point x="554" y="133" type="curve"/>
      <point x="558" y="151"/>
      <point x="546" y="161"/>
      <point x="531" y="161" type="curve" smooth="yes"/>
    </contour>
    <contour>
      <point x="561" y="853" type="line" smooth="yes"/>
      <point x="569" y="858"/>
      <point x="574" y="867"/>
      <point x="576" y="876" type="curve" smooth="yes"/>
      <point x="580" y="896"/>
      <point x="568" y="912"/>
      <point x="549" y="912" type="curve" smooth="yes"/>
      <point x="538" y="912"/>
      <point x="527" y="904"/>
      <point x="517" y="897" type="curve" smooth="yes"/>
      <point x="369" y="794" type="line" smooth="yes"/>
      <point x="363" y="790"/>
      <point x="361" y="783"/>
      <point x="360" y="777" type="curve"/>
      <point x="356" y="762"/>
      <point x="366" y="750"/>
      <point x="380" y="750" type="curve" smooth="yes"/>
      <point x="386" y="750"/>
      <point x="395" y="754"/>
      <point x="403" y="759" type="curve" smooth="yes"/>
    </contour>
  </outline>
</glyph>
<glyph name="Ccaron" format="1">
  <advance width="632"/>
  <unicode hex="010C"/>
  <outline>
    <contour>
      <point x="523" y="161"/>
      <point x="515" y="159"/>
      <point x="506" y="150" type="curve" smooth="yes"/>
      <point x="439" y="81"/>
      <point x="366" y="55"/>
      <point x="294" y="55" type="curve" smooth="yes"/>
      <point x="204" y="55"/>
      <point x="78" y="124"/>
      <point x="114" y="296" type="curve" smooth="yes"/>
      <point x="149" y="460"/>
      <point x="312" y="627"/>
      <point x="424" y="627" type="curve" smooth="yes"/>
      <point x="509" y="627"/>
      <point x="539" y="593"/>
      <point x="554" y="572" type="curve"/>
      <point x="553" y="567" type="line" smooth="yes"/>
      <point x="550" y="551"/>
      <point x="560" y="538"/>
      <point x="576" y="538" type="curve" smooth="yes"/>
      <point x="592" y="538"/>
      <point x="607" y="551"/>
      <point x="610" y="567" type="curve" smooth="yes"/>
      <point x="624" y="631" type="line" smooth="yes"/>
      <point x="627" y="647"/>
      <point x="618" y="659"/>
      <point x="602" y="659" type="curve" smooth="yes"/>
      <point x="591" y="659"/>
      <point x="579" y="653"/>
      <point x="573" y="644" type="curve"/>
      <point x="547" y="664"/>
      <point x="505" y="684"/>
      <point x="436" y="684" type="curve" smooth="yes"/>
      <point x="298" y="684"/>
      <point x="101" y="500"/>
      <point x="57" y="296" type="curve" smooth="yes"/>
      <point x="21" y="126"/>
      <point x="125" y="-2"/>
      <point x="282" y="-2" type="curve" smooth="yes"/>
      <point x="378" y="-2"/>
      <point x="472" y="40"/>
      <point x="545" y="116" type="curve" smooth="yes"/>
      <point x="550" y="121"/>
      <point x="552" y="127"/>
      <point x="554" y="133" type="curve"/>
      <point x="558" y="151"/>
      <point x="546" y="161"/>
      <point x="531" y="161" type="curve" smooth="yes"/>
    </contour>
    <contour>
      <point x="431" y="730" type="line"/>
      <point x="436" y="725"/>
      <point x="442" y="722"/>
      <point x="449" y="722" type="curve" smooth="yes"/>
      <point x="455" y="722"/>
      <point x="462" y="724"/>
      <point x="469" y="729" type="curve" smooth="yes"/>
      <point x="624" y="839" type="line"/>
      <point x="632" y="844"/>
      <point x="637" y="852"/>
      <point x="638" y="860" type="curve"/>
      <point x="641" y="875"/>
      <point x="632" y="886"/>
      <point x="618" y="886" type="curve" smooth="yes"/>
      <point x="612" y="886"/>
      <point x="606" y="885"/>
      <point x="600" y="881" type="curve" smooth="yes"/>
      <point x="466" y="792" type="line"/>
      <point x="388" y="879" type="line"/>
      <point x="384" y="884"/>
      <point x="378" y="886"/>
      <point x="371" y="886" type="curve" smooth="yes"/>
      <point x="357" y="886"/>
      <point x="342" y="874"/>
      <point x="339" y="860" type="curve"/>
      <point x="338" y="852"/>
      <point x="339" y="845"/>
      <point x="344" y="840" type="curve"/>
    </contour>
  </outline>
</glyph>
<glyph name="Dcaron" format="1">
  <advance width="620"/>
  <unicode hex="010E"/>
  <outline>
    <contour>
      <point x="343" y="-20"/>
      <point x="521" y="77"/>
      <point x="568" y="300" type="curve" smooth="yes"/>
      <point x="638" y="626"/>
      <point x="346" y="681"/>
      <point x="183" y="681" type="curve" smooth="yes"/>
      <point x="167" y="681"/>
      <point x="152" y="669"/>
      <point x="148" y="653" type="curve"/>
      <point x="15" y="25" type="line" smooth="yes"/>
      <point x="12" y="12"/>
      <point x="19" y="0"/>
      <point x="31" y="-3" type="curve" smooth="yes"/>
      <point x="38" y="-5"/>
      <point x="91" y="-20"/>
      <point x="150" y="-20" type="curve" smooth="yes"/>
    </contour>
    <contour>
      <point x="199" y="624" type="line"/>
      <point x="400" y="615"/>
      <point x="561" y="532"/>
      <point x="511" y="300" type="curve" smooth="yes"/>
      <point x="474" y="123"/>
      <point x="340" y="37"/>
      <point x="162" y="37" type="curve" smooth="yes"/>
      <point x="130" y="37"/>
      <point x="98" y="43"/>
      <point x="77" y="48" type="curve"/>
    </contour>
    <contour>
      <point x="345" y="730" type="line"/>
      <point x="350" y="725"/>
      <point x="356" y="722"/>
      <point x="363" y="722" type="curve" smooth="yes"/>
      <point x="369" y="722"/>
      <point x="376" y="724"/>
      <point x="383" y="729" type="curve" smooth="yes"/>
      <point x="538" y="839" type="line"/>
      <point x="546" y="844"/>
      <point x="551" y="852"/>
      <point x="552" y="860" type="curve"/>
      <point x="555" y="875"/>
      <point x="546" y="886"/>
      <point x="532" y="886" type="curve" smooth="yes"/>
      <point x="526" y="886"/>
      <point x="520" y="885"/>
      <point x="514" y="881" type="curve" smooth="yes"/>
      <point x="380" y="792" type="line"/>
      <point x="302" y="879" type="line"/>
      <point x="298" y="884"/>
      <point x="292" y="886"/>
      <point x="285" y="886" type="curve" smooth="yes"/>
      <point x="271" y="886"/>
      <point x="256" y="874"/>
      <point x="253" y="860" type="curve"/>
      <point x="252" y="852"/>
      <point x="253" y="845"/>
      <point x="258" y="840" type="curve"/>
    </contour>
  </outline>
</glyph>
<glyph name="dcroat" format="1">
  <advance width="557"/>
  <unicode hex="0111"/>
  <outline>
    <contour>
      <point x="551" y="667" type="line" smooth="yes"/>
      <point x="555" y="683"/>
      <point x="545" y="697"/>
      <point x="530" y="697" type="curve" smooth="yes"/>
      <point x="514" y="697"/>
      <point x="498" y="684"/>
      <point x="494" y="668" type="curve" smooth="yes"/>
      <point x="479" y="603" type="line"/>
      <point x="406" y="603" type="line" smooth="yes"/>
      <point x="392" y="603"/>
      <point x="377" y="592"/>
      <point x="374" y="578" type="curve" smooth="yes"/>
      <point x="371" y="564"/>
      <point x="381" y="552"/>
      <point x="395" y="552" type="curve" smooth="yes"/>
      <point x="467" y="552" type="line"/>
      <point x="447" y="467" type="line"/>
      <point x="417" y="482"/>
      <point x="371" y="498"/>
      <point x="315" y="498" type="curve" smooth="yes"/>
      <point x="160" y="498"/>
      <point x="74" y="368"/>
      <point x="44" y="226" type="curve" smooth="yes"/>
      <point x="20" y="116"/>
      <point x="50" y="4"/>
      <point x="168" y="4" type="curve" smooth="yes"/>
      <point x="247" y="4"/>
      <point x="313" y="46"/>
      <point x="356" y="79" type="curve"/>
      <point x="345" y="34" type="line"/>
      <point x="340" y="17"/>
      <point x="347" y="0"/>
      <point x="366" y="0" type="curve" smooth="yes"/>
      <point x="382" y="0"/>
      <point x="397" y="11"/>
      <point x="400" y="27" type="curve"/>
      <point x="524" y="552" type="line"/>
      <point x="591" y="552" type="line" smooth="yes"/>
      <point x="605" y="552"/>
      <point x="618" y="564"/>
      <point x="621" y="578" type="curve" smooth="yes"/>
      <point x="624" y="592"/>
      <point x="616" y="603"/>
      <point x="602" y="603" type="curve" smooth="yes"/>
      <point x="536" y="603" type="line"/>
    </contour>
    <contour>
      <point x="118" y="316"/>
      <point x="170" y="444"/>
      <point x="306" y="444" type="curve" smooth="yes"/>
      <point x="365" y="444"/>
      <point x="416" y="416"/>
      <point x="433" y="406" type="curve"/>
      <point x="376" y="161" type="line" smooth="yes"/>
      <point x="368" y="130"/>
      <point x="283" y="53"/>
      <point x="179" y="53" type="curve" smooth="yes"/>
      <point x="87" y="53"/>
      <point x="84" y="156"/>
      <point x="99" y="229" type="curve" smooth="yes"/>
    </contour>
  </outline>
</glyph>
<glyph name="Ecaron" format="1">
  <advance width="610"/>
  <unicode hex="011A"/>
  <outline>
    <contour>
      <point x="381" y="730" type="line"/>
      <point x="386" y="725"/>
      <point x="392" y="722"/>
      <point x="399" y="722" type="curve" smooth="yes"/>
      <point x="405" y="722"/>
      <point x="412" y="724"/>
      <point x="419" y="729" type="curve" smooth="yes"/>
      <point x="574" y="839" type="line"/>
      <point x="582" y="844"/>
      <point x="587" y="852"/>
      <point x="588" y="860" type="curve"/>
      <point x="591" y="875"/>
      <point x="582" y="886"/>
      <point x="568" y="886" type="curve" smooth="yes"/>
      <point x="562" y="886"/>
      <point x="556" y="885"/>
      <point x="550" y="881" type="curve" smooth="yes"/>
      <point x="416" y="792" type="line"/>
      <point x="338" y="879" type="line"/>
      <point x="334" y="884"/>
      <point x="328" y="886"/>
      <point x="321" y="886" type="curve" smooth="yes"/>
      <point x="307" y="886"/>
      <point x="292" y="874"/>
      <point x="289" y="860" type="curve"/>
      <point x="288" y="852"/>
      <point x="289" y="845"/>
      <point x="294" y="840" type="curve"/>
    </contour>
    <contour>
      <point x="79" y="57" type="line"/>
      <point x="135" y="324" type="line"/>
      <point x="486" y="324" type="line" smooth="yes"/>
      <point x="502" y="324"/>
      <point x="517" y="337"/>
      <point x="521" y="353" type="curve"/>
      <point x="524" y="369"/>
      <point x="514" y="381"/>
      <point x="498" y="381" type="curve" smooth="yes"/>
      <point x="147" y="381" type="line"/>
      <point x="199" y="625" type="line"/>
      <point x="599" y="625" type="line" smooth="yes"/>
      <point x="615" y="625"/>
      <point x="630" y="638"/>
      <point x="634" y="654" type="curve"/>
      <point x="637" y="670"/>
      <point x="627" y="682"/>
      <point x="611" y="682" type="curve" smooth="yes"/>
      <point x="183" y="682" type="line" smooth="yes"/>
      <point x="167" y="682"/>
      <point x="152" y="670"/>
      <point x="149" y="654" type="curve" smooth="yes"/>
      <point x="16" y="29" type="line"/>
      <point x="12" y="13"/>
      <point x="23" y="0"/>
      <point x="39" y="0" type="curve" smooth="yes"/>
      <point x="465" y="0" type="line" smooth="yes"/>
      <point x="481" y="0"/>
      <point x="495" y="13"/>
      <point x="499" y="29" type="curve"/>
      <point x="502" y="45"/>
      <point x="493" y="57"/>
      <point x="477" y="57" type="curve" smooth="yes"/>
    </contour>
  </outline>
</glyph>
<glyph name="lacute" format="1">
  <advance width="226"/>
  <unicode hex="013A"/>
  <outline>
    <contour>
      <point x="226" y="663" type="line"/>
      <point x="230" y="678"/>
      <point x="219" y="690"/>
      <point x="204" y="690" type="curve" smooth="yes"/>
      <point x="188" y="690"/>
      <point x="174" y="678"/>
      <point x="170" y="663" type="curve"/>
      <point x="35" y="25" type="line" smooth="yes"/>
      <point x="32" y="11"/>
      <point x="44" y="0"/>
      <point x="58" y="0" type="curve" smooth="yes"/>
      <point x="72" y="0"/>
      <point x="88" y="11"/>
      <point x="91" y="25" type="curve" smooth="yes"/>
    </contour>
    <contour>
      <point x="330" y="824" type="line" smooth="yes"/>
      <point x="338" y="829"/>
      <point x="343" y="838"/>
      <point x="345" y="847" type="curve" smooth="yes"/>
      <point x="349" y="867"/>
      <point x="337" y="883"/>
      <point x="318" y="883" type="curve" smooth="yes"/>
      <point x="307" y="883"/>
      <point x="295" y="875"/>
      <point x="286" y="868" type="curve"/>
      <point x="138" y="765" type="line" smooth="yes"/>
      <point x="132" y="761"/>
      <point x="130" y="754"/>
      <point x="128" y="748" type="curve"/>
      <point x="125" y="733"/>
      <point x="135" y="721"/>
      <point x="149" y="721" type="curve" smooth="yes"/>
      <point x="155" y="721"/>
      <point x="164" y="725"/>
      <point x="172" y="730" type="curve" smooth="yes"/>
    </contour>
  </outline>
</glyph>
<glyph name="Lcaron" format="1">
  <advance width="477"/>
  <unicode hex="013D"/>
  <outline>
    <contour>
      <point x="390" y="24" type="line" smooth="yes"/>
      <point x="405" y="25"/>
      <point x="419" y="38"/>
      <point x="422" y="52" type="curve"/>
      <point x="425" y="70"/>
      <point x="415" y="81"/>
      <point x="398" y="80" type="curve" smooth="yes"/>
      <point x="78" y="58" type="line"/>
      <point x="204" y="653" type="line" smooth="yes"/>
      <point x="207" y="668"/>
      <point x="197" y="681"/>
      <point x="182" y="681" type="curve" smooth="yes"/>
      <point x="166" y="681"/>
      <point x="151" y="668"/>
      <point x="148" y="653" type="curve" smooth="yes"/>
      <point x="15" y="28" type="line" smooth="yes"/>
      <point x="12" y="13"/>
      <point x="23" y="-1"/>
      <point x="39" y="0" type="curve" smooth="yes"/>
    </contour>
    <contour>
      <point x="229" y="730" type="line"/>
      <point x="234" y="725"/>
      <point x="240" y="722"/>
      <point x="247" y="722" type="curve" smooth="yes"/>
      <point x="253" y="722"/>
      <point x="260" y="724"/>
      <point x="267" y="729" type="curve" smooth="yes"/>
      <point x="422" y="839" type="line"/>
      <point x="430" y="844"/>
      <point x="435" y="852"/>
      <point x="436" y="860" type="curve"/>
      <point x="439" y="875"/>
      <point x="430" y="886"/>
      <point x="416" y="886" type="curve" smooth="yes"/>
      <point x="410" y="886"/>
      <point x="404" y="885"/>
      <point x="398" y="881" type="curve" smooth="yes"/>
      <point x="264" y="792" type="line"/>
      <point x="186" y="879" type="line"/>
      <point x="182" y="884"/>
      <point x="176" y="886"/>
      <point x="169" y="886" type="curve" smooth="yes"/>
      <point x="155" y="886"/>
      <point x="140" y="874"/>
      <point x="137" y="860" type="curve"/>
      <point x="136" y="852"/>
      <point x="137" y="845"/>
      <point x="142" y="840" type="curve"/>
    </contour>
  </outline>
</glyph>
<glyph name="Lslash" format="1">
  <advance width="528"/>
  <unicode hex="0141"/>
  <outline>
    <contour>
      <point x="476" y="71"/>
      <point x="465" y="81"/>
      <point x="449" y="80" type="curve" smooth="yes"/>
      <point x="129" y="58" type="line"/>
      <point x="187" y="330" type="line"/>
      <point x="285" y="385" type="line" smooth="yes"/>
      <point x="294" y="390"/>
      <point x="301" y="399"/>
      <point x="303" y="408" type="curve" smooth="yes"/>
      <point x="307" y="425"/>
      <point x="295" y="437"/>
      <point x="280" y="437" type="curve" smooth="yes"/>
      <point x="275" y="437"/>
      <point x="269" y="436"/>
      <point x="265" y="433" type="curve"/>
      <point x="201" y="397" type="line"/>
      <point x="255" y="653" type="line" smooth="yes"/>
      <point x="258" y="668"/>
      <point x="248" y="681"/>
      <point x="233" y="681" type="curve" smooth="yes"/>
      <point x="217" y="681"/>
      <point x="202" y="668"/>
      <point x="199" y="653" type="curve" smooth="yes"/>
      <point x="137" y="362" type="line"/>
      <point x="40" y="307" type="line" smooth="yes"/>
      <point x="29" y="301"/>
      <point x="24" y="292"/>
      <point x="21" y="282" type="curve"/>
      <point x="18" y="264"/>
      <point x="31" y="255"/>
      <point x="44" y="255" type="curve" smooth="yes"/>
      <point x="50" y="255"/>
      <point x="55" y="256"/>
      <point x="61" y="259" type="curve"/>
      <point x="123" y="295" type="line"/>
      <point x="66" y="28" type="line" smooth="yes"/>
      <point x="63" y="13"/>
      <point x="73" y="-1"/>
      <point x="89" y="0" type="curve" smooth="yes"/>
      <point x="441" y="24" type="line" smooth="yes"/>
      <point x="458" y="25"/>
      <point x="470" y="39"/>
      <point x="473" y="54" type="curve" smooth="yes"/>
    </contour>
  </outline>
</glyph>
<glyph name="nacute" format="1">
  <advance width="535"/>
  <unicode hex="0144"/>
  <outline>
    <contour>
      <point x="166" y="473" type="line" smooth="yes"/>
      <point x="169" y="488"/>
      <point x="159" y="500"/>
      <point x="144" y="500" type="curve" smooth="yes"/>
      <point x="129" y="500"/>
      <point x="113" y="488"/>
      <point x="110" y="473" type="curve" smooth="yes"/>
      <point x="15" y="26" type="line" smooth="yes"/>
      <point x="12" y="12"/>
      <point x="23" y="0"/>
      <point x="38" y="0" type="curve" smooth="yes"/>
      <point x="55" y="0"/>
      <point x="67" y="13"/>
      <point x="71" y="30" type="curve" smooth="yes"/>
      <point x="89" y="111" type="line" smooth="yes"/>
      <point x="105" y="181"/>
      <point x="142" y="264"/>
      <point x="189" y="326" type="curve" smooth="yes"/>
      <point x="263" y="424"/>
      <point x="320" y="445"/>
      <point x="364" y="445" type="curve" smooth="yes"/>
      <point x="469" y="445"/>
      <point x="420" y="305"/>
      <point x="366" y="28" type="curve" smooth="yes"/>
      <point x="363" y="13"/>
      <point x="373" y="0"/>
      <point x="388" y="0" type="curve" smooth="yes"/>
      <point x="404" y="0"/>
      <point x="416" y="13"/>
      <point x="420" y="29" type="curve" smooth="yes"/>
      <point x="492" y="351"/>
      <point x="523" y="499"/>
      <point x="379" y="499" type="curve" smooth="yes"/>
      <point x="273" y="499"/>
      <point x="172" y="406"/>
      <point x="128" y="292" type="curve"/>
    </contour>
    <contour>
      <point x="492" y="666" type="line" smooth="yes"/>
      <point x="500" y="671"/>
      <point x="505" y="680"/>
      <point x="507" y="689" type="curve" smooth="yes"/>
      <point x="511" y="709"/>
      <point x="500" y="725"/>
      <point x="481" y="725" type="curve" smooth="yes"/>
      <point x="470" y="725"/>
      <point x="458" y="717"/>
      <point x="448" y="710" type="curve" smooth="yes"/>
      <point x="301" y="607" type="line" smooth="yes"/>
      <point x="295" y="603"/>
      <point x="292" y="596"/>
      <point x="291" y="590" type="curve" smooth="yes"/>
      <point x="288" y="575"/>
      <point x="297" y="563"/>
      <point x="311" y="563" type="curve" smooth="yes"/>
      <point x="317" y="563"/>
      <point x="326" y="567"/>
      <point x="334" y="572" type="curve" smooth="yes"/>
    </contour>
  </outline>
</glyph>
<glyph name="Ncaron" format="1">
  <advance width="619"/>
  <unicode hex="0147"/>
  <outline>
    <contour>
      <point x="487" y="0"/>
      <point x="501" y="13"/>
      <point x="504" y="28" type="curve" smooth="yes"/>
      <point x="638" y="654" type="line" smooth="yes"/>
      <point x="641" y="669"/>
      <point x="630" y="682"/>
      <point x="615" y="682" type="curve" smooth="yes"/>
      <point x="599" y="682"/>
      <point x="585" y="669"/>
      <point x="582" y="654" type="curve" smooth="yes"/>
      <point x="467" y="117" type="line"/>
      <point x="204" y="669" type="line"/>
      <point x="199" y="677"/>
      <point x="191" y="681"/>
      <point x="182" y="681" type="curve" smooth="yes"/>
      <point x="166" y="681"/>
      <point x="152" y="667"/>
      <point x="149" y="653" type="curve" smooth="yes"/>
      <point x="15" y="28" type="line" smooth="yes"/>
      <point x="12" y="13"/>
      <point x="23" y="0"/>
      <point x="38" y="0" type="curve" smooth="yes"/>
      <point x="54" y="0"/>
      <point x="68" y="12"/>
      <point x="71" y="28" type="curve" smooth="yes"/>
      <point x="186" y="563" type="line"/>
      <point x="450" y="12" type="line"/>
      <point x="453" y="4"/>
      <point x="462" y="0"/>
      <point x="471" y="0" type="curve" smooth="yes"/>
    </contour>
    <contour>
      <point x="388" y="730" type="line"/>
      <point x="393" y="725"/>
      <point x="399" y="722"/>
      <point x="406" y="722" type="curve" smooth="yes"/>
      <point x="412" y="722"/>
      <point x="419" y="724"/>
      <point x="426" y="729" type="curve" smooth="yes"/>
      <point x="581" y="839" type="line"/>
      <point x="589" y="844"/>
      <point x="594" y="852"/>
      <point x="595" y="860" type="curve"/>
      <point x="598" y="875"/>
      <point x="589" y="886"/>
      <point x="575" y="886" type="curve" smooth="yes"/>
      <point x="569" y="886"/>
      <point x="563" y="885"/>
      <point x="557" y="881" type="curve" smooth="yes"/>
      <point x="423" y="792" type="line"/>
      <point x="345" y="879" type="line"/>
      <point x="341" y="884"/>
      <point x="335" y="886"/>
      <point x="328" y="886" type="curve" smooth="yes"/>
      <point x="314" y="886"/>
      <point x="299" y="874"/>
      <point x="296" y="860" type="curve"/>
      <point x="295" y="852"/>
      <point x="296" y="845"/>
      <point x="301" y="840" type="curve"/>
    </contour>
  </outline>
</glyph>
<glyph name="Ohungarumlaut" format="1">
  <advance width="660"/>
  <unicode hex="0150"/>
  <outline>
    <contour>
      <point x="553" y="824" type="line" smooth="yes"/>
      <point x="561" y="829"/>
      <point x="566" y="838"/>
      <point x="568" y="847" type="curve" smooth="yes"/>
      <point x="572" y="867"/>
      <point x="560" y="883"/>
      <point x="541" y="883" type="curve" smooth="yes"/>
      <point x="530" y="883"/>
      <point x="518" y="875"/>
      <point x="509" y="868" type="curve"/>
      <point x="361" y="765" type="line" smooth="yes"/>
      <point x="355" y="761"/>
      <point x="353" y="754"/>
      <point x="351" y="748" type="curve"/>
      <point x="348" y="733"/>
      <point x="358" y="721"/>
      <point x="372" y="721" type="curve" smooth="yes"/>
      <point x="378" y="721"/>
      <point x="387" y="725"/>
      <point x="395" y="730" type="curve" smooth="yes"/>
    </contour>
    <contour>
      <point x="713" y="824" type="line" smooth="yes"/>
      <point x="721" y="829"/>
      <point x="726" y="838"/>
      <point x="728" y="847" type="curve" smooth="yes"/>
      <point x="732" y="867"/>
      <point x="720" y="883"/>
      <point x="701" y="883" type="curve" smooth="yes"/>
      <point x="690" y="883"/>
      <point x="678" y="875"/>
      <point x="669" y="868" type="curve"/>
      <point x="521" y="765" type="line" smooth="yes"/>
      <point x="515" y="761"/>
      <point x="513" y="754"/>
      <point x="511" y="748" type="curve"/>
      <point x="508" y="733"/>
      <point x="518" y="721"/>
      <point x="532" y="721" type="curve" smooth="yes"/>
      <point x="538" y="721"/>
      <point x="547" y="725"/>
      <point x="555" y="730" type="curve" smooth="yes"/>
    </contour>
    <contour>
      <point x="409" y="-2"/>
      <point x="580" y="167"/>
      <point x="623" y="367" type="curve" smooth="yes"/>
      <point x="659" y="539"/>
      <point x="584" y="682"/>
      <point x="440" y="682" type="curve" smooth="yes"/>
      <point x="284" y="682"/>
      <point x="114" y="513"/>
      <point x="71" y="313" type="curve" smooth="yes"/>
      <point x="35" y="143"/>
      <point x="108" y="-2"/>
      <point x="253" y="-2" type="curve" smooth="yes"/>
    </contour>
    <contour>
      <point x="541" y="630"/>
      <point x="597" y="498"/>
      <point x="569" y="363" type="curve" smooth="yes"/>
      <point x="533" y="193"/>
      <point x="387" y="50"/>
      <point x="264" y="50" type="curve" smooth="yes"/>
      <point x="150" y="50"/>
      <point x="93" y="169"/>
      <point x="124" y="313" type="curve" smooth="yes"/>
      <point x="161" y="489"/>
      <point x="299" y="630"/>
      <point x="422" y="630" type="curve" smooth="yes"/>
    </contour>
  </outline>
</glyph>
<glyph name="ohungarumlaut" format="1">
  <advance width="535"/>
  <unicode hex="0151"/>
  <outline>
    <contour>
      <point x="323" y="0"/>
      <point x="456" y="123"/>
      <point x="487" y="270" type="curve" smooth="yes"/>
      <point x="513" y="394"/>
      <point x="448" y="500"/>
      <point x="334" y="500" type="curve" smooth="yes"/>
      <point x="208" y="500"/>
      <point x="74" y="376"/>
      <point x="43" y="230" type="curve" smooth="yes"/>
      <point x="17" y="104"/>
      <point x="82" y="0"/>
      <point x="197" y="0" type="curve" smooth="yes"/>
    </contour>
    <contour>
      <point x="402" y="452"/>
      <point x="449" y="365"/>
      <point x="428" y="265" type="curve" smooth="yes"/>
      <point x="403" y="149"/>
      <point x="298" y="48"/>
      <point x="207" y="48" type="curve" smooth="yes"/>
      <point x="120" y="48"/>
      <point x="80" y="133"/>
      <point x="101" y="232" type="curve" smooth="yes"/>
      <point x="126" y="349"/>
      <point x="226" y="452"/>
      <point x="319" y="452" type="curve" smooth="yes"/>
    </contour>
    <contour>
      <point x="399" y="665" type="line" smooth="yes"/>
      <point x="407" y="670"/>
      <point x="412" y="679"/>
      <point x="414" y="688" type="curve" smooth="yes"/>
      <point x="418" y="708"/>
      <point x="406" y="724"/>
      <point x="387" y="724" type="curve" smooth="yes"/>
      <point x="376" y="724"/>
      <point x="365" y="716"/>
      <point x="355" y="709" type="curve" smooth="yes"/>
      <point x="207" y="606" type="line" smooth="yes"/>
      <point x="201" y="602"/>
      <point x="199" y="595"/>
      <point x="198" y="589" type="curve" smooth="yes"/>
      <point x="195" y="574"/>
      <point x="204" y="562"/>
      <point x="218" y="562" type="curve" smooth="yes"/>
      <point x="224" y="562"/>
      <point x="233" y="566"/>
      <point x="241" y="571" type="curve" smooth="yes"/>
    </contour>
    <contour>
      <point x="559" y="665" type="line" smooth="yes"/>
      <point x="567" y="670"/>
      <point x="572" y="679"/>
      <point x="574" y="688" type="curve" smooth="yes"/>
      <point x="578" y="708"/>
      <point x="566" y="724"/>
      <point x="547" y="724" type="curve" smooth="yes"/>
      <point x="536" y="724"/>
      <point x="525" y="716"/>
      <point x="515" y="709" type="curve" smooth="yes"/>
      <point x="367" y="606" type="line" smooth="yes"/>
      <point x="361" y="602"/>
      <point x="359" y="595"/>
      <point x="358" y="589" type="curve" smooth="yes"/>
      <point x="355" y="574"/>
      <point x="364" y="562"/>
      <point x="378" y="562" type="curve" smooth="yes"/>
      <point x="384" y="562"/>
      <point x="393" y="566"/>
      <point x="401" y="571" type="curve" smooth="yes"/>
    </contour>
  </outline>
</glyph>
<glyph name="OE" format="1">
  <advance width="1098"/>
  <unicode hex="0152"/>
  <outline>
    <contour>
      <point x="567" y="57" type="line"/>
      <point x="623" y="324" type="line"/>
      <point x="974" y="324" type="line" smooth="yes"/>
      <point x="990" y="324"/>
      <point x="1005" y="337"/>
      <point x="1009" y="353" type="curve"/>
      <point x="1012" y="369"/>
      <point x="1002" y="381"/>
      <point x="986" y="381" type="curve" smooth="yes"/>
      <point x="635" y="381" type="line"/>
      <point x="687" y="625" type="line"/>
      <point x="1087" y="625" type="line" smooth="yes"/>
      <point x="1103" y="625"/>
      <point x="1118" y="638"/>
      <point x="1122" y="654" type="curve"/>
      <point x="1125" y="670"/>
      <point x="1115" y="682"/>
      <point x="1099" y="682" type="curve" smooth="yes"/>
      <point x="671" y="682" type="line" smooth="yes"/>
      <point x="655" y="682"/>
      <point x="640" y="670"/>
      <point x="637" y="654" type="curve" smooth="yes"/>
      <point x="616" y="557" type="line"/>
      <point x="588" y="638"/>
      <point x="520" y="684"/>
      <point x="441" y="684" type="curve" smooth="yes"/>
      <point x="285" y="684"/>
      <point x="114" y="515"/>
      <point x="71" y="315" type="curve" smooth="yes"/>
      <point x="35" y="145"/>
      <point x="109" y="0"/>
      <point x="254" y="0" type="curve" smooth="yes"/>
      <point x="354" y="0"/>
      <point x="459" y="69"/>
      <point x="534" y="172" type="curve"/>
      <point x="504" y="29" type="line"/>
      <point x="500" y="13"/>
      <point x="511" y="0"/>
      <point x="527" y="0" type="curve" smooth="yes"/>
      <point x="953" y="0" type="line" smooth="yes"/>
      <point x="969" y="0"/>
      <point x="983" y="13"/>
      <point x="987" y="29" type="curve"/>
      <point x="990" y="45"/>
      <point x="981" y="57"/>
      <point x="965" y="57" type="curve" smooth="yes"/>
    </contour>
    <contour>
      <point x="151" y="52"/>
      <point x="94" y="171"/>
      <point x="124" y="315" type="curve" smooth="yes"/>
      <point x="162" y="491"/>
      <point x="300" y="632"/>
      <point x="423" y="632" type="curve" smooth="yes"/>
      <point x="542" y="632"/>
      <point x="598" y="500"/>
      <point x="569" y="365" type="curve" smooth="yes"/>
      <point x="541" y="232"/>
      <point x="416" y="52"/>
      <point x="265" y="52" type="curve" smooth="yes"/>
    </contour>
  </outline>
</glyph>
<glyph name="rcaron" format="1">
  <advance width="416"/>
  <unicode hex="0159"/>
  <outline>
    <contour>
      <point x="282" y="573" type="line"/>
      <point x="287" y="568"/>
      <point x="294" y="565"/>
      <point x="301" y="565" type="curve" smooth="yes"/>
      <point x="307" y="565"/>
      <point x="314" y="567"/>
      <point x="321" y="572" type="curve" smooth="yes"/>
      <point x="475" y="682" type="line"/>
      <point x="484" y="687"/>
      <point x="488" y="695"/>
      <point x="490" y="703" type="curve"/>
      <point x="493" y="718"/>
      <point x="483" y="729"/>
      <point x="469" y="729" type="curve" smooth="yes"/>
      <point x="463" y="729"/>
      <point x="457" y="728"/>
      <point x="451" y="724" type="curve" smooth="yes"/>
      <point x="317" y="635" type="line"/>
      <point x="240" y="722" type="line"/>
      <point x="236" y="727"/>
      <point x="229" y="729"/>
      <point x="222" y="729" type="curve" smooth="yes"/>
      <point x="208" y="729"/>
      <point x="194" y="717"/>
      <point x="191" y="703" type="curve" smooth="yes"/>
      <point x="189" y="695"/>
      <point x="191" y="688"/>
      <point x="196" y="683" type="curve"/>
    </contour>
    <contour>
      <point x="410" y="422" type="line" smooth="yes"/>
      <point x="418" y="458"/>
      <point x="409" y="502"/>
      <point x="346" y="502" type="curve" smooth="yes"/>
      <point x="258" y="502"/>
      <point x="188" y="430"/>
      <point x="146" y="376" type="curve"/>
      <point x="167" y="472" type="line" smooth="yes"/>
      <point x="170" y="487"/>
      <point x="160" y="499"/>
      <point x="144" y="499" type="curve" smooth="yes"/>
      <point x="129" y="499"/>
      <point x="113" y="487"/>
      <point x="110" y="472" type="curve" smooth="yes"/>
      <point x="15" y="26" type="line" smooth="yes"/>
      <point x="12" y="12"/>
      <point x="24" y="0"/>
      <point x="38" y="0" type="curve" smooth="yes"/>
      <point x="53" y="0"/>
      <point x="68" y="12"/>
      <point x="71" y="26" type="curve" smooth="yes"/>
      <point x="120" y="253" type="line" smooth="yes"/>
      <point x="127" y="285"/>
      <point x="152" y="332"/>
      <point x="176" y="357" type="curve" smooth="yes"/>
      <point x="224" y="407"/>
      <point x="278" y="447"/>
      <point x="326" y="447" type="curve" smooth="yes"/>
      <point x="355" y="447"/>
      <point x="358" y="432"/>
      <point x="355" y="415" type="curve"/>
      <point x="349" y="390" type="line"/>
      <point x="347" y="377"/>
      <point x="349" y="362"/>
      <point x="369" y="362" type="curve" smooth="yes"/>
      <point x="385" y="362"/>
      <point x="400" y="374"/>
      <point x="403" y="389" type="curve" smooth="yes"/>
    </contour>
  </outline>
</glyph>
<glyph name="sacute" format="1">
  <advance width="458"/>
  <unicode hex="015B"/>
  <outline>
    <contour>
      <point x="282" y="-2"/>
      <point x="364" y="72"/>
      <point x="378" y="139" type="curve" smooth="yes"/>
      <point x="399" y="239"/>
      <point x="332" y="261"/>
      <point x="245" y="291" type="curve" smooth="yes"/>
      <point x="208" y="303"/>
      <point x="145" y="322"/>
      <point x="157" y="379" type="curve" smooth="yes"/>
      <point x="167" y="424"/>
      <point x="222" y="449"/>
      <point x="293" y="449" type="curve" smooth="yes"/>
      <point x="362" y="449"/>
      <point x="387" y="425"/>
      <point x="379" y="388" type="curve" smooth="yes"/>
      <point x="377" y="379"/>
      <point x="373" y="371"/>
      <point x="373" y="368" type="curve"/>
      <point x="370" y="354"/>
      <point x="376" y="341"/>
      <point x="394" y="341" type="curve" smooth="yes"/>
      <point x="414" y="341"/>
      <point x="425" y="357"/>
      <point x="432" y="387" type="curve" smooth="yes"/>
      <point x="446" y="455"/>
      <point x="402" y="499"/>
      <point x="301" y="499" type="curve" smooth="yes"/>
      <point x="230" y="499"/>
      <point x="125" y="475"/>
      <point x="105" y="380" type="curve" smooth="yes"/>
      <point x="90" y="309"/>
      <point x="129" y="271"/>
      <point x="228" y="239" type="curve" smooth="yes"/>
      <point x="320" y="210"/>
      <point x="335" y="185"/>
      <point x="325" y="140" type="curve" smooth="yes"/>
      <point x="319" y="111"/>
      <point x="277" y="51"/>
      <point x="188" y="51" type="curve" smooth="yes"/>
      <point x="124" y="51"/>
      <point x="83" y="83"/>
      <point x="76" y="136" type="curve"/>
      <point x="76" y="147"/>
      <point x="68" y="155"/>
      <point x="55" y="155" type="curve" smooth="yes"/>
      <point x="40" y="155"/>
      <point x="26" y="143"/>
      <point x="23" y="128" type="curve" smooth="yes"/>
      <point x="15" y="94"/>
      <point x="54" y="-2"/>
      <point x="177" y="-2" type="curve" smooth="yes"/>
    </contour>
    <contour>
      <point x="437" y="666" type="line" smooth="yes"/>
      <point x="445" y="671"/>
      <point x="450" y="680"/>
      <point x="452" y="689" type="curve" smooth="yes"/>
      <point x="456" y="709"/>
      <point x="445" y="725"/>
      <point x="426" y="725" type="curve" smooth="yes"/>
      <point x="415" y="725"/>
      <point x="403" y="717"/>
      <point x="393" y="710" type="curve" smooth="yes"/>
      <point x="246" y="607" type="line" smooth="yes"/>
      <point x="240" y="603"/>
      <point x="237" y="596"/>
      <point x="236" y="590" type="curve" smooth="yes"/>
      <point x="233" y="575"/>
      <point x="242" y="563"/>
      <point x="256" y="563" type="curve" smooth="yes"/>
      <point x="262" y="563"/>
      <point x="271" y="567"/>
      <point x="279" y="572" type="curve" smooth="yes"/>
    </contour>
  </outline>
</glyph>
<glyph name="scedilla" format="1">
  <advance width="458"/>
  <unicode hex="015F"/>
  <outline>
    <contour>
      <point x="120" y="-33" type="line" smooth="yes"/>
      <point x="114" y="-43"/>
      <point x="111" y="-50"/>
      <point x="110" y="-56" type="curve"/>
      <point x="107" y="-68"/>
      <point x="115" y="-76"/>
      <point x="126" y="-76" type="curve" smooth="yes"/>
      <point x="130" y="-76"/>
      <point x="135" y="-74"/>
      <point x="139" y="-71" type="curve"/>
      <point x="147" y="-67"/>
      <point x="158" y="-61"/>
      <point x="173" y="-61" type="curve" smooth="yes"/>
      <point x="200" y="-61"/>
      <point x="217" y="-83"/>
      <point x="211" y="-110" type="curve" smooth="yes"/>
      <point x="205" y="-137"/>
      <point x="179" y="-159"/>
      <point x="152" y="-159" type="curve" smooth="yes"/>
      <point x="129" y="-159"/>
      <point x="122" y="-148"/>
      <point x="116" y="-139" type="curve" smooth="yes"/>
      <point x="112" y="-133"/>
      <point x="108" y="-128"/>
      <point x="100" y="-128" type="curve" smooth="yes"/>
      <point x="88" y="-128"/>
      <point x="77" y="-138"/>
      <point x="75" y="-146" type="curve"/>
      <point x="68" y="-179"/>
      <point x="111" y="-201"/>
      <point x="143" y="-201" type="curve" smooth="yes"/>
      <point x="193" y="-201"/>
      <point x="242" y="-160"/>
      <point x="253" y="-110" type="curve" smooth="yes"/>
      <point x="263" y="-62"/>
      <point x="238" y="-19"/>
      <point x="170" y="-19" type="curve"/>
      <point x="175" y="-2" type="line"/>
      <point x="177" y="-2" type="line" smooth="yes"/>
      <point x="282" y="-2"/>
      <point x="364" y="72"/>
      <point x="378" y="139" type="curve" smooth="yes"/>
      <point x="399" y="239"/>
      <point x="332" y="261"/>
      <point x="245" y="291" type="curve" smooth="yes"/>
      <point x="208" y="303"/>
      <point x="145" y="322"/>
      <point x="157" y="379" type="curve" smooth="yes"/>
      <point x="167" y="424"/>
      <point x="222" y="449"/>
      <point x="293" y="449" type="curve" smooth="yes"/>
      <point x="362" y="449"/>
      <point x="387" y="425"/>
      <point x="379" y="388" type="curve" smooth="yes"/>
      <point x="377" y="379"/>
      <point x="373" y="371"/>
      <point x="373" y="368" type="curve"/>
      <point x="370" y="354"/>
      <point x="376" y="341"/>
      <point x="394" y="341" type="curve" smooth="yes"/>
      <point x="414" y="341"/>
      <point x="425" y="357"/>
      <point x="432" y="387" type="curve" smooth="yes"/>
      <point x="446" y="455"/>
      <point x="402" y="499"/>
      <point x="301" y="499" type="curve" smooth="yes"/>
      <point x="230" y="499"/>
      <point x="125" y="475"/>
      <point x="105" y="380" type="curve" smooth="yes"/>
      <point x="90" y="309"/>
      <point x="129" y="271"/>
      <point x="228" y="239" type="curve" smooth="yes"/>
      <point x="320" y="210"/>
      <point x="335" y="185"/>
      <point x="325" y="140" type="curve" smooth="yes"/>
      <point x="319" y="111"/>
      <point x="277" y="51"/>
      <point x="188" y="51" type="curve" smooth="yes"/>
      <point x="124" y="51"/>
      <point x="83" y="83"/>
      <point x="76" y="136" type="curve"/>
      <point x="76" y="147"/>
      <point x="68" y="155"/>
      <point x="55" y="155" type="curve" smooth="yes"/>
      <point x="40" y="155"/>
      <point x="26" y="143"/>
      <point x="23" y="128" type="curve" smooth="yes"/>
      <point x="16" y="97"/>
      <point x="46" y="18"/>
      <point x="140" y="1" type="curve"/>
    </contour>
  </outline>
</glyph>
<glyph name="uni0162" format="1">
  <advance width="522"/>
  <unicode hex="0162"/>
  <outline>
    <contour>
      <point x="127" y="681" type="line" smooth="yes"/>
      <point x="112" y="681"/>
      <point x="97" y="669"/>
      <point x="93" y="653" type="curve"/>
      <point x="90" y="638"/>
      <point x="100" y="625"/>
      <point x="115" y="625" type="curve" smooth="yes"/>
      <point x="303" y="625" type="line"/>
      <point x="176" y="28" type="line" smooth="yes"/>
      <point x="173" y="13"/>
      <point x="184" y="0"/>
      <point x="199" y="0" type="curve" smooth="yes"/>
      <point x="215" y="0"/>
      <point x="229" y="13"/>
      <point x="232" y="28" type="curve" smooth="yes"/>
      <point x="359" y="625" type="line"/>
      <point x="561" y="625" type="line" smooth="yes"/>
      <point x="577" y="625"/>
      <point x="592" y="638"/>
      <point x="595" y="653" type="curve"/>
      <point x="599" y="669"/>
      <point x="589" y="681"/>
      <point x="573" y="681" type="curve" smooth="yes"/>
    </contour>
    <contour>
      <point x="182" y="-28"/>
      <point x="158" y="-49"/>
      <point x="153" y="-73" type="curve"/>
      <point x="150" y="-85"/>
      <point x="153" y="-96"/>
      <point x="159" y="-103" type="curve"/>
      <point x="121" y="-167" type="line"/>
      <point x="119" y="-170"/>
      <point x="118" y="-173"/>
      <point x="117" y="-176" type="curve"/>
      <point x="115" y="-188"/>
      <point x="122" y="-198"/>
      <point x="135" y="-198" type="curve" smooth="yes"/>
      <point x="154" y="-198"/>
      <point x="159" y="-182"/>
      <point x="195" y="-124" type="curve" smooth="yes"/>
      <point x="218" y="-88"/>
      <point x="224" y="-79"/>
      <point x="228" y="-60" type="curve" smooth="yes"/>
      <point x="231" y="-45"/>
      <point x="221" y="-28"/>
      <point x="203" y="-28" type="curve" smooth="yes"/>
    </contour>
  </outline>
</glyph>
<glyph name="Uring" format="1">
  <advance width="683"/>
  <unicode hex="016E"/>
  <outline>
    <contour>
      <point x="702" y="668"/>
      <point x="692" y="681"/>
      <point x="677" y="681" type="curve" smooth="yes"/>
      <point x="659" y="681"/>
      <point x="646" y="667"/>
      <point x="643" y="651" type="curve" smooth="yes"/>
      <point x="615" y="518"/>
      <point x="594" y="397"/>
      <point x="555" y="277" type="curve" smooth="yes"/>
      <point x="510" y="139"/>
      <point x="425" y="49"/>
      <point x="290" y="49" type="curve" smooth="yes"/>
      <point x="114" y="49"/>
      <point x="123" y="236"/>
      <point x="148" y="381" type="curve" smooth="yes"/>
      <point x="165" y="474"/>
      <point x="185" y="564"/>
      <point x="206" y="653" type="curve" smooth="yes"/>
      <point x="210" y="669"/>
      <point x="199" y="681"/>
      <point x="184" y="681" type="curve" smooth="yes"/>
      <point x="170" y="681"/>
      <point x="154" y="670"/>
      <point x="151" y="654" type="curve"/>
      <point x="131" y="569"/>
      <point x="108" y="474"/>
      <point x="90" y="367" type="curve" smooth="yes"/>
      <point x="47" y="125"/>
      <point x="110" y="0"/>
      <point x="278" y="0" type="curve" smooth="yes"/>
      <point x="455" y="0"/>
      <point x="555" y="110"/>
      <point x="610" y="270" type="curve" smooth="yes"/>
      <point x="655" y="400"/>
      <point x="677" y="527"/>
      <point x="699" y="653" type="curve" smooth="yes"/>
    </contour>
    <contour>
      <point x="505" y="721"/>
      <point x="583" y="768"/>
      <point x="597" y="837" type="curve" smooth="yes"/>
      <point x="610" y="895"/>
      <point x="566" y="940"/>
      <point x="506" y="940" type="curve" smooth="yes"/>
      <point x="438" y="940"/>
      <point x="360" y="891"/>
      <point x="345" y="823" type="curve" smooth="yes"/>
      <point x="333" y="766"/>
      <point x="376" y="721"/>
      <point x="438" y="721" type="curve" smooth="yes"/>
    </contour>
    <contour>
      <point x="535" y="893"/>
      <point x="561" y="864"/>
      <point x="555" y="835" type="curve" smooth="yes"/>
      <point x="546" y="793"/>
      <point x="492" y="767"/>
      <point x="457" y="767" type="curve" smooth="yes"/>
      <point x="411" y="767"/>
      <point x="380" y="788"/>
      <point x="387" y="823" type="curve" smooth="yes"/>
      <point x="394" y="853"/>
      <point x="438" y="893"/>
      <point x="492" y="893" type="curve" smooth="yes"/>
    </contour>
  </outline>
</glyph>
<glyph name="uhungarumlaut" format="1">
  <advance width="512"/>
  <unicode hex="0171"/>
  <outline>
    <contour>
      <point x="492" y="475" type="line"/>
      <point x="496" y="490"/>
      <point x="486" y="500"/>
      <point x="472" y="500" type="curve" smooth="yes"/>
      <point x="458" y="500"/>
      <point x="444" y="490"/>
      <point x="440" y="475" type="curve"/>
      <point x="369" y="161" type="line"/>
      <point x="369" y="161"/>
      <point x="363" y="133"/>
      <point x="347" y="118" type="curve" smooth="yes"/>
      <point x="320" y="94"/>
      <point x="240" y="46"/>
      <point x="171" y="46" type="curve" smooth="yes"/>
      <point x="72" y="46"/>
      <point x="101" y="170"/>
      <point x="127" y="292" type="curve" smooth="yes"/>
      <point x="146" y="384"/>
      <point x="171" y="450"/>
      <point x="178" y="474" type="curve" smooth="yes"/>
      <point x="182" y="489"/>
      <point x="171" y="500"/>
      <point x="156" y="500" type="curve" smooth="yes"/>
      <point x="142" y="500"/>
      <point x="132" y="495"/>
      <point x="122" y="466" type="curve" smooth="yes"/>
      <point x="108" y="428"/>
      <point x="88" y="368"/>
      <point x="72" y="291" type="curve" smooth="yes"/>
      <point x="42" y="143"/>
      <point x="9" y="-3"/>
      <point x="161" y="-3" type="curve" smooth="yes"/>
      <point x="238" y="-3"/>
      <point x="314" y="40"/>
      <point x="347" y="76" type="curve"/>
      <point x="338" y="33" type="line" smooth="yes"/>
      <point x="334" y="15"/>
      <point x="343" y="0"/>
      <point x="362" y="0" type="curve" smooth="yes"/>
      <point x="378" y="0"/>
      <point x="394" y="13"/>
      <point x="397" y="28" type="curve" smooth="yes"/>
    </contour>
    <contour>
      <point x="389" y="665" type="line" smooth="yes"/>
      <point x="397" y="670"/>
      <point x="402" y="679"/>
      <point x="404" y="688" type="curve" smooth="yes"/>
      <point x="408" y="708"/>
      <point x="396" y="724"/>
      <point x="377" y="724" type="curve" smooth="yes"/>
      <point x="366" y="724"/>
      <point x="355" y="716"/>
      <point x="345" y="709" type="curve" smooth="yes"/>
      <point x="197" y="606" type="line" smooth="yes"/>
      <point x="191" y="602"/>
      <point x="189" y="595"/>
      <point x="188" y="589" type="curve" smooth="yes"/>
      <point x="185" y="574"/>
      <point x="194" y="562"/>
      <point x="208" y="562" type="curve" smooth="yes"/>
      <point x="214" y="562"/>
      <point x="223" y="566"/>
      <point x="231" y="571" type="curve" smooth="yes"/>
    </contour>
    <contour>
      <point x="549" y="665" type="line" smooth="yes"/>
      <point x="557" y="670"/>
      <point x="562" y="679"/>
      <point x="564" y="688" type="curve" smooth="yes"/>
      <point x="568" y="708"/>
      <point x="556" y="724"/>
      <point x="537" y="724" type="curve" smooth="yes"/>
      <point x="526" y="724"/>
      <point x="515" y="716"/>
      <point x="505" y="709" type="curve" smooth="yes"/>
      <point x="357" y="606" type="line" smooth="yes"/>
      <point x="351" y="602"/>
      <point x="349" y="595"/>
      <point x="348" y="589" type="curve" smooth="yes"/>
      <point x="345" y="574"/>
      <point x="354" y="562"/>
      <point x="368" y="562" type="curve" smooth="yes"/>
      <point x="374" y="562"/>
      <point x="383" y="566"/>
      <point x="391" y="571" type="curve" smooth="yes"/>
    </contour>
  </outline>
</glyph>
<glyph name="Ydieresis" format="1">
  <advance width="593"/>
  <unicode hex="0178"/>
  <outline>
    <contour>
      <point x="643" y="681"/>
      <point x="633" y="676"/>
      <point x="626" y="667" type="curve" smooth="yes"/>
      <point x="306" y="269" type="line"/>
      <point x="158" y="667" type="line" smooth="yes"/>
      <point x="155" y="676"/>
      <point x="147" y="681"/>
      <point x="138" y="681" type="curve" smooth="yes"/>
      <point x="122" y="681"/>
      <point x="106" y="668"/>
      <point x="103" y="653" type="curve" smooth="yes"/>
      <point x="102" y="648"/>
      <point x="103" y="642"/>
      <point x="105" y="635" type="curve"/>
      <point x="261" y="214" type="line"/>
      <point x="125" y="46" type="line" smooth="yes"/>
      <point x="121" y="41"/>
      <point x="117" y="34"/>
      <point x="115" y="28" type="curve"/>
      <point x="112" y="14"/>
      <point x="122" y="0"/>
      <point x="138" y="0" type="curve" smooth="yes"/>
      <point x="148" y="0"/>
      <point x="158" y="5"/>
      <point x="164" y="14" type="curve"/>
      <point x="663" y="632" type="line"/>
      <point x="672" y="644"/>
      <point x="674" y="648"/>
      <point x="675" y="653" type="curve"/>
      <point x="679" y="669"/>
      <point x="667" y="681"/>
      <point x="653" y="681" type="curve" smooth="yes"/>
    </contour>
    <contour>
      <point x="384" y="789"/>
      <point x="366" y="806"/>
      <point x="343" y="806" type="curve" smooth="yes"/>
      <point x="315" y="806"/>
      <point x="287" y="785"/>
      <point x="282" y="762" type="curve"/>
      <point x="278" y="739"/>
      <point x="294" y="723"/>
      <point x="319" y="723" type="curve" smooth="yes"/>
      <point x="348" y="723"/>
      <point x="374" y="743"/>
      <point x="380" y="767" type="curve"/>
    </contour>
    <contour>
      <point x="543" y="789"/>
      <point x="525" y="806"/>
      <point x="502" y="806" type="curve" smooth="yes"/>
      <point x="474" y="806"/>
      <point x="446" y="785"/>
      <point x="441" y="762" type="curve"/>
      <point x="437" y="739"/>
      <point x="453" y="723"/>
      <point x="478" y="723" type="curve" smooth="yes"/>
      <point x="507" y="723"/>
      <point x="533" y="743"/>
      <point x="539" y="767" type="curve"/>
    </contour>
  </outline>
</glyph>
